<?xml version="1.0" standalone="no"?>
<!DOCTYPE svg PUBLIC "-//W3C//DTD SVG 1.1//EN" "http://www.w3.org/Graphics/SVG/1.1/DTD/svg11.dtd" >
<svg xmlns="http://www.w3.org/2000/svg">
<metadata></metadata>
<defs>
<font id="kg_happy_shadowsregular" horiz-adv-x="1918" >
<font-face units-per-em="2048" ascent="1638" descent="-410" />
<missing-glyph horiz-adv-x="642" />
<glyph horiz-adv-x="2048" />
<glyph horiz-adv-x="2048" />
<glyph unicode="&#xd;" horiz-adv-x="642" />
<glyph unicode=" "  horiz-adv-x="642" />
<glyph unicode="&#x09;" horiz-adv-x="642" />
<glyph unicode="&#xa0;" horiz-adv-x="642" />
<glyph unicode="!" horiz-adv-x="762" d="M472 -72h50l-128 -130q-4 -4 -22 -7t-28 -3v10zM376 -46h6q16 0 30 -18l-138 -138l-34 18zM318 6l26 -26l-136 -138h-6q-8 0 -17 4t-13 14zM258 64q4 -2 13 -12t13 -14v-4v-4l-130 -130h-8q-6 0 -9 1t-9 9q-2 2 -5 9t-3 9zM232 148q6 -8 7 -14t1 -16v-10l-128 -128h-10 v40zM232 218l-120 -128q0 2 5 11t11 21t11 21t7 11q4 6 16 19t26 28t26 28t18 17v-28zM350 450l-128 -130h-50l128 130h50zM248 518q10 -18 10 -34q0 -12 -4 -18t-14 -16q-12 -14 -30 -33t-36 -37t-32 -30l-14 -12h-8v52zM464 450q-4 -6 -17 -19t-19 -17q-4 -2 -16 -7 t-25 -10l-26 -10t-17 -5l68 68h52zM496 414q4 6 17 20t19 16q4 0 10 2q4 0 8 1t8 1q2 0 12 -2t14 -2l-44 -42q-2 -2 -4 -2q-2 -2 -4 -2h-2q-18 0 -34 10zM240 620v-52l-128 -128v52zM102 594q0 2 4 9t6 9l128 128v-52l-128 -128q-2 4 -6 17t-4 17zM232 842v-50l-130 -128v50 zM222 954q8 -8 9 -14t1 -16q0 -8 -1 -15t-9 -15l-128 -128v60zM222 1064v-50l-134 -136v52zM216 1178v-52l-128 -128v52zM208 1280q0 -4 4 -17t4 -17v-4v-6l-140 -136v52zM210 1390q0 -8 -1 -28t-11 -30l-110 -110l-18 -12v24q0 10 -1 19t7 19l122 118h12zM208 1510v-20v-20 t-10 -18l-122 -120h-6v42zM198 1624v-52l-128 -130v54z" />
<glyph unicode="&#x22;" horiz-adv-x="1326" d="M368 642q-40 -44 -83 -84t-105 -54l120 120q2 0 25 7t35 11h4h4zM266 650l-138 -138v10v8q4 12 14 34t12 24l104 106zM924 734q-4 -6 -17 -19t-28 -27t-28 -27l-19 -19q-2 -2 -29 -16t-41 -20q-2 -2 -11 -4t-13 -2l128 128q12 0 20 2q20 4 30 4h6h2zM840 760l-128 -128v6 v4q2 4 8 20t10 22q2 8 8 20t6 16l19 19t28 27t29 27t20 19v-52zM318 872v-12q0 -22 -10 -44t-24 -38l-24 -24l-28 -28t-24 -23l-10 -9h-8l18 66zM898 984q0 -26 -11 -49t-27 -43t-35 -38t-37 -32q-2 -2 -8 -5l-10 -5v4v6q4 2 6 16t4 18q0 2 4 14q2 6 4 10l110 114v-10z M326 994h18v-36l-122 -120q0 4 -2 21t-12 21zM222 1008l2 2q2 0 2 1t2 1l4 -4q4 0 13 -6t13 -8l-138 -138h-2q-24 0 -30 16zM208 1104v-22v-20t-10 -18l-122 -120h-6v44zM890 1096h36q0 -8 -2 -10q0 -4 -2 -10t-6 -6l-120 -120q4 16 -10 19t-24 -1zM822 1096l-128 -128h-28 v2q0 2 1 3t1 3q2 6 9 19t9 13l110 114zM70 1070q0 6 1 13t5 13l132 128v-26v-23t-10 -21l-110 -110l-6 -2q-10 0 -11 10t-1 18zM780 1216v-52l-60 -60v50zM198 1274q-6 -8 -22 -25t-36 -36t-38 -36t-26 -23q-2 16 20 45t47 53t44 33t11 -11zM780 1334v-26q0 -26 -11 -47 t-39 -29v50z" />
<glyph unicode="#" horiz-adv-x="1318" d="M472 152h50l-128 -132q-4 -4 -22 -7t-28 -3v10zM266 56l128 128h6h2q14 -4 18 -18v-2v-6l-136 -138q-18 12 -18 28v8zM610 152l-110 -122h-46l128 136zM960 176h34v-10l-122 -120q-8 -8 -20 -9t-20 -1v10zM898 176l-128 -130h-50l128 130h50zM780 228q10 -6 14 -16t4 -20 q0 -2 -9 -13t-19 -25l-28 -36l-74 -62h-18v42zM402 304q0 -6 -3 -25t-5 -25q0 -4 -4 -10t-4 -8l-112 -114h-8v18q0 8 4 28l4 16l120 120h8zM780 286l-86 -84v8v8q0 6 4 26q2 8 4 18l78 76v-52zM240 372q4 0 17 -3t17 -5l-128 -128h-52l138 136h4h4zM382 374q2 0 10 -1t10 -1 l-136 -136h-50l128 128q8 8 18 9t20 1zM1158 372h34l-112 -104l-10 18zM208 458l8 -44l-140 -134v50zM732 374h7t5 -2l-32 -34v6q0 12 3 21t17 9zM1090 372q0 -10 -7 -16t-13 -10v26h20zM208 568v-20v-20q-4 -4 -14 -17t-14 -19q-10 -12 -27 -29l-34 -34t-29 -28t-14 -11h-6 v42zM258 740h52l-130 -128q-6 -8 -13 -9t-15 -1q-6 0 -14 1t-10 9zM222 826v-50l-128 -130v52zM376 740q4 0 18 -3t18 -5q-2 -2 -5 -9t-5 -9q-6 -8 -22 -24t-20 -16q-2 -4 -21 -6t-29 -4h-10h-8q8 10 33 35t35 33q4 2 9 5t7 3zM1208 732l-68 -68h-34l66 68h36zM1106 732 l-44 -44v44h44zM222 936v-50l-128 -128v50zM832 1082v-6q0 -44 -13 -60t-57 -16v14zM456 1116l-130 -76l130 130v-54zM848 1222q2 -4 2 -14v-12v-16t-2 -10q0 -2 -10 -16t-16 -20q-4 -4 -10 -11t-14 -15l-18 -18h-10v52zM446 1254q2 0 5 -4t5 -4v-4v-6q-2 -2 -5 -8t-5 -6 l-128 -132v36z" />
<glyph unicode="$" horiz-adv-x="1378" d="M674 -238l-126 -126h-62l138 138zM796 -226l-138 -138h-52l128 128zM872 -236l-102 -102q-6 -4 -22 -15t-26 -11h-2l128 128h24zM588 -148h12v-44l-140 -138v50zM442 -182l2 4q0 2 2 4l136 136l6 -44l-134 -136q-4 10 -8 18t-4 18zM530 24h8q6 0 17 -3t11 -13l-2 -2 l-128 -128q-2 -2 -4 -2q-2 -2 -4 -2q-10 0 -18 3t-18 7zM454 64l2 2q2 0 4 -2q6 -2 12 -6q4 -4 9 -6t5 -4q0 -10 -8 -18q-6 -6 -20 -21t-30 -31t-31 -30t-21 -20q-4 -4 -13 -11t-13 -7t-18 7t-18 11zM384 108h4q2 0 2 1t2 1q16 0 26 -20l-136 -136l-2 -2h-4l-2 2q-4 0 -14 6 t-12 10zM180 24l128 128h6q6 0 18 -3t12 -11q0 -2 -2 -2t-2 -2l-136 -140h-4h-2q-4 4 -11 10t-7 8q-2 0 -2 2q-2 2 -2 4zM118 74l138 136l26 -26l-138 -136l-4 -2q-2 0 -4 2q-2 0 -9 7l-9 9v6v4zM198 268l2 4q10 0 16 -9t6 -19v-8l-22 -22l-34 -34t-34 -33t-22 -21 q-2 -4 -12 -10t-14 -8h-4h-4q-4 6 -12 14t-6 12zM942 424q0 -14 -10 -26t-23 -22t-28 -17t-25 -11l84 84zM914 528h6q10 0 11 -10t1 -16q0 -8 -1 -14t-7 -12l-126 -126l-20 40zM872 596q4 -4 10 -13t6 -13l2 -4q0 -2 -1 -2t-1 -2v-2l-136 -136l-24 26zM804 648h4h4 q4 -2 9 -9t9 -9v-6v-2l-138 -138l-26 26zM606 560l138 138q4 0 8 -2t5 -4t3 -4q6 0 10 -8v-4v-2l-130 -128q-2 -2 -4 -2q-2 -2 -4 -2q-6 0 -16 3t-10 13v2zM658 732h2h6q6 -2 12 -6q4 -4 9 -6t5 -6q0 -2 -3 -7t-5 -9l-110 -112l-10 -5t-8 -3q-4 0 -18 7t-16 11zM454 638 l128 128h2q2 0 2 1t2 1q6 0 17 -3t11 -13l-2 -2l-128 -128q0 -2 -2 -2h-6q-4 0 -14 2t-10 12v4zM512 820q6 0 18 -12l4 -4q2 -2 4 -2v-2q0 -2 2 -4l-2 -2l-128 -130h-8q-18 0 -26 16zM446 860l2 2l4 -2h2q4 0 13 -6t11 -10l-138 -138q0 -2 -2 -2h-6q-14 0 -24 20zM238 776 l138 136q4 -4 14 -13t12 -13l-4 -8q-4 -8 -6 -8l-110 -112l-8 -4q-8 -4 -10 -4l-2 -2h-4q-2 0 -2 2q-2 0 -9 6t-9 10v4v6zM186 834l140 138q18 -10 18 -28l-4 -8l-136 -134q-8 4 -13 13t-5 17v2zM136 904l138 136q18 -10 18 -26q0 -2 -1 -2t-1 -2v-4l-136 -136q-4 2 -10 12 t-8 14v2v6zM110 988l138 138q8 -16 8 -36v-8l-128 -128h-6h-4q0 4 -3 13t-5 13v6v2zM238 1236v-58l-128 -128v58zM888 1076l112 110h2q2 0 2 1t2 1l2 -2q4 0 10 -7t8 -9v-6v-4l-102 -102h-8q-8 0 -18 2t-10 10v6zM924 1228h8q6 0 17 -1t11 -11l-2 -6l-120 -116q0 -4 -10 0 t-16 6l-8 8zM848 1262h2h6q4 0 13 -4t11 -4v-4v-4l-120 -120h-2q-8 0 -17 5t-13 13zM666 1204l30 30t32 28q10 12 28 12h30v-12q-16 -18 -32 -34l-28 -28t-24 -22q-4 -2 -10 -6t-8 -2q-18 2 -18 26v8zM264 1368q0 -4 -3 -14t-5 -12q-4 -10 -10 -27t-8 -17l-102 -102v2v6 q0 2 4 8t4 10l12 18t17 24t16 22t9 12q2 4 11 14t20 21l21 21z" />
<glyph unicode="%" horiz-adv-x="1456" d="M658 -72l44 -8l-128 -130q-6 -6 -13 -7t-13 -1q-8 0 -14 1t-12 7zM556 -54h10q8 0 21 -1t13 -11v-6q-6 -6 -23 -22t-35 -34l-34 -34l-22 -22q-4 -4 -13 -10t-13 -6q-8 -2 -20 1t-12 7v8zM478 -20h8q6 0 17 -2t11 -12l-2 -4l-128 -128h-10q-10 0 -18 1t-16 7zM1216 -28 l-130 -130h-52l128 130h54zM1070 -2h2q10 0 22 -4t12 -14q0 -2 -1 -3t-1 -3v-2l-110 -112q-8 -10 -16 -11t-16 -1q-10 0 -16 1t-14 11zM384 6h2h6q4 0 18 -4t18 -4l-138 -138h-14q-6 0 -16 -1t-12 7zM870 -94q0 2 2 4l136 138l26 -24l-136 -140h-4h-6q-2 4 -9 9t-7 9z M366 48l-128 -128v22v20t10 18l118 120v-52zM822 -28q0 2 2 9t6 7l120 120h2h6q2 0 5 -4t5 -4q0 -4 4 -12q2 -4 4 -6l-138 -136l-4 -2q-2 0 -4 2q-4 0 -6 7t-2 9v4v6zM402 246q0 -28 -11 -51t-28 -43t-36 -38t-37 -32q-4 -2 -9 -5t-7 -3v2v6q0 6 6 26t10 26q2 4 4 9t6 9 l102 102v-8zM940 158l-84 -84v2v6q4 12 9 35t7 23q2 6 12 16l21 21t21 20t14 13v-52zM454 412v-4q-4 -6 -10 -26t-8 -26q-8 -12 -8 -18l-102 -102v4v6q0 4 6 23t8 27q4 4 6 10t4 6l104 102v-2zM504 584v-6q0 -4 -4 -16t-4 -16q-2 -6 -5 -16t-5 -10l-110 -112l-2 6v6q0 2 2 4 q2 10 9 30t7 22l112 110v-2zM548 738v-6q-2 -2 -5 -16t-5 -18q0 -2 -4 -14q-2 -6 -4 -10l-112 -114v6v4q2 4 4 17t6 17q0 4 4 16q2 6 4 10l112 112v-4zM588 904q0 -2 2 -6t2 -8q0 -22 -14 -48t-35 -50t-44 -42t-39 -26v8q0 14 4 32t14 30zM624 1044v-2q-2 -4 -5 -17t-5 -19 q0 -4 -4 -13t-4 -13l-110 -110v8q0 14 3 32t13 30l112 110v-6zM666 1214q0 -4 1 -6t1 -4l-2 -8q-2 -6 -3 -15t-5 -17l-8 -20l-112 -112v4v6q2 4 8 23t10 29l4 8q2 4 4 6zM366 1246q18 0 36 -6l-128 -132h-52l136 138h8zM486 1240q-30 -36 -69 -74t-85 -58l128 132h26z M144 1152l138 138q2 0 6 -2t6 -4t6 -4l8 -8v-4v-4l-128 -130h-8q-8 0 -18 2t-10 10v6zM222 1342h4h4q2 -4 9 -10t9 -8v-6v-2l-138 -138l-26 26zM710 1356q0 -10 -4 -29t-14 -29l-110 -112v4v6q2 8 4 24t2 20q4 2 6 8t6 6l110 114v-12zM186 1426q10 -8 11 -17t1 -19v-16 l-132 -128h-8v52zM186 1488l-128 -132v14q0 16 8 31t18 25l21 21l31 31t30 31t20 19v-40zM752 1526v-6q-2 -8 -8 -30t-10 -28q0 -4 -2 -11t-4 -7q-6 -8 -18 -20l-23 -23t-20 -19l-9 -8h-8q0 6 3 17t7 23t8 23t8 15q2 6 13 17l23 23t24 22t16 14v-2zM796 1674v-8 q-4 -10 -10 -30t-8 -20l-102 -104q0 4 -1 9t-1 7q0 10 1 23t9 21l112 110v-8z" />
<glyph unicode="&#x26;" horiz-adv-x="1636" d="M1112 -162q0 2 2 4l138 138l26 -26l-132 -130q-2 -4 -7 -6t-7 -2q-20 0 -20 18v4zM592 12h42v-6l-128 -132h-42v10zM756 12l-132 -128q0 -2 -16 -4t-24 -6h-10h-8l128 132q8 8 18 7t20 -1h24zM1190 38h6h2q14 -4 18 -18v-2v-6l-136 -138h-4h-6q-4 6 -11 16t-5 10zM482 20 h50v-8l-13 -13l-31 -31l-37 -37l-31 -31q-14 -12 -19 -15t-19 -3q-8 0 -16 1t-16 9zM884 20l-122 -120q-4 -6 -20 -7t-26 -1h-14l130 128h52zM394 46h6q4 0 5 1t5 1h15t13 -10l-128 -128q-2 -2 -6 -2h-10h-15t-13 10zM186 -46q0 8 4 8l136 136l24 -26l-134 -136l-4 -2 q-10 0 -18 4t-8 16zM1044 72q0 -2 -2 -8t-6 -8q-36 -44 -80 -74t-98 -46l102 102q6 4 14 8l20 10q4 2 21 9t21 7h6h2zM1012 -30l134 138q18 -12 18 -32v-4l-134 -136q-4 2 -10 12t-8 14v4v4zM136 18q0 2 2 2l136 138q18 -10 18 -30v-6l-138 -134q-18 8 -18 24v6zM222 228h6 q10 0 11 -13t1 -21v-10l-136 -136l-16 42zM198 312q10 -2 10 -13v-15v-16l-132 -128h-6v44zM198 382l-128 -128v20q0 10 -1 20t7 18l122 120v-50zM832 484q6 -4 12 -13t6 -17q0 -2 -2 -4v-2l-68 -66q-2 -2 -4 -2q-2 -2 -8 -2q-16 0 -30 12zM222 566v-6q0 -4 -2 -16t-4 -16 t-6 -16q-2 -6 -2 -10l-114 -112v4v2q0 4 4 14t4 12q6 10 16 31t10 23q4 6 18 19t29 28l28 28t19 17v-2zM668 440l112 112h4h4q8 -8 12 -14t6 -10l-112 -114h-8q-18 0 -18 18v8zM744 604q4 0 6 -4t6 -6v-2v-6l-106 -102h-10q0 42 28 67t62 43l2 2q2 2 3 2t3 2q4 2 6 4z M332 796l2 4q0 2 2 2l136 134q2 0 4 -3t6 -3l6 -18q-2 -4 -6 -8l-10 -10q-6 -6 -24 -22t-37 -34t-37 -33t-24 -21h-2h-4q-2 0 -6 4q-2 2 -2 4zM300 878l138 136l18 -34l-138 -138h-6q-8 0 -10 10t-2 18v8zM266 962l136 138q8 -8 9 -15t1 -17v-10l-128 -128l-4 -4l-6 4l-8 24 v6v2zM376 1186q10 -4 10 -14v-14v-16l-128 -128h-10v44zM230 1134q0 10 1 18t9 16l128 130q0 -4 2 -14t2 -12q0 -22 -3 -29t-19 -25l-21 -21l-33 -33l-34 -34l-22 -22q-10 4 -10 12v14zM778 1244q0 2 2 2l52 52q2 -2 6 -4q8 -4 10 -6q2 0 5 -3l5 -5q-8 -22 -25 -42t-37 -34 q-18 10 -18 36v4zM376 1400v-10q0 -4 -4 -20q-2 -8 -4 -14l-110 -110q-2 2 -2 4v4q0 16 12 37t24 33l84 84v-8z" />
<glyph unicode="'" horiz-adv-x="738" d="M120 698l138 140l16 -34l-136 -138h-4q-10 0 -12 7t-2 15v10zM368 812q-4 -6 -15 -17l-23 -23l-23 -23l-15 -15t-24 -17t-28 -19h-4h-4q6 6 19 20t28 29l28 28l19 19q2 2 16 8t18 10h4h4zM300 996q0 -2 1 -3t1 -3q0 -16 -8 -37t-20 -31l-102 -102v4v6q2 4 8 23t10 27 q0 2 4 10q2 4 4 6l102 102v-2zM336 1128q0 -10 -1 -22t-9 -20l-118 -120v6v12q0 8 4 24l4 16l120 120v-16zM232 1162h52v-8l-13 -13l-31 -31l-37 -37l-31 -31q-16 -16 -31 -20t-39 -4v16zM198 1240v-52l-128 -128v52zM198 1360v-52l-128 -128v52zM198 1444v-26l-128 -128v26 z" />
<glyph unicode="(" horiz-adv-x="898" d="M624 -130q-8 -8 -30 -32t-30 -30q-2 0 -10 -7t-19 -15l-22 -16t-17 -14q-10 -8 -25 -16t-31 -8h-4l128 128q2 2 17 4t25 6h8h10zM358 -226l138 136q4 -2 13 -12t13 -14v-2v-4l-130 -128q-2 -2 -4 -2q-2 -2 -4 -2q-10 0 -18 7t-8 17v4zM436 -38l4 2l6 -2q2 0 8 -7t6 -9 l4 -4l-4 -6l-134 -136q0 -2 -2 -2h-4l-6 2l-4 4q-2 2 -2 4q-4 4 -8 10t0 8zM256 -98l128 128h6h2q2 0 5 -3t5 -3q0 -4 4 -12q2 -4 4 -6l-136 -136l-6 -4q-10 0 -11 12t-1 18v6zM340 100h6h4q0 -2 3 -5l5 -5t6 -9t2 -7l-136 -138h-4h-4q-4 4 -12 16q-4 6 -6 10zM168 48 l140 136q4 -2 11 -15t7 -17t-7 -13t-11 -13q-6 -6 -22 -23t-34 -35t-33 -34t-21 -22h-12q-10 0 -14 11t-4 21v4zM144 134l138 138q4 -10 7 -18t3 -18q0 -2 -1 -3t-1 -3v-2l-136 -138q-10 14 -10 38v6zM118 228l138 136q4 -10 7 -17t3 -19l-2 -6l-136 -138q-2 4 -5 18t-5 18 v6v2zM100 320q0 2 2 2l136 136v-50l-128 -128q-10 20 -10 34v6zM82 418q0 2 2 6l128 128q10 -2 10 -10v-14q0 -10 -1 -18t-9 -16l-102 -102q-2 -2 -9 -6t-9 -4q-8 0 -9 13t-1 15v8zM198 648q0 -4 3 -18t3 -18v-6v-2l-138 -136l-8 42zM186 758v-52l-128 -128v52zM186 870v-50 l-128 -128v50zM186 990q0 -4 2 -13t2 -11q0 -22 -3 -29t-19 -23q-6 -6 -21 -23t-33 -35t-34 -33t-22 -21v58zM186 1100v-50l-128 -128v50zM198 1178l-132 -128v12q0 10 3 25t7 21l122 120v-50zM212 1306l-128 -128v4v6q0 2 4 16t4 18q2 4 5 14t5 10l120 122zM274 1528 q0 -28 -21 -58t-41 -52q-6 -8 -15 -18t-19 -20q-10 -12 -24 -24h-14q0 20 9 43t19 37l21 21l31 31t32 30t22 20v-10zM366 1736q-32 -66 -49 -92t-30 -35t-26 -13t-37 -24q34 46 66 85t76 79z" />
<glyph unicode=")" horiz-adv-x="880" d="M410 -88h4h4q4 -2 9 -8t9 -8v-6v-2l-136 -138l-26 24zM212 -166l138 138q4 -2 14 -12t12 -14q0 -8 -10 -18l-110 -110q0 -2 -7 -5t-11 -5h-2h-6q-2 2 -8 9t-10 9v6v2zM290 24h4h6q2 -4 8 -9t6 -9l4 -4q0 -2 -2 -2t-2 -2l-134 -138l-26 28zM102 -46l136 138l26 -26 l-136 -138h-6h-4l-9 9t-7 9q-2 0 -2 2v4zM282 246q-2 -6 -9 -21t-15 -31t-16 -30t-12 -20t-15 -18t-23 -24l-23 -23t-15 -13v4v4q0 2 2 12t6 14q4 10 9 27t9 17zM332 418v-18q0 -24 -8 -42t-24 -36l-24 -24l-28 -28t-24 -23t-12 -9h-8l18 66zM366 564v-6v-6q0 -10 -4 -29 t-4 -21l-128 -128l8 62zM384 686q0 -10 -1 -25t-7 -21l-120 -120v20v21t8 17l120 120v-12zM392 820v-52l-128 -128v52zM392 940q0 -4 1 -13t1 -13v-23t-10 -21l-110 -110h-10v52zM384 1042q10 -12 10 -30q0 -4 -1 -6t-1 -4v-4l-128 -128h-8v44zM376 1152q0 -4 4 -17t4 -17 v-4v-2l-136 -140v52zM230 1118l128 128h8v-40l-128 -130q-8 2 -8 13v15v14zM198 1206l134 136q10 -8 11 -17t1 -19q0 -4 -1 -5t-1 -5q-2 -4 -2 -6l-128 -128q-10 6 -12 17t-2 21v6zM168 1290l140 138q10 -16 10 -32q0 -2 -1 -4t-1 -4q-2 -2 -2 -4l-128 -128l-4 -2 q-8 0 -11 11t-3 17v8zM128 1368l136 138q18 -14 18 -32v-4l-138 -136q-6 4 -12 12t-6 18zM230 1582h6q8 0 10 -10t2 -18v-8l-138 -136l-18 34zM58 1530l140 136q4 -2 11 -15t3 -17q0 -4 -10 -17t-16 -19q-4 -6 -16 -18l-25 -25l-25 -25l-18 -18q-4 -2 -13 -8t-13 -8 q-18 10 -18 30v4z" />
<glyph unicode="*" horiz-adv-x="1224" d="M684 314h60l-130 -130q-10 -10 -29 -10h-29v10zM624 314l-128 -130h-50l128 130h50zM538 348l-128 -128v20v20t8 20l120 120v-52zM154 356l136 138q18 -12 18 -28v-8l-140 -136q-4 4 -10 14t-6 18zM384 442q-40 -28 -77 -60t-77 -60l120 120h34zM564 536v-4q0 -2 2 -4 q0 -2 -1 -3t-1 -3v-2q-2 -6 -4 -15t-6 -17q-4 -10 -6 -20l-112 -112v52zM932 442h26q0 -2 -4 -4t-4 -6q-6 -4 -19 -15t-28 -23t-28 -23t-19 -15v10zM238 564h6h4q0 -4 4 -6t4 -6q2 -4 6 -9t2 -7l-136 -136h-6h-4q-4 6 -11 15t-5 9zM880 502q4 -2 10 -8t8 -10v-2 q0 -22 -21 -37t-37 -15q0 4 2 23t6 23q0 2 10 12l14 14h4h4zM74 504q0 2 2 6l128 130q8 -4 8 -10q4 -4 7 -14t3 -12l-138 -136q-10 4 -10 13v15v8zM472 510q-6 -14 -17 -26t-27 -16zM830 564q2 -4 8 -10t10 -8v-6v-4q-4 0 -6 -4t-4 -4q-6 8 -7 12t-1 12v12zM256 808h54 q0 -10 -13 -22t-29 -24t-32 -25t-24 -21q-10 -16 -18 -29t-30 -13q-10 0 -19 -1t-17 7zM58 724l140 138q18 -10 18 -28l-4 -8l-128 -128h-8q-18 0 -18 18v8zM238 998q-16 -28 -32 -54t-44 -48q10 30 30 56t46 46z" />
<glyph unicode="+" horiz-adv-x="1062" d="M410 400q4 -4 17 -6t19 -4l-132 -128h-50l138 138h2h6zM574 400l-128 -132q-8 -4 -22 -5t-22 -1h-18l138 138h52zM684 400v-10l-110 -110q-10 -10 -21 -11t-23 -1h-26l128 132h52zM384 492v-52l-136 -136v52zM384 586v-23t-8 -21l-112 -110l-16 -8q0 4 -1 11t-1 11 q0 10 1 20t9 18l128 128v-26zM212 674h6h4q4 -4 13 -10t13 -8l-138 -138h-2q-24 0 -32 18zM358 648l-128 -130h-50l128 130h50zM906 650q4 0 14 -1t12 -1q0 -4 -4 -10t-4 -8q-4 -6 -14 -16t-20 -21t-20 -20t-14 -13l-10 -5t-8 -3q0 4 -2 13t-2 13t2 14t2 12q4 6 20 23t22 21 h10q4 0 8 1t8 1zM204 776v-52l-128 -130h-10v44zM58 750l128 128h12v-52l-132 -128q-8 10 -8 18v18v16zM414 1090q0 -38 -18 -61t-58 -23h-24l88 84h12zM402 1204v-52l-128 -128v52z" />
<glyph unicode="," horiz-adv-x="738" d="M128 -438l130 128q4 -2 10 -12t6 -14l2 -4l-2 -4l-7 -14t-9 -14t-17 -16t-26 -25t-26 -25t-17 -18q-4 -4 -17 -13t-17 -13q-10 4 -10 14v14v16zM376 -328q-24 -28 -56 -61t-72 -49l19 19l28 28t29 28t20 19q4 4 16 10t16 6zM310 -148q-6 -20 -13 -46t-23 -38l-102 -104 q2 8 8 31t10 29q0 2 4 10l4 8zM344 -2v-8q-4 -10 -6 -26t-2 -18l-120 -120v22q0 10 -1 20t7 20l122 120v-10zM292 16l-128 -128h-52l136 136zM198 92q4 -12 7 -18t3 -16q0 -14 -10 -24l-128 -128v58zM208 212v-50l-132 -128h-6v40zM198 296v-24l-128 -128v24z" />
<glyph unicode="-" horiz-adv-x="1012" d="M310 674h50l-138 -138q-4 -2 -6 -2q-2 -2 -4 -2h-2q-6 0 -17 1t-13 9zM482 674l-138 -138h-52l136 138h54zM592 674q-4 -4 -9 -14t-9 -14q-6 -6 -20 -21t-30 -31l-31 -31l-21 -21q-16 -4 -26 -5t-26 -1h-18l130 128q6 4 21 7t25 3h14zM222 698h6h4q4 -2 13 -8t13 -10 l-138 -138l-40 10zM712 674l-128 -132h-52l128 132h52zM822 674l-128 -132h-52l128 132h52zM212 792q0 -26 -12 -49t-30 -43t-39 -38t-37 -32q-2 -4 -11 -10t-13 -8v18q0 8 1 22t5 22l122 118h14zM70 776l138 136v-52l-132 -128q0 4 -3 17t-3 17v4v6z" />
<glyph unicode="." horiz-adv-x="760" d="M504 -52l-128 -130q-8 -6 -21 -7t-23 -1h-18l128 128q8 8 22 9t22 1h18zM350 -36h2q10 0 22 -2t12 -14q0 -2 -1 -4t-1 -6l-110 -110q-8 -8 -16 -9t-16 -1q-10 0 -16 1t-14 9zM288 16l26 -26l-136 -136l-4 -2q-8 0 -17 6t-15 12zM230 76l26 -24l-146 -146l-18 32zM212 168 v-50l-128 -128v50z" />
<glyph unicode="/" horiz-adv-x="1054" d="M432 -70h50v-10l-13 -13l-31 -31t-37 -36t-31 -30q-16 -16 -31 -19t-37 -3v12zM344 -44h8q6 0 17 -2t11 -10q0 -2 -1 -2t-1 -2v-2l-128 -128q-2 -2 -4 -2h-4q-10 0 -17 3t-17 7zM260 -10h2q8 0 18 -5t14 -13l-136 -136q-2 -2 -12 2t-16 6l-8 8zM174 16l40 -10l-136 -136 h-40v8zM148 110q0 -4 1 -13t1 -13q0 -22 -2 -28t-18 -22q-6 -6 -21 -23t-33 -35l-34 -34l-22 -22v26q0 12 -1 23t9 21zM184 246v-8q-4 -10 -10 -29t-8 -23l-114 -112v6v4q4 4 10 24t8 28q2 0 6 8q2 4 2 8l106 104v-10zM234 424v-6v-8q-4 -12 -9 -32t-9 -20l-112 -112l26 76z M286 584v-2q-2 -4 -5 -18t-5 -18q0 -4 -4 -14t-4 -12l-110 -110q-2 0 -2 2v6v4q0 2 2 2q2 12 9 32t7 22l112 110v-4zM326 742q0 -28 -11 -50t-27 -42t-35 -37t-37 -31q-2 -4 -8 -6t-10 -6q4 16 9 41t17 37l102 104v-10zM370 894q0 -14 -4 -30t-14 -26l-110 -110v2v4 q0 6 1 14t3 18l4 20l120 120v-12zM406 1052q0 -14 -4 -32t-14 -30l-112 -110v4v4q2 4 5 17t5 17q0 6 4 16t4 12l112 110v-8zM448 1210q0 -2 2 -4q0 -2 -1 -5t-1 -5q-4 -10 -10 -30t-6 -22l-112 -110v6v2q4 14 9 36t7 26l112 110v-4zM490 1364q0 -28 -8 -45t-24 -37l-25 -25 l-28 -28t-24 -23l-11 -10h-8q0 6 3 23t5 21l8 24l112 114v-14zM516 1462l-110 -110q-2 0 -2 2v6v4q0 2 2 4q0 10 8 30l8 20l112 112zM576 1692v-6v-4q0 -2 2 -2q0 -12 -4 -28t-14 -26l-112 -114l16 70z" />
<glyph unicode="0" horiz-adv-x="1542" d="M848 -52h50v-10l-110 -110q-10 -10 -31 -14t-37 -4v8zM634 -36l6 2q12 0 19 -3t17 -7l-136 -138h-2h-6q-4 2 -18 5t-18 5zM788 -52l-128 -130h-50l128 130h50zM924 -146q-10 -10 -34 -18t-38 -8h-4l120 120q2 0 12 3t14 5q4 4 21 6t21 2zM558 0h2q8 0 18 -5t14 -13 l-136 -138l-36 18zM350 -88l138 140q4 0 13 -7t13 -11v-4v-4q-2 -4 -2 -6t-2 -6t-4 -6l-112 -112q-2 -4 -9 -6t-9 -2q-6 0 -16 7t-10 13v4zM292 -36l136 138l28 -26l-138 -138h-6h-2l-10 10l-8 8v6v2zM232 26l136 136l26 -26l-136 -136l-4 -2l-6 2q-2 0 -9 6t-7 10l-2 4z M190 92l136 138q4 -2 9 -12t9 -14v-4v-2l-136 -140q-8 4 -15 14t-7 18zM146 168l128 132h6h4q4 -4 10 -14t6 -12t-6 -12t-10 -14l-22 -22l-34 -34l-34 -34l-22 -22l-8 -2q-12 0 -15 10t-3 18v6zM110 244q0 2 2 4l136 136q10 -2 10 -13v-15v-16l-130 -128q-6 6 -12 14t-6 18z M222 478q8 -8 9 -15t1 -17v-10l-130 -128h-8v42zM1062 500v-4q-20 -32 -49 -58t-63 -46l112 112v-4zM76 442l140 140v-52l-128 -128q-4 4 -6 17t-6 17v4v2zM1096 658v-6v-2q0 -10 -4 -29t-4 -21q0 -4 -4 -10t-4 -8l-112 -110h-8l8 58zM198 684q8 -8 9 -15t1 -17q0 -8 -1 -15 t-9 -13l-128 -128v60zM1096 770v-50l-128 -132h-8v44zM198 796v-52l-128 -130v52zM1088 880v-50l-128 -128v50zM198 862l-128 -128v24q0 10 -1 19t7 19l122 118v-52zM1080 984q6 -10 7 -16t1 -16v-12l-138 -136v52zM208 984l-132 -128v20q0 10 1 20t11 18l120 120v-50z M932 952q0 4 2 6l128 128q10 -4 10 -12v-14q0 -16 -3 -22t-15 -20l-22 -22l-34 -34l-34 -34l-22 -22q-8 8 -9 17t-1 19v10zM232 1172q0 -22 -9 -46t-25 -40l-19 -19l-28 -28t-29 -28t-20 -17v6v8q4 14 10 37t8 25l112 110v-8zM908 1044l136 136q10 -16 10 -36v-8l-138 -136 q-2 4 -5 17t-3 17v6v4zM866 1122l138 134q6 -4 12 -12t6 -18l-4 -2l-134 -138q-18 12 -18 30v6zM804 1168q0 2 2 4l136 136q2 2 12 -5t14 -11l2 -4l-2 -6l-128 -128h-10q-8 0 -17 2t-9 12zM300 1360q-4 -4 -9 -21t-7 -21q-4 -6 -8 -14l-8 -16q-6 -8 -10 -20q-4 -6 -17 -20 t-28 -29t-29 -28t-20 -19q28 58 59 102t77 86zM840 1326q4 2 10 4q12 4 16 4h4h2q4 0 10 -3t8 -5q-2 -4 -8 -13t-10 -13q-4 -6 -18 -21t-31 -31t-32 -31t-21 -19q0 -2 -6 -6t-8 -4q-10 0 -23 4t-13 6v8z" />
<glyph unicode="1" horiz-adv-x="778" d="M318 -44l-120 -120q-10 -6 -22 -7t-22 -1h-18l130 128h52zM446 -34l-138 -138h-52l138 138h52zM496 -44q8 10 19 10h21h20q0 -4 -7 -14t-9 -14q-34 -36 -71 -73t-93 -37v8zM222 26q10 -2 10 -13v-15t-1 -5t-1 -5v-6l-128 -128h-8v44zM222 128q0 -14 -3 -31t-15 -27 l-102 -104l-18 -10v18q0 10 1 23t9 21l128 128v-18zM222 256v-52l-128 -128v52zM222 326l-128 -128q0 2 -1 10t-1 10q0 10 1 20t9 18l120 120v-50zM230 496q0 -2 1 -10t1 -10q0 -12 -1 -21t-9 -19l-120 -118h-8v40zM222 606h16q0 -28 -7 -41t-27 -35q-10 -12 -27 -29 t-34 -33t-29 -28l-12 -12h-8v50zM230 728v-52l-136 -136v52zM222 840v-52l-128 -130v52zM216 942q2 -4 4 -18t2 -18q0 -2 -2 -7t-4 -9l-132 -128v52zM216 1062v-26q0 -10 -1 -21t-11 -21l-120 -122v60zM222 1180v-8v-8q-2 -4 -2 -12t-2 -14q-2 -8 -2 -16l-122 -122h-10v44z M216 1292v-50l-132 -128v50zM216 1402v-50l-132 -128v50zM216 1524v-26q0 -12 -1 -23t-11 -21l-120 -118v60zM216 1600v-16l-132 -130h-10q0 2 1 5t1 5q2 0 6 8q2 4 2 8l120 120h12z" />
<glyph unicode="2" horiz-adv-x="1464" d="M314 -58h52l-128 -132q-6 -6 -13 -7t-15 -1h-13t-11 8zM830 -58l-128 -132q-10 -8 -19 -8h-19h-24l138 140h52zM888 -58h52q-6 -12 -24 -35t-41 -47t-46 -41t-37 -17h-6q-2 0 -12 4t-14 4zM100 -166v6t2 6l128 128h6h2q14 -4 18 -18v-2v-6l-138 -138q-2 -2 -8 2t-8 8 q-2 0 -2 6v8zM486 -58q-6 -6 -21 -23t-33 -35l-34 -34l-22 -22q-16 -16 -24 -17t-26 -1h-26l128 132h58zM564 -52q14 0 36 -6l-128 -132h-54l138 138h8zM710 -58l-128 -132h-52l128 132h52zM1060 -58l-128 -132h-52l128 132h52zM1172 -58l-128 -132h-50l128 132h50z M1292 -58l-130 -132h-50l130 132h50zM84 -58l128 128h10v-44l-130 -128q-6 8 -7 14t-1 16v14zM212 190v-16v-12q0 -4 -4 -24q-2 -8 -4 -18l-112 -112h-8v50zM308 1044v-8l-128 -130h-52l136 138h44zM418 1036l-128 -130h-52l128 130h52zM556 1052l-128 -128q-10 -8 -19 -9 t-19 -1q-4 0 -12 1t-12 1l130 128q10 2 18 4q20 4 24 4h10h8zM58 960l128 128q4 -2 14 -12t12 -14q4 -2 0 -8t-8 -10l-112 -112q-2 -2 -6 -4q-8 -4 -10 -4h-4q-10 0 -12 7t-2 17v12zM958 1160q0 -14 -8 -38t-18 -34l-110 -112q0 6 2 25t6 25q0 4 4 10t4 8l120 120v-4z M204 1210v-4q-2 -6 -4 -22t-2 -20q-4 -4 -6 -9t-6 -9l-110 -110q0 4 -1 9t-1 7q0 10 1 23t9 21l120 120v-6zM940 1260q8 -6 14 -14t6 -18q0 -2 -2 -4l-136 -136l-18 34zM888 1326h2l4 2q8 0 19 -6t11 -16v-6l-128 -128h-8q-10 0 -20 4t-16 14zM710 1206h-8q22 40 54 72 t74 48zM238 1336q0 -6 -6 -19t-10 -17l-15 -15l-23 -23t-24 -23t-16 -15q18 34 42 61t52 51z" />
<glyph unicode="3" horiz-adv-x="1438" d="M734 -52h52l-128 -130q-8 -6 -14 -7t-16 -1h-12t-10 8zM632 -36h4q2 0 2 1t2 1q16 0 36 -10l-10 -18l-110 -110q-4 -2 -9 -5t-9 -5h-2h-6q-4 2 -17 5t-17 5zM898 -52l-120 -120q-8 -10 -18 -10h-20h-20l128 130h50zM1044 -26l-19 -19l-28 -28t-28 -29t-19 -18 q-20 -18 -46 -28t-48 -16l128 128q2 2 17 5l25 5h8h10zM548 -10q0 2 10 -2t16 -6l8 -8l-128 -130h-16h-15t-13 10zM332 -104l140 138h2h4q4 -4 10 -9t8 -9v-4v-4l-138 -138q-2 0 -11 7t-15 11v4v4zM274 -52l136 136l26 -26l-136 -138h-6h-4l-10 10t-6 8l-2 6zM340 136l8 2 q8 0 18 -5t10 -15q0 -2 -7 -12t-11 -14q-6 -6 -21 -22t-33 -33t-34 -33l-22 -22h-12q-12 0 -19 2t-13 16zM162 66l138 138q2 -2 8 -12t6 -12l4 -6q0 -2 -1 -2t-1 -2l-2 -2l-134 -134q-18 8 -18 24v8zM118 144l138 138q18 -10 18 -32v-2l-138 -138q-18 10 -18 30v4zM92 230 l138 136q4 -10 7 -17t3 -19l-2 -4l-136 -140q-10 18 -10 36v8zM58 314l128 128l6 4q10 0 11 -14t1 -20v-10l-128 -128l-4 -2q-10 0 -12 14t-2 24v4zM984 548v-52l-128 -130v52zM820 494q0 2 2 2l128 128h2q12 0 14 -8t2 -14v-14l-130 -128h-4q-10 0 -12 10t-2 18v6zM898 692 l4 2q2 0 4 -2q2 0 9 -7l9 -9v-6v-4q-2 -4 -9 -14t-9 -12l-110 -110h-4h-6l-26 26zM702 606l128 128q2 0 4 2q2 0 3 1t3 1q16 0 32 -10l-138 -140h-6q-6 0 -16 3t-10 11v4zM496 632l136 138q2 -4 9 -13t9 -13v-4v-6l-128 -128q-2 0 -5 -1t-5 -1q-18 0 -18 26zM740 738 q2 0 10 -2t10 -2l-128 -128h-50l120 122q8 8 18 9t20 1zM634 880q0 -8 -3 -31t-7 -27l-112 -112l-16 -8q0 2 -1 10t-1 10q0 12 1 21t9 17l120 120h10zM632 976v-26l-128 -128v26zM496 1214h52l-10 -16q0 -2 -11 -14t-26 -27l-30 -30t-25 -23q-20 -16 -39 -22t-41 -6v10z M392 1224h44v-10l-128 -128h-12q-10 0 -17 1t-15 9zM856 1224v-18q0 -20 -13 -42t-32 -40t-42 -30t-41 -12v14zM308 1256q2 0 2 2l2 2l2 -4q4 0 14 -6t12 -8l-136 -138h-2q-20 0 -34 18zM248 1308l2 2q2 0 2 -1t2 -1h2q2 0 4 -2q4 -4 4 -6q4 -4 7 -9t3 -9l-138 -136l-2 -2 h-4l-2 2q-2 0 -5 3l-5 5l-5 10t-3 8zM702 1188l136 138q8 -8 9 -15t1 -15v-14l-128 -128h-6q-10 0 -11 10t-1 16v8zM752 1352q4 0 9 4t9 4h4h4q4 0 14 -3t12 -5l-138 -138l-42 10z" />
<glyph unicode="4" horiz-adv-x="1516" d="M986 -62l-120 -120q-10 -8 -20 -8h-20h-22l128 128h54zM1052 -52h52l-128 -130q-10 0 -18 -2q-20 -4 -26 -6h-8v8zM1234 -44l-130 -128q-8 -10 -18 -10h-22h-20l136 138h54zM906 34q0 -4 1 -13t1 -13v-23t-10 -21l-110 -110l-18 -10v22v20t8 20zM898 136v-52l-128 -128 l-8 44zM752 102q0 2 4 8t6 8l128 130v-50l-128 -132q-2 4 -6 18t-4 18zM848 314h32v-14l-128 -132l-42 12zM446 326l-128 -128l-20 -4q-10 -2 -18 -4t-14 -4h-4h-6l138 140h52zM504 326h52l-136 -140h-6h-4q-4 0 -17 4t-17 8zM632 326q4 -4 18 -6t18 -6l-128 -128h-52 l136 140h4h4zM788 314q-6 -6 -22 -21t-34 -33l-34 -34l-22 -22q-16 -16 -24 -18t-28 -2q-4 0 -13 1t-11 1l128 128h60zM282 332q2 0 6 2q2 0 4 1t4 1q10 0 20 -2t10 -14v-6l-110 -110q-12 -10 -32 -11t-30 -1v12zM92 252q0 2 2 4l136 136q2 -4 5 -17t5 -17v-4v-4l-138 -138 q-4 10 -7 18t-3 18v4zM222 504v-50l-128 -128v50zM240 632v-18q0 -14 -3 -25t-15 -25l-112 -110v50zM240 752q8 -16 8 -36q0 -10 -3 -16t-15 -16l-27 -27t-33 -34t-29 -29l-13 -12l-18 -8v50zM230 856q2 -4 5 -13t5 -13v-6v-2q-4 -12 -10 -18l-128 -128v52zM906 786 q-4 -6 -16 -20t-29 -26t-36 -19t-37 -1l118 118v-52zM762 804q0 2 3 9t5 9l128 128q4 -6 6 -22t2 -22q0 -2 -2 -9t-6 -9l-110 -110l-18 -8q-2 4 -5 17t-3 17zM222 968l8 -44l-136 -138v52zM890 1052v-52l-128 -128v52zM216 1070v-52l-132 -130v52zM890 1172q8 -16 8 -36v-8 l-136 -134v50zM204 1180q4 -4 8 -21t4 -23q-4 -2 -14 -14t-16 -18q-4 -6 -16 -18t-25 -26t-25 -26t-18 -16q-2 -4 -12 -9t-14 -9v52zM890 1282v-50l-128 -128v50zM204 1292v-50l-128 -130v50zM880 1396q10 -20 10 -36q0 -12 -4 -17t-14 -17q-12 -14 -30 -32l-36 -36l-44 -44 h-10v54zM204 1410v-50l-128 -128v50zM880 1506v-52l-128 -128h-8v44zM204 1524v-52l-128 -128v52zM872 1618l8 -44l-136 -138v54z" />
<glyph unicode="5" horiz-adv-x="1432" d="M822 -52h50l-110 -112q-2 -2 -22 -12t-30 -14h-4h-4q-2 0 -6 4q-2 2 -2 4zM606 -36h4q2 0 4 1t6 1q18 0 30 -10l-136 -138h-4h-6q-4 2 -16 5t-16 5zM752 -52l-128 -130h-50l128 130h50zM394 -130l128 130h8q6 0 17 -2t11 -10q0 -2 -2 -4v-2q0 -4 -3 -10t-5 -8l-112 -110 q-4 -2 -9 -6t-7 -4q-6 0 -17 7t-11 15zM1026 -18q0 -2 -15 -18t-25 -26q-32 -28 -70 -51t-76 -33l118 120q2 0 24 7t36 9h6q2 0 2 2v-10zM454 40l2 2q2 0 2 1t2 1q18 0 28 -18l-138 -138l-32 18zM376 84h6h2q14 -4 18 -18v-2v-6l-136 -138l-26 28zM198 16l134 138 q18 -12 18 -32v-4l-134 -136q-22 10 -22 30zM144 80q0 2 2 4l136 138q14 -4 17 -13t3 -19q0 -2 -1 -3t-1 -3v-4l-128 -128l-6 -4l-4 4q-4 2 -9 11t-7 13zM110 162l138 138q4 -10 7 -18t3 -18q0 -2 -1 -2t-1 -2v-4l-128 -128l-2 -2h-4q-8 0 -10 11t-2 17v8zM84 256l132 128 l6 -8q4 -6 7 -16t1 -10l-136 -138q-10 4 -10 14v14v16zM838 426q0 2 2 2l136 136q0 -4 1 -11t1 -11q0 -10 -1 -19t-9 -19l-19 -19l-27 -27t-26 -25t-16 -15q-2 -4 -15 -10t-17 -6q-4 2 -6 7t-2 9l-2 4v4zM822 530l128 128h4q10 0 12 -10t2 -16v-8l-138 -138q-8 18 -8 36v8z M274 676l40 -20l-128 -126h-50v8zM436 666l-118 -118h-52l118 118h52zM488 658q10 8 19 9t21 1q2 0 10 -1t10 -1l-120 -118h-44v8zM898 720h4q20 0 30 -18l-136 -138h-8q-18 0 -26 18zM616 614q-18 -4 -38 -9t-38 -17q4 6 15 17l23 23l23 23l15 15t26 13t26 13t26 18t26 18 q2 2 8 4t10 2zM266 778v-50l-130 -128v50zM804 744h52v-10l-44 -44q-18 -18 -37 -36t-31 -30q-2 -2 -11 -8t-13 -10h-6h-4q-4 0 -17 4t-17 4zM256 888h10v-40l-130 -128h-8v40zM256 1000v-50l-128 -128v50zM128 984q0 2 3 8t5 8l130 128v-24v-23t-10 -21l-110 -110h-10 q-2 0 -5 12t-3 22zM256 1232v-52l-128 -128v52zM932 1282q0 -2 -6 -12t-10 -14t-16 -17t-26 -26t-26 -25t-18 -16q-16 -16 -23 -17t-29 -1h-26l128 128h52zM1062 1292l-130 -130h-52l120 120q4 4 19 6t25 4h8h10zM1172 1292l-128 -130h-50l128 130h50zM256 1352v-52 l-128 -128v52zM796 1286h14t12 -4l-78 -76q0 2 -1 12t-1 14q0 54 54 54zM266 1472v-24v-19t-10 -19l-120 -118v52zM136 1462l138 138v-26q0 -20 -1 -27t-17 -23q-6 -6 -22 -23t-33 -35t-33 -34l-22 -22q-2 4 -5 18t-5 18v10v6z" />
<glyph unicode="6" horiz-adv-x="1472" d="M866 -58v-12l-128 -128h-52l136 140h44zM720 -52q14 0 36 -6q-4 -4 -10 -15t-8 -15q-12 -12 -30 -29t-34 -33l-40 -40h-60l138 138h8zM986 -58l-120 -122q-8 -8 -21 -9t-23 -1h-16l118 120q10 10 19 11t19 1h24zM496 -154l128 128h14q8 0 15 -1t15 -7l-136 -138h-8 q-8 0 -18 2t-10 12v4zM1140 -18q-40 -42 -80 -74t-92 -54l102 102q2 4 8 6t10 4q8 4 24 10t20 6h2h6zM548 18h4q18 0 32 -18l-138 -138h-4q-20 0 -30 18zM482 58l2 4l2 -2q0 -2 2 -2q4 0 14 -6t12 -8l-138 -138h-8q-16 0 -24 18zM412 110l2 2q2 0 2 -1t2 -1h2q2 0 9 -6 t9 -10v-4v-6q-2 -2 -5 -7t-5 -7q-6 -6 -20 -22t-30 -32t-31 -30t-21 -20q-4 -4 -14 -11t-12 -7q-4 0 -14 10t-12 16zM230 40q0 2 2 4l136 136q4 -4 10 -13t8 -13v-6v-2l-138 -138h-2q-10 0 -13 10t-3 18v4zM180 110l130 130h2h6q4 -4 6 -8t6 -8q4 -6 6 -8l-138 -140h-6 q-8 0 -10 10t-2 16v8zM136 176q0 2 2 4l136 138q4 -4 10 -14t8 -12v-6v-4l-138 -136q-18 8 -18 26v4zM102 266l138 136q4 -2 11 -16t7 -18q0 -2 -10 -16t-16 -20q-4 -4 -17 -16t-26 -25t-26 -25t-17 -18q-2 -2 -12 -9t-14 -9h-4h-4q-2 2 -5 12t-5 14v6v4zM216 488 q10 -2 10 -13v-15q0 -2 -1 -4t-1 -4q-2 -4 -2 -6l-134 -136l-12 40zM978 556l2 2q10 0 13 -11t3 -17q0 -2 -1 -2t-1 -2v-4l-128 -128q0 -2 -2 -2h-4l-2 2q-6 4 -13 14t-5 12zM198 592q10 -4 10 -14v-14v-16l-138 -138v54zM968 436q2 -4 -5 -11t-13 -5q-4 0 7 10t11 6z M796 496l138 136q12 -6 15 -10t3 -12q0 -20 -10 -28l-110 -110q-4 -4 -10 -8t-8 0q-2 0 -8 10t-10 14v4v4zM198 702v-52l-128 -128v52zM866 676l24 -8q8 -4 8 -10l-136 -136l-24 8q-8 4 -8 10zM788 686q4 0 10 -1t8 -1l-130 -128q4 18 14 41t25 43t33 33t40 13zM198 822 q0 -2 1 -12t1 -14v-23t-10 -21l-114 -110h-6v52zM216 942v-10q-4 -10 -6 -24q-2 -8 -2 -18l-120 -120q0 4 -2 10t-2 8q0 8 1 22t9 20l122 120v-8zM240 1088l-8 -52l-130 -130v6v4q2 4 5 17t5 17q0 4 4 16q2 6 4 10l112 112h8zM258 1172l-104 -102q2 6 8 22t10 22q4 10 13 29 t13 21q4 6 17 20t28 29t29 28t20 19zM1062 1336h52l-136 -138h-12q-10 0 -17 1t-15 7zM994 1336l-128 -130h-52l102 104q10 8 33 17t37 9h8z" />
<glyph unicode="7" horiz-adv-x="1438" d="M600 -36q2 2 11 -1t13 -7q4 0 6 -4t4 -4l-138 -138h-2q-8 0 -17 5t-13 13zM506 -10l6 2q12 0 19 -3t17 -7l-8 -18l-112 -110q-10 -10 -26 -10q-14 0 -34 10zM428 26h8q8 0 18 -2t10 -12v-4l-138 -138l-34 18zM360 76h4h4q4 -2 14 -8t12 -10l-136 -138h-8q-16 0 -28 18z M292 118l26 -26l-138 -136l-8 4l-8 4q-2 2 -8 12q-2 4 -2 6zM336 274q0 -4 -7 -18t-17 -32t-21 -36t-17 -26q-4 -6 -13 -16t-19 -21t-20 -20t-14 -13v10q0 2 6 16t14 30l16 32t14 24q2 6 13 17l23 23t24 23t18 15v-8zM472 530q0 -2 -3 -9t-5 -9q-32 -52 -57 -93t-71 -79 q2 6 8 21t14 32t16 31t12 18q4 6 16 19t26 27l26 26t18 16zM610 786q-24 -50 -54 -98t-74 -82q24 56 53 98t75 82zM762 1052q-4 -8 -15 -26t-23 -39t-23 -39t-15 -24q-4 -4 -12 -13t-18 -19l-19 -19t-13 -11q28 58 57 104t81 86zM720 1128l128 128h20q0 -12 -8 -28t-20 -31 t-24 -29t-20 -22q-4 -4 -11 -12t-13 -14l-16 -16h-12v24h-24zM318 1250l-120 -122q-10 -8 -22 -9t-22 -1q-2 0 -8 2t-8 2l128 128h52zM738 1256h50l-128 -128q-8 -8 -15 -9t-15 -1q-6 0 -12 1t-8 9zM208 1308l14 -34l-146 -146v52zM446 1256l-128 -128h-60l128 128h60z M558 1256l-130 -128h-52l130 128h52zM668 1256l-128 -128h-52l128 128h52zM198 1410q4 -10 7 -16t3 -16v-8l-132 -128h-6v40zM198 1530q0 -2 1 -11t1 -13q0 -20 -2 -27t-18 -25q-10 -12 -27 -29t-34 -33t-29 -28t-14 -12h-6v50zM198 1608v-16l-128 -130v18z" />
<glyph unicode="8" horiz-adv-x="1420" d="M734 -48q12 0 19 -3t17 -7l-128 -128h-50l138 138h4zM884 -58l-122 -122q-8 -8 -18 -7t-20 1h-22l130 128h52zM616 -40h16h15t13 -8q0 -4 -4 -10t-6 -8l-110 -114h-52v12zM402 -144l130 128h6q18 0 36 -8l-136 -138h-8q-8 0 -18 2t-10 12v4zM1036 -24q-4 -6 -17 -19 l-28 -28t-29 -28t-20 -19q-2 -2 -22 -12t-30 -14q-4 -2 -20 -8t-22 -10l120 122q2 0 12 3t14 3q4 4 18 6t18 4h2h4zM326 -102l138 138q2 -2 6 -4q8 -4 12 -4q0 -2 3 -5t3 -5v-2v-6l-138 -138q-4 2 -10 6q-12 8 -14 12v6v2zM402 88l26 -26l-136 -138h-6h-2q-4 2 -13 8t-13 10 zM204 2q0 4 2 6q0 2 2 2l128 128h2h6l4 -4q2 -2 2 -4q2 -2 6 -10l4 -8q-2 -2 -7 -11t-9 -13l-22 -22l-34 -34l-34 -34l-22 -22q-2 0 -4 -1t-6 -1q-10 0 -14 9t-4 19zM154 70l138 138q18 -12 18 -28v-8l-130 -128h-4h-4q-4 2 -10 8t-8 10v4v4zM112 146l128 130h6q8 0 10 -10 t2 -18v-8l-138 -136q-4 10 -7 18t-3 18zM76 226l140 134q10 -16 10 -30q0 -2 -1 -4t-1 -4q-2 -2 -2 -4l-128 -128h-4h-2q-4 2 -6 12t-6 14v4v6zM70 336l138 138v-28q0 -20 -1 -27t-17 -25q-6 -6 -23 -22t-35 -33t-34 -33l-22 -22q-8 8 -7 17t1 19v16zM830 400q0 2 2 4 l128 128h10v-25t-10 -25l-120 -122q-10 14 -10 32v8zM208 532l-132 -128v8v8q4 10 6 27t6 17l120 120v-52zM934 616l2 4q2 0 2 -1t2 -1q0 -2 2 -2q2 -6 4 -10q4 -12 4 -14v-6v-2l-136 -138l-18 36zM858 660q4 0 6 2q2 0 3 1t3 1t15 -1t13 -11t-8 -18l-102 -102q-2 -2 -12 -8 t-14 -10h-4q-20 0 -28 18zM814 678l-128 -128h-52l128 128q4 4 23 7t29 3v-10zM222 668l-94 -92q18 22 44 55t50 55v-18zM344 952h4h2q4 -2 10 -9t8 -9v-4v-4l-136 -138h-4h-6q-4 6 -11 16t-3 10zM172 902l128 128h4q10 0 12 -10t2 -16q0 -12 -4 -18t-14 -16q-6 -6 -21 -23 t-33 -35t-34 -33t-22 -21q-18 10 -18 36v8zM146 986l128 128q10 -2 10 -12v-16v-14l-130 -130q-8 2 -8 14v16v14zM266 1216v-40l-128 -128h-12q0 10 1 25t11 25l120 118h8zM924 1190q0 -2 1 -10t1 -10q0 -36 -34 -68t-70 -32q-2 0 -8 1t-8 1zM762 1140l136 138q8 -8 9 -16 t1 -16v-12l-128 -128h-4q-10 0 -12 10t-2 16v8zM266 1316v-20t-8 -18l-120 -120l-2 6q0 16 8 37t20 33l102 102v-20zM832 1328h8q16 0 26 -18l-136 -134l-2 -2q-2 -2 -4 -2l-4 4q-4 0 -14 6t-12 8zM770 1328l-102 -102v8q0 14 10 30t24 30t31 24t29 10h8z" />
<glyph unicode="9" horiz-adv-x="1472" d="M960 -36h2q8 0 18 -5t14 -13l-128 -128q-2 -2 -6 -2h-10q-4 0 -15 1t-13 9zM1104 -54l-128 -128h-52l128 128h52zM1234 -44l-130 -130q-8 -8 -18 -8h-22h-20l128 128zM1292 -44h26v-10l-120 -120q-6 -6 -15 -8t-19 -2v10zM932 58v-60l-128 -128v58zM932 168v-50 l-128 -128v50zM932 290q10 -4 10 -14v-14v-16l-128 -128h-12q0 10 1 25t11 25zM942 410v-52l-128 -128v52zM942 530v-26v-23t-10 -21l-110 -112h-8v52zM804 504l138 136v-52l-128 -128q-8 10 -9 17t-1 15v12zM694 622h50l-128 -128l-42 -8l-8 8zM460 506q0 2 2 4l2 2 l128 128h10q10 0 16 -1t14 -7l-8 -18l-110 -110q-6 -6 -18 -10h-4h-4q-4 2 -14 5t-10 5zM856 622l-118 -118q-10 -10 -20 -10h-20h-22l128 128h52zM376 538l128 128h8q20 0 36 -8l-138 -138h-2h-6q-4 2 -14 5t-12 5v2v6zM428 710h2q20 0 34 -18l-138 -136l-4 -4q-10 0 -18 7 t-12 11zM368 760q18 -10 18 -26q0 -2 -1 -2t-1 -2v-2l-128 -132h-8q-14 0 -26 18zM172 684l128 128h2q2 0 3 1t3 1q10 0 19 -6t9 -16q0 -2 -2 -4l-2 -2l-128 -128q-2 -6 -8 -8q-4 -2 -6 -2q-22 6 -22 28zM256 880h6h4q4 -6 11 -15t5 -9l-136 -140h-6h-4q0 4 -4 6t-4 6 q-2 2 -6 8t-2 6zM84 830l132 128h2h4q0 -4 4 -13t4 -13v-6v-4l-136 -136q-8 8 -9 15t-1 15v14zM58 914l140 138q4 -10 7 -18t3 -18q0 -2 -1 -2t-1 -2q-2 -2 -2 -4l-128 -128l-4 -2l-2 2q-4 0 -6 10t-6 16v6v2zM180 1154q4 -10 7 -18t3 -18q0 -8 -3 -12t-7 -12l-104 -104 q-2 -2 -11 -8t-13 -6v50zM890 1170v-8q0 -14 -4 -31t-14 -27q-8 -10 -27 -30t-23 -22q-10 -8 -29 -14t-23 -4l-8 8zM190 1252v-20t-10 -18l-122 -120v12q0 12 3 27t9 21l120 120v-22zM872 1264l2 2q2 0 2 1t2 1l2 -4q4 0 6 -10t4 -14v-6v-2l-138 -138l-14 34zM822 1334h4 q10 0 16 -8t6 -18v-8l-22 -22l-34 -34t-33 -34t-21 -22q-4 -4 -16 -12q-6 -4 -10 -6q-6 2 -16 12t-12 14zM762 1334l-120 -120q-2 0 -8 -4t-10 -4q-2 -2 -6 -2h-4q0 20 14 43t34 43t44 32t44 12h12z" />
<glyph unicode=":" horiz-adv-x="738" d="M420 344v-10l-118 -120q-10 -8 -19 -8h-19h-24l138 138h42zM164 250l128 128h6q10 0 20 -2t10 -12v-4l-140 -136q0 -4 -7 0t-11 8l-4 4l-2 2v6v6zM498 344q-4 -6 -17 -19l-26 -26t-26 -25t-17 -18q-4 -4 -17 -13t-17 -11l110 112h10zM104 300l136 136l26 -26l-136 -136 l-8 -2q-20 0 -20 20zM60 378l128 128h6q10 0 11 -9t1 -17q0 -18 -6 -26l-114 -110l-18 -10q-4 10 -6 18t-2 18v8zM188 564l-128 -128v18q0 16 2 28t16 24l110 112v-54zM200 746l128 128h10q10 0 16 -1t14 -7l-136 -138h-2h-6l-24 8l-4 4zM266 924h4h6q2 -2 9 -7t7 -9l2 -4 q0 -2 -2 -4l-136 -138l-26 24zM214 994q12 -6 15 -11t3 -15q0 -8 -1 -14t-7 -12l-128 -128l-18 42zM456 858h13t11 -2q-2 -6 -14 -18t-18 -16q-4 -2 -14 -2h-14h-13t-13 2q2 6 16 19t20 15q0 2 10 2h16zM200 1086v-50l-132 -128v50z" />
<glyph unicode=";" horiz-adv-x="712" d="M110 -590l130 130q4 -2 14 -12t12 -14q0 -2 -7 -12t-11 -16l-16 -16t-26 -25t-26 -25l-18 -18q-4 -4 -17 -13t-17 -13h-6q-10 0 -11 8t-1 16v10zM358 -470q-4 -4 -16 -17t-25 -26t-26 -25t-17 -16q-2 -4 -12 -10t-14 -8l96 94zM282 -310v-6q0 -2 -3 -12t-5 -14 q-4 -10 -14 -29t-12 -21q-4 -6 -18 -19t-29 -28l-28 -28l-19 -19v4v4q4 14 9 37t9 23l110 112v-4zM326 -148v-4q-4 -8 -6 -24t-2 -20q-4 -2 -6 -9t-4 -7l-110 -112v20q0 12 -1 21t7 19l122 120v-4zM282 -126l-128 -128h-52l128 128h52zM190 -58q2 0 5 -14t3 -22q0 -2 -3 -8 t-5 -6l-114 -114q-2 -2 -11 -8t-13 -6v20q0 10 -1 20t7 18l122 120h10zM190 62v-22v-20t-10 -18l-128 -128v50zM190 130l-138 -136v12q0 8 1 15t5 17l122 116zM266 370h2h6q2 -2 9 -8t9 -10v-2v-6l-138 -138l-26 26zM374 316l-56 -58h-52l66 68zM394 268q28 44 82 44h12 q-4 -6 -20 -23t-22 -21q-4 -2 -10 -6t-8 -4q-4 0 -17 4t-17 6zM74 298q0 2 2 2l140 140q16 -18 16 -36l-2 -8q-6 -6 -21 -22t-33 -34t-34 -33t-22 -21q-4 -4 -13 -11t-13 -7q-10 0 -15 8t-5 18v4zM190 524q0 -4 4 -17t4 -17v-4v-6l-140 -136v52zM190 592q-6 -6 -19 -21 t-28 -30t-29 -27t-20 -16t9 13t36 37t38 35t13 9z" />
<glyph unicode="&#x3c;" horiz-adv-x="1234" d="M1054 264h4h4q4 0 14 -4t12 -4v-6v-2l-136 -138l-36 18zM960 290h6q4 0 5 1t5 1h14t14 -10l-138 -138q-4 0 -10 2q-12 4 -16 8q-8 0 -8 8zM872 314q2 0 6 2q4 0 6 1t4 1h15t13 -10l-128 -128h-44v6zM780 340l6 4q12 0 19 -4t17 -8l-8 -18l-110 -110q-2 -2 -9 -4t-9 -6h-6 h-4q-4 4 -17 6t-17 4zM694 366h2q2 0 3 1t3 1q10 0 18 -3t18 -7l-138 -138h-6q-22 0 -36 10zM600 392h6q2 0 4 1t4 1h15t13 -10l-136 -136q-2 -2 -11 2t-13 6q-4 0 -6 4t-4 4zM522 428h8q8 0 18 -3t10 -11v-4l-128 -128h-8q-18 0 -36 8zM430 454h12q4 0 17 -1t13 -11 q0 -2 -3 -7t-5 -7l-114 -114h-18h-16t-16 12zM350 486h6q16 0 30 -18l-128 -128h-14h-15t-13 10zM266 522l42 -10l-144 -146l-36 18zM52 418l138 138q0 2 11 -5t15 -13v-2v-6l-128 -128q-2 -2 -6 -2h-8q-6 0 -14 2t-8 12v4zM172 658v-58q0 -2 -12 -14t-28 -29t-33 -34 t-29 -27q-4 -4 -13 -11t-13 -7v52zM172 742v-26l-128 -128v26zM986 872q-22 -24 -47 -48t-55 -38q22 26 46 50t56 36z" />
<glyph unicode="=" horiz-adv-x="1018" d="M402 400l-136 -138h-50l134 138h52zM514 400v-10l-130 -128h-52l140 138h42zM248 408h44v-8l-130 -132h-14q-6 0 -16 1t-12 11zM632 400v-10l-110 -110q-10 -10 -21 -11t-23 -1h-24l128 132h50zM752 400l-128 -132h-50l128 132h50zM866 400l-128 -132h-54l130 132h52z M204 484q4 -4 6 -17t6 -17v-10v-8q-6 -6 -23 -22t-35 -34l-34 -34l-22 -22q-2 -2 -12 -9t-14 -7v52zM204 594v-52l-128 -128v52zM154 664l50 50v-50l-128 -128v4v2q0 4 4 10t4 8q6 6 18 19t25 28t26 29t19 20zM76 698l140 136l24 -26l-138 -134l-2 -2q0 -2 -2 -2l-4 4 q-4 0 -9 6t-9 8v6v4zM204 948q0 -4 2 -14t2 -12q0 -22 -3 -30t-19 -24q-6 -6 -21 -22t-33 -33t-34 -33l-22 -22v58zM658 794h13t13 -2q-8 -20 -30 -23t-38 -3h-10q4 6 13 16t13 10q2 2 12 2h14zM428 794h13t13 -2q-10 -12 -22 -15t-24 -3q-4 0 -12 1t-12 1q4 16 18 17t26 1z M568 796q0 -10 -8 -16t-19 -8t-21 -2h-16q0 12 7 18t17 8t21 1t19 -1zM770 794h14t12 -2q-4 -16 -18 -17t-26 -1h-11t-13 2q4 16 18 17t24 1zM872 794q2 0 3 -1t3 -1h2q-6 -18 -24 -18l-8 2q6 10 10 14t14 4zM308 802q4 -4 13 -6t11 -4q0 -8 -6 -8q-4 0 -23 -2t-23 -2 q0 10 7 16t17 6h4zM204 1058v-52l-128 -128v52z" />
<glyph unicode="&#x3e;" horiz-adv-x="1242" d="M428 256q-4 -6 -16 -19t-25 -27t-25 -26t-18 -16q-2 0 -12 -6t-22 -12t-25 -13t-19 -11q-2 0 -12 -4t-14 -4l128 128q0 2 20 5t32 5h4h4zM172 162l138 134q2 -2 9 -11t7 -13l2 -4q0 -2 -2 -4l-136 -138h-6q-10 0 -11 10t-1 18v8zM292 400q6 -10 7 -17t1 -17q0 -8 -1 -14 t-7 -12l-128 -128v60zM694 400q-42 -46 -90 -84t-108 -60l15 15l23 23l23 23t17 15t23 14t37 21t37 20t23 13zM146 366l128 128q10 -2 10 -13v-15v-16l-130 -128q-8 4 -8 14v14v16zM994 582q0 -2 -9 -10t-21 -19t-26 -23t-22 -18q-4 -4 -23 -17t-27 -19q-4 -2 -15 -8 t-23 -12t-23 -12t-17 -8q42 48 97 83t109 69v-6zM386 724l128 132h8q18 0 36 -12l-138 -134q-2 -2 -4 -2q-2 -2 -4 -2q-6 0 -17 3t-11 13zM300 750l128 130h12q8 0 15 -1t17 -9l-136 -136h-6h-4q-4 0 -14 4t-12 4v6v2zM336 906h12q8 0 19 -1t11 -11q0 -2 -2 -4v-2l-110 -110 q-8 -8 -16 -9t-18 -1h-13t-11 10zM616 830q4 -4 10 -6t8 -4l-86 -52l62 62h2h4zM128 812l138 136q0 2 11 -5t15 -11v-6v-4l-128 -128h-8q-8 0 -18 2t-10 10v6zM84 872q0 6 2 10q0 4 2 6l128 128h6v-44l-128 -128q-10 4 -10 14v14zM208 1118q8 -2 8 -12v-16v-12l-128 -130 h-12v42zM208 1200q0 -8 -1 -15t-9 -15l-110 -110l-18 -8v8q0 18 6 26l132 128v-14z" />
<glyph unicode="?" horiz-adv-x="1370" d="M752 -18l-128 -128h-58l128 128h58zM478 -120l138 138l8 -4q4 -2 8 -6q2 0 5 -4t5 -4v-6v-2l-128 -130h-8q-8 0 -18 2t-10 10v6zM866 0q-6 -4 -18 -17t-25 -27t-26 -26t-19 -18q-2 -2 -12 -7l-14 -7q-6 -4 -25 -14t-25 -12l120 120zM420 -62l136 138l26 -24l-144 -146 q-8 4 -14 13t-6 17zM384 18l138 136q4 -10 7 -18t3 -18q0 -2 -1 -2t-1 -2v-4l-136 -136q-10 18 -10 36v8zM520 256q0 -22 -4 -37t-20 -33q-12 -12 -30 -31t-36 -36t-32 -30l-14 -13h-10q0 16 4 37t16 33l110 110h16zM402 384l128 130h6h4q2 -2 12 -8t14 -10l-138 -138h-8 q-18 0 -18 18v8zM650 486q-6 -4 -26 -20t-24 -20l-19 -19t-15 -17q-4 -2 -14 -20t-12 -22q-6 -10 -11 -10h-15h-18l128 128h26zM514 606q8 -16 8 -36v-4l-128 -130h-10v42zM514 668l-112 -112l-18 -8v12q0 14 4 30t14 26l112 112v-60zM308 1198q18 0 24 -8l-128 -128h-50 l128 128q6 6 13 7t13 1zM454 1190l-128 -128h-52l128 128h52zM66 1082q0 2 2 4l2 2l134 136q4 0 13 -6t13 -12l2 -2q0 -2 -2 -4v-2l-128 -128h-10q-8 0 -17 1t-9 11zM180 1318q0 -2 1 -12t1 -14q0 -18 -2 -26t-18 -24q-6 -6 -21 -23t-33 -35l-34 -34l-22 -22v18q0 10 1 28 t5 24zM872 1318v-50l-128 -128v50zM830 1388h4h6q2 -4 9 -10t7 -8v-2q0 -2 1 -2t1 -2l-2 -2l-136 -138l-26 26zM616 1286q0 2 3 7t5 7q6 6 19 20t27 27t26 25l16 16q10 8 31 17t35 9h10l-10 -18l-110 -110q-8 -10 -15 -11t-15 -1q-4 0 -13 1t-9 11zM222 1466v-2 q-4 -18 -14 -42q-6 -12 -10 -26l-104 -104q2 6 8 18t13 25t13 25t8 18q16 28 40 51t46 43v-6z" />
<glyph unicode="@" horiz-adv-x="2064" d="M1182 -184l-128 -128h-50l128 128h50zM1304 -184l-132 -128h-50l130 128h52zM1036 -166h16h15t13 -8l-130 -130h-14h-14t-14 10zM1438 -166l-110 -114q-10 -10 -28 -13t-32 -3q-4 0 -9 1t-7 1l118 120q8 6 24 7t26 1h18zM942 -140l52 -12l-128 -128q-8 -4 -15 -5t-17 -1 q-8 0 -14 1t-14 5zM858 -116h2h6q4 -2 13 -4t11 -2v-6v-6l-128 -128h-10q-10 0 -17 1t-15 7zM1592 -122l-110 -114q-2 -2 -6 -4q-8 -4 -12 -4q-6 -4 -26 -9t-24 -9h-6h-2l120 122q12 2 22 6t19 6t17 6h6h2zM770 -82h6h4q4 0 14 -4t12 -4v-4v-4l-138 -138l-34 18zM702 -38h4 h6q4 -2 13 -8t13 -10l-138 -136q-2 -2 -4 -2h-4q-16 0 -26 20zM1738 -72q-34 -36 -71 -68t-83 -52q6 6 19 20t28 29t29 28t20 17q2 4 21 13t29 13h6h2zM624 6h6h4q6 -2 12 -6q4 -4 9 -7t5 -5q0 -4 -4 -10t-6 -8l-110 -110q-2 0 -8 -4t-10 -4h-2q-10 0 -19 5t-13 9zM566 56h4 h4q4 -2 9 -9t9 -9v-4v-4l-136 -138l-28 26zM368 -20l138 136l26 -26l-138 -136l-4 -2l-4 2q-4 0 -9 6t-9 10v4v6zM446 166l4 2l6 -2q2 0 9 -6t7 -8l2 -6l-2 -6l-136 -134l-26 24zM256 98l2 2l136 136q18 -10 18 -32v-2q-2 -2 -5 -9t-5 -9q-4 -6 -18 -20l-31 -31t-32 -31 t-21 -20q-4 -2 -13 -9t-13 -9q-6 4 -12 13t-6 17v4zM350 304q18 -14 18 -30v-6l-136 -134l-16 32zM1414 268l-128 -128h-60l128 128h60zM1526 268l-106 -102q-10 -10 -27 -12t-31 -2h-8l110 110q6 4 22 5t26 1h14zM1292 320l6 2l6 -2q2 0 8 -6t6 -10l2 -4l-2 -6l-136 -136 l-24 26zM1216 312l-102 -102q-2 -2 -15 -8t-19 -10q-6 -2 -26 -9t-24 -7l116 118l10 5t8 5q4 0 20 3t24 5h2h6zM1036 294h52l-102 -102h-10q-10 0 -18 1t-16 9zM180 254l138 136l18 -34l-138 -138h-6q-8 0 -10 10t-2 18v8zM934 312h6q2 0 4 1t4 1q8 0 19 -2t11 -12v-6 q-8 -6 -31 -29t-31 -29q-10 -10 -26 -10q-10 0 -15 3t-9 15zM1602 280q-10 -14 -26 -18q4 4 11 9t15 9zM806 294l52 54q4 0 10 -2l8 -4l8 -4q0 -2 2 -4l4 -4l-58 -62h-6h-4q-2 4 -9 10t-7 8q-2 0 -2 2v4zM146 330l138 136l16 -34l-136 -138h-6h-4q0 2 -3 12t-5 14v6v4z M744 356q4 4 18 17t18 17h4h4q4 0 14 -4t12 -4v-6v-2l-44 -44h-2h-6l-18 18v2v6zM112 414l136 138q10 -2 10 -11v-13q0 -10 -1 -19t-9 -17l-102 -102q-2 -4 -9 -6t-9 -2t-10 12q-4 6 -6 14l-2 4zM694 414q4 6 17 19t19 17h2h6l18 -18v-4v-4l-17 -17t-19 -17h-4h-4 q-4 2 -10 8t-8 10v4v2zM686 528h2h6q0 -4 4 -13t4 -13v-6q0 -14 -13 -27t-21 -19q-2 4 -9 9t-9 7t-2 5t-2 7t-4 6zM222 638q8 -8 9 -15t1 -17v-10l-134 -136l-10 42zM610 560l40 44q2 0 5 -4t5 -4q4 -6 6 -16t2 -12l-44 -40q-6 4 -12 12t-6 18zM208 740q4 -10 6 -17t2 -19 v-6l-140 -138v52zM1720 638q-2 -8 -10 -21t-18 -13h-4zM582 652q0 2 2 4l40 42h22q0 -4 -4 -20t-8 -22t-20 -23t-22 -21q-10 20 -10 36v4zM1286 776v-18q0 -14 -1 -22t-7 -22q-6 -4 -18 -16l-26 -26l-26 -26t-18 -16q-2 -2 -8 -5t-10 -3q0 -2 -4 -2h-4v36zM1764 792 q0 -4 -3 -21t-5 -21t-2 -8t-2 -8q-2 -6 -4 -10l-78 -76h-8v40zM208 852v-50l-138 -138v50zM566 750l58 58v-50l-50 -52q-8 18 -8 36v8zM1146 758l132 128h8v-42l-128 -130q-12 20 -12 36v8zM1774 912v-42l-104 -104v10v8q2 10 4 25t6 17l84 86h10zM1226 948h2h6q2 -4 9 -10 t9 -8v-6v-2l-138 -138l-26 24zM208 948q0 -22 -1 -29t-17 -23l-26 -26l-31 -31l-26 -26t-13 -11l-18 -10v10v6q4 10 6 27t6 17l120 120v-24zM634 936v-2q0 -34 -16 -71t-52 -47v54zM1172 954l-128 -128h-14q2 24 13 47t29 41t41 29t47 11h12zM1764 972l-84 -86v12q0 12 1 28 t7 22l76 76v-52zM240 1118q-6 -16 -9 -40t-15 -38l-114 -110q2 4 9 21t9 21q4 10 14 30t12 22q4 6 18 20l29 29l28 28t19 17zM1738 1118q8 -10 9 -19t1 -21v-14q-4 -2 -10 -7t-13 -12l-13 -13l-8 -8t-8 -5t-8 -5v22q0 12 -1 21t7 19q6 4 22 21t22 21zM1712 1196q0 -4 4 -13 t4 -13v-6v-4q-2 -4 -15 -17l-17 -17q0 2 -2 12t-2 14q0 12 3 28t21 16h4zM1654 1262q0 6 8 10h4q6 0 14 -10t8 -16q0 -2 -3 -6t-5 -4zM814 1298q0 -2 -7 -5t-11 -5q-6 -2 -26 -9t-26 -7h-2h-4q40 42 83 82t103 54zM1472 1426q2 0 12 -3t16 -5q0 -2 4 -5t4 -5l-138 -136 l-2 -2q-10 0 -19 6t-13 12zM1618 1338l26 -24q-4 -6 -20 -23t-22 -19q-6 -4 -22 -7t-20 -3v18zM1548 1384q10 0 19 -3t9 -13v-12l-68 -68q-10 -8 -20 -8h-24h-26l104 102h2q2 0 2 1t2 1zM1370 1444h14h15t15 -10l-128 -128h-44v8zM960 1324q-8 -8 -21 -9t-23 -1h-18l120 120 l10 5t8 5q6 0 26 4t26 4zM1268 1452h50l-136 -138h-12q-8 0 -15 1t-15 9zM1198 1452v-8l-110 -112q-10 -10 -21 -11t-23 -1q-2 0 -12 2t-14 2l128 128h52z" />
<glyph unicode="A" d="M446 -66l-136 -138h-52l128 128q8 10 18 10h20h22zM300 -52h4h6q4 0 13 -3t13 -3v-6v-2l-128 -132h-14q-8 0 -15 1t-15 11zM1508 -52l-138 -134h-52l138 134h52zM-8 -148q0 8 1 15t7 13l120 120q18 -10 18 -30v-4l-138 -138q-8 4 -8 11v13zM248 -40l-128 -132h-58 l128 132h58zM1566 -52q16 4 35 11t35 7v-6q0 -2 -12 -14t-28 -29t-33 -34l-29 -29q-6 -4 -19 -13t-15 -13h-26h-26zM1748 -40l-130 -132h-52l138 138zM1260 -128l136 138l18 -36l-136 -136q-18 10 -18 32v2zM1362 88q18 -14 18 -32v-4l-138 -136q-2 0 -4 2q-4 4 -4 6 q-2 4 -6 14t-2 10zM1328 172q6 -8 7 -15t1 -17q0 -8 -1 -14t-7 -14q-6 -6 -20 -21t-30 -31t-31 -30t-21 -20q-4 -4 -13 -10t-13 -8v52zM190 184v-2q-4 -6 -9 -26t-9 -28l-4 -8l-4 -8l-102 -102v2v6q0 4 2 13t6 13q4 10 13 29t11 21q6 6 19 20t28 29t29 28t20 19v-6z M1164 120l140 138l14 -36l-136 -134q-18 8 -18 30v2zM968 274h50v-8l-11 -12t-28 -29l-34 -34t-29 -27q-4 -6 -17 -16t-15 -10q-2 -2 -6 -2h-8q-10 0 -16 1t-14 9zM1132 266l-128 -128h-52l128 128h52zM1226 274q2 0 8 -3t8 -5l-128 -128h-52l128 128q2 0 12 4t14 4h6h4z M768 276q2 0 10 -1t10 -1l-128 -128h-36q4 4 10 18t8 18q4 4 16 15t25 25t27 26t20 18q8 8 17 9t21 1zM916 284l-128 -130q-8 -8 -18 -8h-20h-20l136 138h50zM274 386q-2 -6 -9 -21t-15 -32t-16 -31t-12 -18q-2 -6 -12 -18t-22 -24t-24 -22t-18 -12v2v6q6 16 16 41t10 27z M350 578q0 -22 -17 -56t-33 -50q-8 -10 -19 -22t-21 -22q-12 -12 -28 -26h-10q0 22 16 51t28 43q6 6 18 19t25 26l25 25t16 18v-6zM430 768q0 -14 -8 -39t-18 -35l-104 -102v4v4q2 4 8 24t10 26q0 4 4 12q2 4 4 6l104 102v-2zM1080 848q2 -4 9 -17t7 -17q0 -2 -3 -8l-5 -10 q-4 -4 -13 -14t-20 -20t-21 -20t-16 -12q-10 -10 -19 -10h-21h-26zM1114 762q18 -8 18 -30q0 -14 -14 -13t-22 1h-26zM898 776l2 2l2 2l134 136q4 -2 10 -12t8 -14v-4v-2l-138 -140q-6 6 -12 15t-6 17zM472 884l-104 -104v4v4q4 6 10 26t8 26q4 4 6 10t2 8l102 102z M1018 968l-84 -84q10 34 26 64t44 56zM558 1126v-4q-2 -4 -9 -24t-9 -28l-4 -8l-4 -8l-102 -102v2v6q0 4 6 21t10 23t11 18t7 14q4 6 17 20t28 29t29 28t20 19v-6zM634 1328q-14 -64 -43 -100t-77 -82q-2 0 -8 -3t-10 -3q6 18 13 44t23 42zM694 1500v-4v-6q0 -4 -7 -21 t-9 -23q-4 -6 -11 -18t-7 -14q-4 -6 -17 -20t-28 -29t-29 -28t-20 -19l26 78z" />
<glyph unicode="B" horiz-adv-x="1388" d="M94 -172l136 138q8 -4 13 -13t5 -17v-2l-138 -138q-6 4 -12 13t-6 17zM300 -76q10 10 25 14t31 4h12q-2 -4 -8 -14t-10 -12q-4 -6 -16 -18t-25 -26t-25 -26l-18 -18q-6 -4 -19 -13t-17 -13h-10q-10 0 -17 1t-17 11zM488 -58l-130 -128q-8 -10 -17 -11t-21 -1h-20l136 140 h52zM600 -58l-128 -128h-52l128 128h52zM728 -52l-128 -128q-10 -8 -20 -9t-20 -1q-2 0 -10 2t-10 2l128 128q8 0 16 2q16 4 26 4h10h8zM840 -52v-6l-112 -114q-10 -8 -22 -8h-22h-26l130 128h52zM976 -34l-120 -120q-10 -2 -18 -4q-20 -4 -24 -4h-10h-8l120 122q6 4 20 5 t22 1h18zM216 18l-140 -138q0 6 4 27t4 27q4 2 6 8t4 6l110 114zM216 182v-54l-132 -128v52zM216 300q0 -4 3 -17t3 -17v-4v-4q-2 -6 -12 -19t-12 -17q-6 -4 -18 -17t-26 -26t-27 -25t-17 -16q-2 -4 -12 -10t-14 -8v52zM222 420v-18q0 -8 -1 -22t-5 -20l-132 -128v52z M226 532q0 -10 -3 -28t-7 -22l-132 -132v10v8q4 10 6 26t4 18l122 120h10zM898 522q18 -8 18 -28v-6q-2 -2 -5 -8t-5 -8l-126 -126l-18 40zM710 446l130 128h2q2 0 3 1t3 1q14 0 24 -18l-134 -138h-6h-4q-4 2 -10 8t-8 10v4v4zM648 492q0 4 1 8t1 6l102 104h16h15t13 -10 l-138 -136q-8 2 -9 13t-1 15zM222 650v-50l-128 -128v50zM632 588q0 28 24 36t46 8v-16l-60 -58q-8 8 -9 14t-1 16zM222 770q0 -2 2 -12t2 -14t-2 -13t-2 -11q0 -4 -10 -16t-14 -18l-19 -19t-27 -26t-26 -25l-16 -16q-2 0 -7 -4t-9 -4v50zM222 884v-52l-128 -128v52z M222 1004v-52l-128 -130v50zM222 1114v-52l-128 -128v52zM650 1080l128 128l26 -26l-136 -138h-4q-10 0 -12 9t-2 15v12zM222 1234q0 -2 2 -12t2 -14t-1 -8t-1 -8q-2 -6 -2 -10q0 -2 -10 -16t-14 -20q-6 -4 -19 -17t-27 -26t-26 -25l-16 -16q-2 -2 -7 -5t-9 -3v52zM840 1146 q2 0 4 -2l4 -4v-6q0 -12 -21 -26t-31 -20q-6 -4 -26 -14t-26 -12l86 84q2 0 2 2l2 2zM694 1242h2q2 0 3 1t3 1q8 0 18 -3t10 -15q0 -2 -1 -5t-1 -5q-4 -4 -13 -14t-20 -21t-22 -21t-15 -14q-2 0 -7 -3t-9 -3v50zM222 1344v-52l-128 -128v52zM642 1252l-10 -10v10h10z M222 1464v-50l-128 -128v50zM222 1576v-22q0 -10 1 -19t-7 -19l-122 -120h-10v42z" />
<glyph unicode="C" horiz-adv-x="1662" d="M814 -52h8q14 0 36 -6l-138 -140l-44 8zM978 -58l-138 -140h-52l136 140h54zM1080 -70q-2 -2 -5 -8l-5 -10l-84 -84q-6 -6 -20 -16t-16 -10q-4 -2 -10 -2h-16q-2 0 -12 1t-14 1l132 128h50zM1208 -58l-128 -132h-50l128 132h50zM1328 -52l-120 -120q-10 -8 -19 -9t-19 -1 q-4 0 -12 1t-12 1l122 122q10 8 19 7t19 -1h22zM600 -154l130 128h10q10 0 16 -1t14 -7l-136 -138h-6q-10 0 -19 2t-9 12v4zM1482 -8q-30 -36 -82 -78t-96 -60l110 112zM650 18l42 -20l-126 -126q-2 -2 -8 -5l-10 -5h-2q-22 0 -32 18zM574 52h8q16 0 28 -18l-138 -136 l-34 14zM506 102h4h4q4 -2 10 -8t8 -10v-2v-6l-138 -134l-26 24zM456 162q18 -10 18 -26q0 -2 -1 -2t-1 -2v-4l-136 -136l-26 26zM258 84l136 138q12 -4 15 -12t3 -18v-12l-128 -128q-4 2 -13 11l-13 13q-2 0 -2 2v4zM344 282q16 -8 16 -26v-8l-128 -128l-4 -2l-6 2l-4 4 q-2 2 -2 4q-4 4 -8 10t0 8zM172 230l128 128l4 2q10 0 12 -11t2 -17v-6l-138 -136q-8 16 -8 36v4zM146 318l136 136l10 -44l-138 -136q-6 8 -7 15t-1 15v14zM120 410l128 130h6h4q0 -2 3 -12t5 -14v-4v-6l-4 -8l-4 -8l-112 -112l-18 -8q-8 18 -8 36v6zM102 504l130 128h8 v-40l-128 -128q-8 8 -9 14t-1 16v10zM216 738q2 -4 4 -18t2 -18v-6v-2l-134 -138v50zM208 840v-52l-132 -130v54zM208 932q0 -20 -1 -27t-17 -25l-102 -102l-18 -8v18q0 8 1 22t5 20l132 130v-28zM222 1088q0 -6 -2 -23t-4 -21t-6 -16q-2 -6 -2 -10l-114 -112v10q0 12 4 31 t14 29zM274 1250q0 -4 -3 -13t-5 -13q-4 -8 -10 -25t-8 -19l-94 -92q28 46 54 87t66 75zM942 1292l-120 -120q-12 0 -20 -2q-10 -2 -18 -3t-14 -3h-2h-6l96 96q14 10 35 21t41 11h8zM1252 1310h12h16t12 -10l-134 -136l-42 12zM1080 1318q-2 -2 -5 -8l-5 -10l-16 -16 t-25 -26t-26 -26t-17 -16q-28 -28 -64 -28q-4 0 -12 1t-12 1l120 120q6 6 22 7t28 1h12zM1170 1328h16t12 -10l-128 -128h-52l140 136h6q2 0 3 1t3 1z" />
<glyph unicode="D" horiz-adv-x="1694" d="M92 -176q0 2 2 4l128 132l26 -26l-138 -138h-2q-10 0 -13 7t-3 15v6zM318 -66q4 0 16 -4t16 -6l-128 -128h-50l128 128q2 2 8 6t10 4zM472 -76l-122 -122q-8 -8 -18 -7t-20 1h-20l128 128q4 4 23 7t29 3v-10zM592 -66q-4 -4 -6 -10t-4 -8q-4 -6 -16 -18t-26 -25t-26 -26 t-18 -19q-6 -4 -18 -13t-14 -13h-28h-26l130 132h52zM778 -58h52l-136 -140h-44v12zM720 -58l-128 -128h-52l128 128h52zM950 -58l-128 -128h-52l120 120q6 6 20 7t22 1h18zM1078 -40q0 -4 -3 -10t-5 -8q-4 -6 -16 -18l-25 -25l-26 -26t-17 -19q-20 -16 -37 -25t-43 -9h-16 l128 128l20 4q8 2 17 4t15 4h6h2zM1154 -34q22 4 42 9t38 17l-14 -14t-21 -20t-21 -20l-14 -14q-2 -4 -11 -9t-13 -9q-6 -4 -21 -12t-31 -18t-31 -19t-21 -11zM216 70v-60l-132 -130v62zM204 172v-52l-128 -128v52zM204 292v-52l-128 -128v52zM204 350l-128 -128v24v19t8 19 l120 118v-52zM222 520q0 -10 -1 -25t-5 -23l-114 -112h-8q0 6 3 26t5 26l4 8l4 8l112 112v-20zM1252 634q0 -24 -12 -47t-29 -44t-36 -39t-35 -32q-4 0 -10 -4t-8 -4v4v4q0 10 4 30q2 8 2 20l122 120zM240 616l-130 -128v14q0 10 2 25t8 21l128 128zM1268 770v-50l-128 -128 l-12 42zM240 788v-50l-130 -128v50zM1112 734q0 2 2 4l136 134l10 -40l-138 -138q-10 12 -10 34v6zM240 898v-50l-130 -128v50zM1216 952h2h6q0 -2 4 -12t6 -16v-4v-4l-138 -136l-18 34zM244 1012q0 -10 -1 -30t-13 -30l-110 -112l-18 -8v20v20t8 18l120 122h14zM1172 1030 h6q8 0 14 -12t6 -20v-4l-128 -128h-6h-2q-4 2 -13 11l-13 13zM986 952l136 136h4h2q14 -4 18 -18v-2v-6l-134 -138h-6h-6q-2 2 -8 9t-6 9q-2 0 -2 2v4zM230 1122v-52l-128 -128v52zM1044 1132q4 -2 10 -4q12 -4 16 -6q8 0 8 -8l-136 -136l-2 -2h-4q-8 0 -16 6t-14 12z M830 1030l128 128h12q10 0 16 -1t14 -11l-134 -134h-6h-4q-4 2 -14 4t-12 2v6v6zM870 1176q2 0 15 -1t13 -11q0 -2 -2 -8t-6 -10l-112 -110h-58l136 136q2 0 6 2q2 0 4 1t4 1zM796 1172l-128 -128v6v4q2 12 5 31t3 21l68 66h52zM230 1242v-52l-128 -128v52zM230 1354v-50 l-128 -132v54zM230 1474q0 -4 1 -14t1 -14q0 -20 -2 -27t-14 -23q-6 -6 -23 -22t-35 -34t-34 -33t-22 -21v58zM230 1560h10l-10 -26l-120 -120v24z" />
<glyph unicode="E" horiz-adv-x="1352" d="M658 -62l-110 -110q-2 -2 -22 -8t-30 -10h-8h-10l128 128h52zM898 -52l-136 -138h-52l138 138h50zM404 -44q10 0 16 -1t16 -7l-128 -130h-52l138 138h10zM548 -52v-10l-112 -110q-10 -10 -21 -10h-21h-26l128 130h52zM744 -44q4 0 17 -2t17 -6l-128 -130h-50l128 130 q2 4 8 6t8 2zM1012 -52v-10l-114 -110q-10 -10 -21 -10h-21h-26l128 130h54zM162 -156l138 138h4h4q4 -2 9 -8t9 -10v-2v-6l-128 -128q-2 -2 -6 -2h-8q-6 0 -14 3t-8 13v2zM1146 -36l-128 -128l-60 -8l130 128q6 6 21 7t25 1h12zM110 -94l130 128q4 -4 10 -13t6 -13v-2 q0 -2 1 -2t1 -2l-2 -2l-136 -138q-10 2 -10 13v15v16zM240 154h10v-30t-10 -32l-130 -128v62zM240 264v-52l-130 -128v52zM240 332l-130 -128v22v20t10 18l120 120v-52zM248 504v-50l-128 -128v50zM248 624v-24v-23t-8 -21l-112 -114h-8v54zM100 582q0 2 2 6l138 140v-52 l-130 -128q-8 2 -9 12t-1 16v6zM856 710l-22 -22l-34 -34t-34 -33t-22 -21q-18 -22 -46 -22q0 10 1 23t11 23q8 10 23 25l28 28t24 23l11 10h60zM968 720v-10l-128 -128h-52l128 128zM1036 720h52l-130 -132q-6 -4 -25 -7t-27 -3v10zM230 838v-52l-128 -128v52zM738 710 l-28 -26v26h28zM230 950v-52l-128 -128h-8v42zM222 1060v-26q0 -10 1 -21t-7 -19l-114 -114h-8v52zM84 1034l138 138v-50l-128 -128q-10 2 -10 12v16v12zM216 1282v-50l-132 -128v50zM804 1292h52l-128 -130h-44v10zM916 1292q8 10 18 9t20 -1h22l-8 -18l-112 -110 q0 -2 -17 -5t-25 -5h-18v10zM1096 1300l-128 -128q-6 -6 -22 -8t-26 -2h-14l138 138h52zM216 1396v-52l-132 -130v54zM738 1292l-44 -42q0 2 -1 6t-1 6q0 16 5 23t23 7h18zM204 1506h16q0 -24 -3 -38t-19 -32l-31 -31l-37 -37t-31 -30t-15 -12h-8v52zM204 1566l-128 -130v12 q0 18 8 36t18 32q6 6 21 20t31 30t30 31t20 21v-52z" />
<glyph unicode="F" horiz-adv-x="1250" d="M420 -70l-112 -110q0 -2 -7 -4t-9 -6q-4 0 -20 -2t-24 -6h-4h-4l136 140zM274 -44q2 0 4 2q2 0 2 1t2 1q8 0 22 -2t14 -14v-2l-23 -23l-35 -35l-34 -34l-22 -22q-2 -2 -11 -8t-13 -10h-6h-2q-4 4 -18 6t-18 4zM496 -52h52l-128 -128q-10 -10 -26 -11t-26 -1v12zM240 -18 l-138 -136h-10q0 8 3 28t7 24l120 120zM230 146v-52l-128 -128v52zM230 256v-52l-128 -128h-8v44zM216 358q2 -4 4 -20t2 -20t-7 -13t-11 -13q-12 -14 -30 -32l-36 -36l-44 -44h-12q0 8 2 30t10 30zM216 472q8 -4 7 -15t-1 -15v-14l-138 -136v52zM216 592v-52l-132 -130v54z M856 650h50l-128 -128q-10 -10 -26 -10q-12 0 -24 10zM216 702v-52l-132 -128v52zM1018 650v-8l-10 -10t-23 -24t-28 -28t-25 -24q-18 -16 -34 -25t-38 -9h-20l128 128h50zM684 592q0 2 4 7t6 7q6 10 23 26t21 18h10q4 0 7 1t7 1t13 -1t13 -1l-94 -94q-2 4 -6 18t-4 18z M76 676q0 2 3 9t5 9l132 128v-26q0 -12 -1 -23t-11 -21l-110 -110h-10q-2 0 -5 13t-3 21zM216 932v-20q0 -10 -1 -20t-11 -20l-120 -120h-8v44zM216 1044v-44l-140 -134v20v20t8 18l120 120h12zM216 1164v-50l-132 -128h-8v40zM218 1274q0 -8 -1 -28t-13 -30l-110 -112 l-18 -8v20v21t8 17l120 120h14zM916 1242l-128 -128h-50l128 128h50zM684 1122v6v12q2 8 5 24t5 16q4 6 13 17t18 21t17 17t10 7h52zM1052 1260l-120 -120l-66 -18l128 128q4 4 20 7t26 3h12zM216 1396v-22q0 -10 -1 -20t-11 -18l-120 -120v52zM216 1516v-52l-132 -128v52z " />
<glyph unicode="G" horiz-adv-x="1874" d="M1044 -40l-128 -132q-8 -8 -18 -8h-20h-20l136 140h50zM1106 -40h58l-128 -132q-10 -10 -30 -10h-28v10zM1278 -40l-132 -132q-4 -6 -20 -7t-26 -1h-12l138 140h52zM884 -34h50l-138 -138h-10q-10 0 -16 1t-14 9zM1396 -34l-110 -112q-10 -10 -29 -13t-31 -3h-10l120 122 q8 4 21 5t23 1h16zM796 -8h8q18 0 36 -8l-138 -138h-6q-12 0 -19 2t-17 6zM582 -104l2 2l128 128h2q2 0 3 1t3 1q22 0 36 -18l-23 -23l-35 -35t-34 -33t-22 -21q-10 -10 -16 -14t-16 -4q-8 0 -18 2t-10 10v4zM634 62h4h4q4 -4 14 -6t12 -4v-4v-4l-128 -128q-2 -2 -6 -2 q-4 -2 -10 -2q-4 0 -14 1t-14 11zM566 112h2q22 0 32 -18l-136 -134l-4 -4q-10 0 -18 6t-14 12zM376 36l138 136l26 -26l-138 -136q-2 -2 -4 -2h-4q-18 0 -18 20v8zM318 94l138 138q4 -2 13 -11l13 -13q0 -4 -7 -14t-11 -14q-6 -6 -23 -22t-35 -34t-34 -33t-22 -21h-6 q-26 0 -26 20v4zM394 284h6h2q4 -2 10 -9t8 -9v-4v-4l-136 -138l-26 26zM208 216l136 134q8 -4 12 -12t4 -18v-2l-138 -138q-4 4 -11 13t-7 19zM172 292l138 136l16 -34l-136 -136l-6 -2q-10 0 -11 11t-1 17v8zM128 368l138 138q8 -4 13 -17t5 -17q-2 -4 -8 -13t-10 -13 l-22 -22l-34 -34t-34 -33t-22 -21l-2 -4q-10 0 -17 13t-7 21v2zM1406 488q-6 -12 -16 -29t-24 -34t-30 -28t-30 -11h-2zM1216 532h52l-8 -18q-2 0 -13 -12t-26 -27t-31 -30t-26 -25q-16 -16 -35 -22t-41 -6v10zM1122 540q18 0 36 -8l-128 -130h-52l136 138h8zM102 454 l130 130h4h4q0 -2 4 -12t4 -14v-6v-4l-136 -136q-8 8 -9 14t-1 16v12zM1406 548l-128 -128q-10 -8 -19 -9t-19 -1q-4 0 -13 1t-11 1l128 128q2 0 22 4t30 4h4h6zM1080 624q6 -8 7 -14t1 -16v-10l-138 -138v50zM76 548l136 136l10 -42l-134 -136q-10 10 -11 16t-1 16v10z M1080 686l-130 -128v8v8q2 10 5 26t5 16l120 122v-52zM198 780q2 -4 4 -18t6 -18v-4v-2l-138 -138v50zM1096 858q0 -2 1 -9t1 -9q0 -16 -3 -23t-15 -21l-22 -22t-34 -33t-34 -33l-22 -22v44zM198 898v-58l-128 -128v58zM208 1016v-4q-4 -12 -6 -32t-4 -20l-122 -120v18 q0 8 1 21t11 19l120 120v-2zM248 1178v-6q0 -4 -6 -23t-10 -27q-2 -4 -4 -10t-6 -6l-102 -102v2v6q2 4 8 21t10 21q2 6 9 19t7 15q4 6 17 20t28 29t29 28t20 17v-4zM1180 1186q0 2 2 4l128 128h4q2 0 2 1t2 1q16 0 36 -10l-138 -138h-2h-6q-6 4 -16 6t-10 4zM318 1344 q-4 -4 -10 -20t-8 -20q0 -4 -4 -12q-2 -4 -4 -6l-94 -96q14 42 50 84t70 70zM908 1208q-2 -2 -8 -5l-10 -5q-2 0 -18 -3t-24 -5h-4h-4l110 114q14 10 39 15t41 9zM1216 1336h44v-8l-128 -130h-44v10zM1134 1346q4 0 12 -1t12 -1l-12 -16l-110 -112q-10 -10 -21 -10h-21 q-4 0 -13 1t-13 1l128 128q10 8 19 9t19 1z" />
<glyph unicode="H" horiz-adv-x="1626" d="M1250 -66v-10l-122 -122q-4 -4 -18 -5t-22 -1h-18l136 138h44zM344 -58l-140 -140h-50l138 140h52zM1318 -66q8 6 21 7t23 1h16q0 -4 -7 -14t-9 -12q-18 -20 -35 -40t-37 -37t-42 -27t-50 -10v12zM464 -58l-114 -114q-2 0 -8 -4t-10 -4q-4 -2 -27 -4t-31 -2l128 128 q8 0 16 2q20 4 28 4q2 0 8 2t10 2v-10zM994 -162l134 136l26 -26l-136 -134q0 -4 -6 -4q-18 0 -18 24v4zM1480 -52l-118 -120q-6 -6 -13 -7t-13 -1h-10l128 128h26zM592 -40l-128 -132h-54l130 132h52zM256 -26l-136 -136h-10q0 8 1 26t9 26l120 120zM1122 76v-50l-128 -128 v50zM248 128v-52l-128 -128v52zM986 62l136 136q0 -4 1 -13t1 -13t-1 -8t-1 -8v-10q0 -2 -10 -16t-16 -18l-21 -21l-31 -31l-30 -30l-20 -20q-4 4 -6 21t-2 21v4v6zM248 248v-26v-21t-8 -19l-112 -112h-8v50zM1114 300v-52l-128 -128h-10v44zM240 350v-50l-130 -128v50z M1114 420v-52l-128 -128v52zM230 464v-52l-128 -128v52zM1114 532v-50l-128 -132h-10v44zM84 428l138 138v-52l-128 -128q-4 10 -7 18t-3 18v6zM1078 616h28q0 -10 -1 -22t-9 -20l-102 -102q-4 0 -9 -3t-9 -5h-6q-8 0 -10 10t-10 14zM216 676v-26q0 -20 -1 -27t-17 -23 q-6 -6 -23 -22t-35 -34l-34 -34l-22 -22v60zM976 624h50l-128 -128q-8 -8 -26 -8q-8 0 -12 1t-12 7zM906 624l-128 -128h-50l128 128h50zM752 634h52l-94 -94h-8v44zM216 788v-50l-132 -128v50zM216 908v-50l-132 -128v50zM216 1018v-50l-132 -128h-8v44zM216 1114 q0 -20 -1 -28t-17 -24l-31 -31t-37 -36t-31 -30t-15 -13h-8v8q2 6 3 14t3 18q2 8 2 20l132 128v-26zM1078 1044h-34l34 36v-36zM1070 1182q10 -12 10 -32q0 -2 -1 -3t-1 -3v-4l-84 -86h-52zM216 1252v-54l-132 -128v52zM1062 1292q6 -8 7 -14t1 -16v-10l-138 -138v50z M216 1318l-132 -128v24v19t10 19l122 118v-52zM1062 1406v-52l-130 -128v52zM222 1490v-52l-128 -128h-10l10 52zM1062 1500v-23t-10 -21l-110 -112h-12v30t12 32l120 120v-26zM222 1560q-2 -4 -12 -17t-12 -17l-19 -19l-27 -27l-26 -26l-16 -16q-6 -6 -16 -6z" />
<glyph unicode="I" horiz-adv-x="770" d="M326 -52l-128 -130q-4 0 -22 -2t-30 -6h-6h-4l130 128zM384 -52h52v-10l-110 -110q-12 -10 -33 -15t-37 -5v10zM566 -44l-120 -120q-8 -8 -21 -9t-23 -1q-2 0 -9 1t-9 1l130 128h52zM84 -120l132 128h2h4q0 -2 4 -12t4 -14v-6v-2l-136 -138q-10 20 -10 36v8zM216 118v-52 l-132 -128v52zM216 180l-114 -114l-18 -8v22v20t10 18l122 120v-58zM222 358v-20q0 -12 1 -21t-7 -17l-122 -120v50zM222 478v-50l-128 -128v50zM222 588v-50l-128 -128v50zM222 710v-26q0 -12 1 -23t-7 -21l-114 -110h-8v52zM216 812h6v-42l-128 -130h-10v44zM216 932v-52 l-132 -128v52zM216 1044v-50l-132 -132v52zM216 1162v-26q0 -18 -1 -26t-17 -24q-6 -6 -23 -22t-35 -34t-34 -33t-22 -21v58zM204 1268h12v-44l-140 -138v50zM204 1384v-50l-128 -128v50zM204 1498v-52l-128 -128v52zM204 1582q0 -2 2 -4q0 -2 2 -4q0 -12 -10 -26l-114 -112 h-8v18z" />
<glyph unicode="J" horiz-adv-x="1208" d="M496 -52h8q18 0 36 -6l-138 -140h-2h-6q-4 0 -17 4t-17 4zM650 -70l-128 -128h-50l128 128h50zM762 -70q0 -2 -3 -8t-3 -10q-16 -16 -33 -35t-37 -35t-42 -28t-48 -12h-12l128 128h50zM412 -26h8q6 0 17 -1t11 -11l-2 -6l-128 -128h-10q-10 0 -18 1t-16 7zM208 -112 l136 138q4 -2 13 -12t11 -14q0 -6 -8 -18l-112 -110q0 -2 -6 -5l-10 -5h-4h-6q-2 2 -8 9t-6 9l-2 2q-2 0 -2 2zM916 -8q-28 -34 -66 -69t-80 -51q6 6 19 20t28 29t29 28t20 17q4 4 24 14t26 12zM154 -52l138 136q18 -8 18 -30v-2l-138 -140q-18 10 -18 30v6zM232 146h4h4 q4 -2 10 -9t8 -9v-6v-2l-138 -138h-4h-4q-6 6 -13 16t-5 10zM182 204l2 4l4 -2l2 -2q2 0 8 -6t10 -8v-6v-4l-138 -136q0 -2 -2 -2q-2 -2 -4 -2l-2 4q-6 4 -14 13t-4 13zM712 394q-2 -8 -5 -19t-13 -17l-8 10zM600 394l120 120q0 -4 1 -11t1 -11q0 -10 -1 -19t-9 -19l-18 -18 t-25 -26t-26 -26t-19 -16q-2 0 -11 7t-13 9v6v4zM582 492q0 2 2 4l128 128h8v-42l-128 -128q-10 12 -10 32v6zM712 738v-54l-128 -128v50zM720 866q0 -4 1 -14t1 -12v-23t-10 -21l-112 -112h-8v54zM730 986v-14q0 -10 -2 -26t-8 -22l-128 -128v52zM720 1096q10 -2 10 -13 v-15v-16l-138 -136v52zM582 1066q0 2 2 4l136 136v-52l-128 -128q-10 12 -10 34v6zM712 1318v-58l-128 -132v62zM704 1420q8 -2 9 -13t1 -15q0 -2 -1 -4t-1 -4v-6l-138 -136v50zM704 1542v-52l-130 -128v52zM694 1618q2 0 6 -3t4 -5t-4 -9t-6 -9l-128 -128v26z" />
<glyph unicode="K" horiz-adv-x="1598" d="M318 -58h50l-128 -132q-8 -6 -15 -7t-15 -1h-13t-11 8zM420 -70q8 10 17 11t21 1h20l-128 -132q-8 0 -16 -2q-20 -4 -26 -6h-8v8zM592 -52l-128 -128q-4 -2 -16 -4t-20 -6h-6h-2l128 132q2 0 12 3t14 3h8h10zM1128 -52h8h10q4 0 17 -3t17 -3q-6 -6 -21 -23t-33 -35 l-34 -34l-22 -22q-16 -16 -31 -19t-39 -3v14zM1292 -58l-128 -132h-50l128 132h50zM240 -18q4 -2 14 -12t12 -14q0 -2 -2 -6q-4 -8 -8 -8l-110 -114q-6 -6 -17 -8t-19 -2v36zM1414 -52l-128 -128h-52l118 122q10 8 19 7t19 -1h24zM1070 0h6h2q4 -2 10 -8t8 -10v-2v-6 l-138 -138l-26 26zM880 -70l138 140l26 -26l-138 -138h-2h-6l-8 8l-10 10v2v4zM248 102v-50l-128 -128h-10v42zM830 -8l138 136l26 -26l-138 -136l-4 -2q-2 0 -4 2q-4 0 -10 7t-8 9v6v4zM778 58l138 140q16 -12 16 -32v-4l-7 -14t-9 -12l-22 -22l-34 -34t-34 -33t-22 -21h-2 q-12 0 -18 8t-6 18v6zM102 58q0 18 8 26l120 120h10v-42l-130 -128q-6 8 -7 12t-1 12zM856 248l6 2q20 0 28 -20l-138 -136l-2 -2h-4q-2 0 -2 2q-4 0 -13 7t-11 9zM230 318v-52l-128 -130v54zM684 198l130 128h2h6l4 -4l4 -4l6 -12q2 -4 4 -6l-138 -138h-6q-8 0 -10 10 t-2 18v8zM762 384l4 2q2 0 4 -2q4 0 10 -6t8 -10v-4v-6l-104 -102v52zM240 446v-24q0 -10 -1 -24t-9 -22l-110 -110h-10v52zM230 496l-128 -128v8v8q0 6 4 26q2 8 4 18l120 120v-52zM710 454q4 -4 14 -13t14 -13v-6v-2l-44 -44h-18q0 18 5 43t29 35zM230 668q8 -8 9 -16 t1 -18v-10l-138 -136v52zM222 770q4 -4 6 -16t2 -16v-6v-4l-136 -136v50zM84 738q0 14 10 24l128 128v-24q0 -12 1 -23t-7 -21l-114 -110l-4 -2q-8 0 -11 10t-3 18zM216 994v-52l-132 -128v52zM76 954q0 10 1 17t7 15l120 118h12v-42l-132 -130q-8 2 -8 10v12zM216 1224v-20 q0 -12 -1 -21t-11 -19l-120 -120h-8v44zM204 1336h16q0 -26 -12 -49t-30 -43t-39 -38t-37 -34q-2 -2 -12 -8t-14 -10l8 62zM216 1454v-52l-132 -128v52zM216 1566v-42l-140 -136q4 14 10 39t16 37l102 102h12z" />
<glyph unicode="L" horiz-adv-x="1128" d="M446 -40h50l-138 -140h-40v8zM606 -40v-12l-128 -128h-50l138 140h40zM738 -40l-132 -132q-8 -8 -19 -8h-21h-26l128 128zM840 -52l-130 -128h-52l130 128h52zM906 -40h52l-136 -140l-44 8zM230 -26q20 -10 44 -14l-128 -132h-52v10zM384 -40l-128 -132h-52l128 132h52z M216 70v-22q0 -10 -1 -20t-11 -18l-120 -120v52zM216 190v-52l-132 -128v52zM216 300v-20q0 -10 -1 -21t-11 -19l-120 -120h-8v44zM216 420v-26v-26q-4 -2 -14 -14t-16 -18q-4 -6 -16 -19t-25 -26l-25 -25l-18 -18q-2 0 -8 -4t-10 -4v52zM216 532v-50l-132 -132v52zM216 600 l-132 -128v22v19t10 19l122 118v-50zM222 750q0 -10 1 -20t-7 -18l-122 -120h-10q0 8 1 26t9 24l128 128v-20zM222 890v-24q0 -12 1 -23t-7 -21l-114 -110h-8v50zM222 1004v-54l-128 -128v50zM222 1122v-52l-128 -128v52zM222 1234v-52l-128 -128v52zM84 1208q4 2 6 9t4 7 l128 130v-26q0 -10 1 -21t-7 -21l-114 -114h-4h-4q-2 4 -4 13t-6 13v6v4zM216 1456v-50l-132 -128v50zM222 1576v-42l-128 -128v40z" />
<glyph unicode="M" horiz-adv-x="2216" d="M350 -76l-128 -132q-10 -8 -19 -8h-21h-20l138 140h50zM1798 -76h10q10 0 17 -1t15 -11l-130 -128h-40v8zM1958 -88l-128 -128h-50l128 128h50zM2028 -76h50v-12l-110 -110q-10 -10 -31 -15t-37 -5v10zM198 -62l2 2q2 0 2 1t2 1q10 0 18 -7t8 -17v-6l-112 -110 q-6 -8 -13 -9t-15 -1q-10 0 -16 1t-16 9zM460 -76l-120 -122q-8 -10 -17 -10h-21h-20l128 132h50zM1608 -156l138 138q2 -2 9 -12t9 -14v-4v-4l-138 -138q-8 4 -13 14t-5 18v2zM1044 -26l42 -10l-136 -136q-2 -2 -6 -2h-10h-15t-13 10zM1198 -44q-6 -6 -20 -21t-31 -31 t-31 -31t-20 -19q-6 -6 -19 -16t-17 -10q0 -2 -10 -2h-16h-12t-14 2l128 128h62zM1308 -44l-128 -128h-52l128 128h52zM186 -10l-128 -128v20v22t8 20l120 116v-50zM862 -88l138 140q8 -8 8 -12q4 -4 7 -13t3 -11l-138 -136q-18 8 -18 30v2zM1728 84q8 -8 9 -14t1 -16 q0 -8 -1 -15t-9 -13l-128 -130v60zM830 -10l138 138q0 -2 4 -5t4 -5q2 -4 6 -14t2 -12l-136 -136q-18 10 -18 32v2zM212 184v-4q0 -10 -4 -26t-4 -18t-3 -9t-3 -9l-122 -118q0 4 3 20t5 20t6 16q2 6 2 10l120 120v-2zM1720 186q10 -2 10 -13v-15q0 -2 -1 -4t-1 -4v-6 l-136 -136v50zM794 74q0 2 2 2l136 136q4 -2 10 -15t8 -17q0 -4 -4 -10t-6 -8l-110 -110q-4 -4 -9 -6t-9 -6h-6q-8 0 -10 10t-2 20v4zM760 154l128 128h6q10 0 11 -8t1 -16v-10l-128 -130h-4q-10 0 -12 10t-2 18v8zM1720 308v-52l-128 -128v52zM238 326q0 -6 -3 -23t-5 -21 t-2 -8t-2 -8q-2 -6 -4 -10l-112 -112v12q0 12 1 28t7 20zM728 238l134 138q18 -14 18 -30v-6l-136 -136q-8 4 -12 14t-4 18v2zM1710 410v-52l-128 -128l-8 44zM256 446q0 -44 -26 -70q-4 -6 -17 -19l-26 -26t-26 -25t-17 -16q-4 0 -9 -4t-7 -4q0 2 -1 10t-1 10q0 12 1 21 t9 17l120 120v-14zM702 326l128 128h4h4q2 -4 4 -13t6 -13v-6v-4l-138 -136q-8 16 -8 36v8zM1694 512q8 -16 8 -34q0 -10 -3 -16t-15 -16q-12 -14 -30 -33t-36 -37l-31 -31l-13 -13h-8v52zM798 540q2 0 2 -1t2 -1h2q2 -4 4 -10q4 -12 4 -16v-2v-6q0 -2 -3 -9t-5 -9 l-112 -110l-16 -10v12q0 12 1 28t7 22l112 110zM274 576q0 -10 -2 -25t-8 -21l-120 -120v18q0 10 1 22t9 22l120 116v-12zM1684 564l-118 -118v2v6q0 4 7 24t9 26q4 12 10 18l92 92v-50zM770 624q8 -2 9 -13t1 -15q0 -2 -1 -4t-1 -4v-6l-86 -86v14q0 10 2 25t8 21zM290 728 v-52l-128 -128v52zM1670 720q4 -8 5 -16t1 -18v-10l-58 -62v10v8q0 8 4 25t4 19q4 6 21 23t23 21zM734 710q18 -10 18 -32v-2l-42 -44q2 16 5 42t19 36zM308 856v-6v-2q-4 -14 -10 -37t-8 -25l-110 -110v52zM1180 804l52 52v-8q0 -6 -4 -19t-10 -27t-13 -24t-13 -10 q-10 0 -11 11t-1 17v8zM186 848q4 4 14 16t12 16l114 114v-24q0 -38 -26 -64q-6 -4 -18 -17t-26 -26t-26 -25t-18 -16q-2 -2 -7 -5t-7 -5q-4 4 -6 13t-6 13v4v6zM1146 862q0 4 3 13t5 13q2 2 3 5t3 7t2 6l112 112v-10q0 -50 -29 -81t-65 -65q-2 -2 -12 -8t-14 -6q-2 0 -5 6 t-3 8zM350 1112q0 -10 -1 -23t-9 -19l-118 -120q0 2 -1 9t-1 9q0 8 1 21t9 19l120 120v-16zM1308 1162q0 -2 1 -7t1 -9q0 -16 -3 -27t-15 -23l-112 -112v10q0 14 7 35t19 31zM358 1206l-128 -128v18v16q2 4 12 21t14 21l21 21l31 31t30 31t20 19v-50zM1370 1338q0 -4 -3 -14 t-7 -22t-9 -22t-7 -12l-102 -106q2 16 8 42t18 38l102 102v-6zM384 1396v-52l-128 -128v52zM402 1516q0 -14 -4 -32t-14 -30l-110 -110q0 2 -1 12t-1 14v21t10 19l120 120v-14zM1436 1524q0 -6 -4 -18t-10 -26t-12 -27t-8 -17q-4 -6 -17 -20t-28 -29t-29 -27t-20 -16v2v6 q6 16 16 41t10 27z" />
<glyph unicode="N" horiz-adv-x="1746" d="M274 -76h52l-140 -140h-10q-10 0 -17 1t-15 7zM436 -88l-128 -128h-52l128 128h52zM556 -88l-22 -22t-34 -33t-35 -33t-23 -22q-16 -16 -22 -18t-28 -2q-2 0 -12 1t-14 1l130 128h60zM624 -76q-6 -10 -22 -28t-36 -37t-37 -35t-25 -22t12 16t46 48t47 46t15 12zM1334 -62 h50l-128 -128l-42 -8l-8 8zM1112 -164l138 138q4 -2 10 -6q12 -8 14 -12v-4v-4l-138 -138q-2 2 -6 4l-8 4q-4 2 -6 5t-4 5v4v4zM238 0v-52l-128 -130v52zM1506 -52v-10l-110 -110q-10 -10 -21 -10h-23h-26l128 130h52zM1618 -44l-130 -128h-34l128 128h36zM1068 -98q0 2 2 4 l136 134l18 -32l-138 -138h-4q-10 0 -12 10t-2 18v4zM100 -38q0 8 1 15t9 13l128 128q0 -2 1 -12t1 -14v-21t-10 -19l-112 -114h-2q-10 0 -13 8t-3 16zM1026 -18l128 128h6q6 0 13 -10t7 -16q0 -2 -2 -8t-6 -10l-112 -110q-2 -2 -6 -4q-8 -4 -10 -4l-4 -2q-10 0 -12 11 t-2 17v8zM984 52l128 128h4q10 0 11 -10t1 -18v-8l-128 -128h-4q-8 0 -10 10t-2 18v8zM230 222v-50l-128 -132v52zM932 118l138 138q6 -4 12 -13t6 -17l-2 -4l-136 -138q-18 10 -18 32v2zM888 186l138 140q4 -4 10 -14t8 -12v-6v-4l-138 -136q-18 6 -18 26v6zM230 340v-50 l-128 -128v50zM838 256l138 136q18 -8 18 -26q0 -14 -18 -34q-6 -6 -23 -22t-35 -34t-34 -33t-22 -21q-2 4 -11 13l-13 13v2v6zM92 314l138 140v-52l-128 -128q-10 2 -10 12v16v12zM924 454h2h6q2 -4 9 -9t9 -9v-4v-4l-138 -138l-26 24zM734 384l138 138h4h4q4 -4 12 -16 q4 -6 6 -10l-138 -138h-2h-6l-18 18v2v6zM222 564v-26q0 -20 -1 -27t-17 -25q-4 -4 -16 -17t-26 -26t-26 -25t-18 -16q-2 -4 -12 -10t-14 -8v52zM684 446l138 136q18 -12 18 -26q0 -2 -1 -3t-1 -3v-2l-136 -138q-10 6 -16 11t-6 17zM212 666h10v-42l-130 -128h-8v42z M770 650h4q10 0 12 -10t2 -16q0 -16 -10 -24q-8 -10 -22 -25t-28 -29t-25 -24l-11 -10h-8v52zM222 796v-52l-130 -130v52zM674 662q0 2 2 4l52 54q16 -10 16 -28v-8l-60 -60q-10 12 -10 32v6zM222 906v-50l-130 -128v50zM684 796q2 -4 8 -13t10 -13v-4v-6q-4 -2 -14 -12 t-12 -14q0 4 -1 14t-1 12t-1 18t11 18zM1240 766q0 2 2 4q0 4 6 10t8 6v-52l-10 15t-6 17zM1188 838l54 50h8v-40l-52 -52q-2 4 -5 17t-5 17v4v4zM222 1026v-26q0 -18 -1 -26t-17 -24q-4 -6 -16 -19t-26 -26t-26 -25l-18 -18q-2 -2 -12 -8t-14 -6v50zM1128 888l104 106 q8 -8 9 -16t1 -18v-10l-96 -94q-4 2 -9 11t-9 13v6v2zM1094 970q0 4 2 6l128 128v-26v-23t-10 -21l-102 -102h-4q-10 0 -12 10t-2 18v10zM222 1136v-50l-130 -128v50zM1224 1216v-54l-128 -128v52zM222 1256v-50l-130 -128v50zM1224 1334v-52l-128 -128v52zM212 1308 l-128 -128v6v2q4 14 6 33t2 21l130 128zM1224 1446v-50l-128 -128v50zM222 1490q8 -22 8 -36q0 -12 -17 -34t-40 -45t-46 -42t-35 -25v52zM1224 1542v-23t-10 -21l-102 -102l-16 -12q0 4 -1 12t-1 12q0 10 1 19t9 19l120 120v-24zM222 1592v-44l-130 -128v44z" />
<glyph unicode="O" d="M1018 -40h52l-136 -140h-12q-8 0 -15 1t-17 7zM916 -34h52l-136 -138h-16h-14t-14 10zM1198 -34l-118 -120q-6 -6 -21 -7t-27 -1h-14l122 122q4 4 20 5t26 1h12zM822 -8h4q10 0 21 -2t11 -16v-8l-114 -112q-6 -8 -28 -8q-10 0 -16 1t-14 7zM1344 0q-4 -14 -26 -37 t-52 -45t-60 -38t-46 -16h-2l120 120q4 2 10 4q4 2 8 2t8 2t20 5t20 3zM738 18h2h4q4 -2 8 -2t8 -2q6 -2 10 -4l4 -4l-4 -6l-128 -128h-10q-10 0 -17 1t-15 7zM522 -76l128 128h4q2 0 2 1t2 1q8 0 18 -3t10 -13v-2l-128 -130h-8q-8 0 -18 2t-10 10v6zM584 94h2h6q4 -2 13 -8 t11 -10l-134 -134q0 -2 -2 -2q-2 -2 -4 -2q-8 0 -17 6t-13 16zM376 10l138 136q6 0 16 -10t10 -16q0 -2 -7 -12t-11 -14l-22 -22t-33 -34t-33 -33t-22 -21h-4q-10 0 -21 6t-11 16v4zM318 62l138 136l26 -26l-138 -136q0 -2 -2 -2h-4l-2 2q-4 0 -10 6t-8 10v4v6zM256 116 q0 2 2 4l136 138l26 -26l-136 -138h-4h-6q-2 4 -9 9t-7 9zM326 300l4 2l6 -2q2 0 11 -7t13 -9l-138 -138q0 -2 -2 -2h-4q-20 0 -26 20zM162 256q0 2 2 2l128 128h4q10 0 12 -10t2 -16q0 -14 -10 -24l-110 -114h-10q-10 0 -14 9t-4 19v6zM258 464h4q10 0 12 -10t2 -18 q0 -2 -1 -3t-1 -3v-2l-128 -128h-6h-2q-6 6 -13 16t-5 10zM232 558q0 -2 4 -5t4 -5q4 -4 7 -14t1 -12l-136 -136q-2 0 -5 3l-5 5q-2 4 -2 8t-2 8q-2 6 -4 10zM1420 592l4 -8q0 -14 -14 -38t-34 -47t-40 -40t-32 -17v30zM216 650v-50l-122 -118h-6v40zM1438 720v-22 q0 -10 1 -20t-7 -18l-122 -120v52zM208 762v-24q0 -22 -1 -29t-17 -23q-12 -12 -30 -29t-34 -33q-20 -20 -38 -40h-12v50zM1438 840v-52l-128 -128v52zM198 866q4 -10 7 -18t3 -18v-8l-132 -128h-6v44zM1292 806l140 136q2 -4 4 -17t2 -17q0 -2 -2 -8t-4 -10l-128 -128 q-12 20 -12 36v8zM198 934l-128 -128v16q0 10 1 23t5 21l122 120v-52zM1268 898l128 132h4q10 0 12 -10t2 -16q0 -8 -1 -14t-7 -12l-114 -112l-14 -8q-10 14 -10 36v4zM208 1054l-120 -120q4 20 11 45t21 39l102 104zM1234 978l136 136q2 0 5 -4t5 -4q0 -4 4 -16q2 -6 4 -10 l-136 -138q-18 10 -18 30v6zM1310 1172q4 4 10 7t8 3q0 -2 7 -8t9 -10l2 -4l-2 -2l-136 -140l-26 26zM1260 1234q2 -2 6 -4l12 -6l8 -8v-6v-2l-140 -138l-24 26zM1172 1268h4q2 0 2 1t2 1q10 0 19 -4t9 -14v-10l-112 -110q-6 -8 -13 -9t-15 -1q-10 0 -16 1t-16 9zM762 1146 q-2 0 -8 -3t-10 -3q-2 0 -18 -4t-24 -4h-4h-4q4 6 18 20t31 30t32 31l21 21q14 10 41 20t47 14zM1080 1286h42v-8l-128 -132h-10q-10 0 -18 1t-16 11zM950 1278q12 10 30 12t32 2h6l-134 -134q-2 -2 -4 -2q-2 -2 -10 -2q-14 0 -30 10z" />
<glyph unicode="P" horiz-adv-x="1352" d="M240 -34h4h4q4 -2 14 -8t12 -10l-128 -128h-44v8zM420 -26l-128 -128q-2 0 -18 -4t-26 -4h-8h-10l120 122q4 0 9 3t9 3t20 4t22 4h4h6zM548 -16l-128 -130h-62l130 130h60zM222 62v-52l-128 -130v50zM222 180q0 -4 2 -13t2 -13t-2 -14t-2 -12t-10 -15t-14 -19 q-6 -6 -19 -18t-27 -26t-26 -25t-16 -15q-2 -2 -7 -5t-9 -5v52zM222 292v-52l-128 -128v52zM216 402l6 -42l-138 -138v52zM216 514v-8v-10q-4 -8 -6 -24t-6 -18l-120 -118v50zM216 610q0 -22 -1 -29t-17 -23l-31 -31l-37 -37l-31 -31t-15 -13h-8q0 6 4 25t4 25q4 4 6 10t4 8 l122 120v-24zM890 676l-102 -102q-2 0 -15 -7t-21 -9q-6 -4 -25 -10t-25 -8l120 120q4 2 10 4q4 2 8 2t8 2t17 5t15 3h6h4zM710 660q10 0 22 -4t12 -6v-8l-86 -84q0 2 -1 14t-1 14q0 6 1 17t1 13q2 4 15 16t21 18l2 2q2 2 3 2t3 2zM222 756v-24q0 -10 1 -20t-7 -18 l-122 -120v50zM1044 744q-4 -4 -13 -14t-20 -20t-21 -20l-14 -14q-6 -4 -14 -10q-16 -12 -20 -16q-4 -2 -8 -3t-8 -5q-6 -4 -10 -8l-4 -2h-2q-2 0 -4 2l18 18t25 26t26 26t19 16q4 6 24 15t26 9zM222 872v-50l-128 -128v50zM222 986v-52l-128 -128v52zM94 968q0 2 3 9t5 9 l128 128q0 -2 1 -12t1 -14v-23t-10 -21l-112 -110h-8q-2 0 -5 13t-3 21zM230 1224v-52l-128 -128h-8v44zM676 1096l128 128q6 0 16 -10t10 -16q-2 -4 -6 -10q-8 -12 -10 -16q-6 -6 -22 -21t-34 -33l-34 -34l-22 -22h-8q-12 0 -15 6t-3 18v10zM858 1146q0 -34 -30 -51 t-58 -25l78 76h10zM658 1190l62 62h10q10 0 17 -1t15 -9l-94 -96q-8 10 -9 17t-1 17v10zM222 1336v-50l-128 -128v50zM216 1438h6v-42l-128 -128h-10v42zM216 1560v-26q0 -20 -1 -28t-17 -24q-6 -6 -23 -22t-35 -34l-34 -34l-22 -22v62z" />
<glyph unicode="Q" horiz-adv-x="1994" d="M1618 -146l-110 -110q-6 -6 -18 -10q-6 0 -30 -4t-28 -4l128 128q0 2 19 5t31 5h8v-10zM1354 -240l136 138h6h4q4 -4 11 -15t5 -11l-136 -138h-6h-4l-9 9t-7 9l-2 4zM1738 -118q2 0 9 -1t9 -1q-4 -6 -19 -21t-31 -32t-31 -31t-21 -18q-28 -26 -64 -26h-14l118 120 q8 8 21 9t23 1zM950 -58h54l-138 -140h-10q-10 0 -18 1t-16 7zM1122 -58l-128 -132q-10 0 -18 -2q-20 -4 -26 -6h-8h-8l136 140h52zM1318 -154l128 128h6q10 0 11 -10t1 -16v-6l-128 -132h-4q-10 0 -12 10t-2 18v8zM866 -34h10q10 0 17 -1t15 -9l-138 -136h-2h-6q-4 0 -16 3 t-16 5zM1172 -70q16 4 35 11t35 7v-6q0 -2 -10 -12t-23 -24t-28 -28t-23 -24q-20 -16 -39 -25t-43 -9h-14zM770 -8h16h15t13 -10q0 -2 -3 -7t-5 -9l-112 -112q-2 -2 -9 -5t-9 -3q-6 0 -18 4t-16 14zM694 26h2q20 0 34 -18l-138 -136q-4 2 -10 4q-4 2 -8 2t-8 2l-5 5t-3 5z M1292 -120l-6 10l-52 -18l102 102q12 4 24 10l20 8t16 8q4 2 13 5t11 3zM616 70h6h2q4 -4 14 -10t12 -8l-136 -136q0 -2 -2 -2q-2 -2 -6 -2q-18 0 -24 18zM548 112l26 -28l-136 -136l-36 18zM344 26l138 138h2h4q4 -2 10 -9t8 -9v-6v-2q-2 -4 -4 -10t-6 -8l-110 -112 q-2 -2 -8 -5t-10 -3q-6 0 -15 7t-9 13v6zM420 216h4h4q4 -4 9 -10t9 -8v-6v-2l-136 -138l-26 24zM360 274h4h4q4 -2 10 -8t8 -10v-2v-6l-138 -136l-2 -2h-4q-2 0 -2 2l-4 4l-4 4t-7 10t-3 8zM180 204l138 140q18 -14 18 -32v-4l-138 -136q-10 4 -14 13t-4 17v2zM146 292 l128 128h6q10 0 11 -13t1 -17v-14l-128 -128h-6q-10 0 -11 13t-1 19v12zM248 504q8 -8 9 -14t1 -16v-10l-136 -136l-10 40zM1088 420q4 -2 11 -16t7 -18t-7 -9t-11 -9q-4 -2 -21 -5t-23 -3v16zM1044 496q8 -4 13 -13t5 -17v-2l-76 -78q-2 -2 -4 -2h-6q-22 0 -34 10z M1004 566q18 -12 18 -28l-4 -8l-120 -118l-2 -2q-8 0 -17 6t-13 12zM84 456l2 4q0 2 2 4l134 136q10 -18 10 -36v-8l-138 -136q-4 10 -7 18t-3 18zM830 510q0 2 2 4l136 136q4 -2 10 -12t8 -14v-4v-4q-2 -4 -5 -9t-3 -7l-112 -112q-4 -2 -10 -6t-8 -4t-10 12q-4 6 -6 14z M208 694q4 -10 6 -18t2 -18v-8l-140 -136v52zM924 694h6h4l8 -8l-136 -138h-26zM198 804q0 -2 1 -12t1 -14v-21t-10 -19l-114 -114h-6v52zM1446 668l70 70v-10q0 -6 -3 -21t-9 -29t-14 -25t-18 -11q-8 0 -17 6t-9 16v4zM1516 848v-52l-96 -94l-24 26zM208 904v-20t-10 -18 l-122 -122v18q0 10 1 23t11 19l120 120v-20zM1362 814l138 136q8 -18 8 -34v-8l-138 -138q0 4 -4 17t-4 17v4v6zM1336 898l128 128l2 2l4 2l2 -4q2 0 5 -10t5 -16v-4v-2l-138 -138q-6 8 -7 15t-1 17v10zM240 1076v-6q-4 -14 -9 -36t-9 -22l-110 -114v10q0 14 8 37t18 31 l102 102v-2zM1300 978l2 4q0 2 2 4l128 128h2q10 0 12 -10t2 -16q0 -16 -10 -26l-110 -112l-18 -8q-4 10 -7 18t-3 18zM1380 1172l2 4l4 -2l2 -2q2 0 8 -6t10 -8v-6v-6l-128 -128h-8q-16 0 -28 18zM1318 1234h6q16 0 30 -18l-138 -138h-8q-18 0 -26 18zM300 1234 q-12 -44 -44 -81t-66 -65q0 8 8 16q4 6 16 21t25 33t26 35t19 23q2 2 7 9t9 9zM1252 1274l2 4q8 0 18 -6t14 -12l-140 -138h-2q-8 0 -17 4t-13 14zM840 1164l-8 -4q-4 -2 -10 -2q-6 -4 -26 -10t-26 -8h-2h-6q38 42 85 81t103 53zM1030 1172l116 120q12 12 26 12q8 0 18 -3 t10 -13l-2 -2q-6 -6 -21 -23t-33 -35l-34 -34l-22 -22q-2 -2 -12 -7l-14 -7h-4h-4q-8 0 -14 2t-10 4q-2 0 -2 2q-2 2 -2 4zM1096 1300l-128 -128h-52l128 128h52z" />
<glyph unicode="R" horiz-adv-x="1464" d="M478 -70l-128 -128h-50l128 128h50zM326 -52q2 4 8 6t10 2q8 0 20 -2t12 -6v-6l-128 -132h-10q-12 0 -21 3t-19 7zM606 -52l-134 -138h-52l120 120q10 12 28 15t32 3h6zM1088 -34l-120 -120q-2 -2 -9 -5t-9 -5q-6 0 -26 -4t-26 -4l128 128q4 0 23 4t29 6h4h6zM256 -8h6h4 l9 -9t7 -9l2 -4l-2 -4l-128 -130h-14h-12q-4 2 -7 9t-1 9zM830 -128l138 136q18 -10 18 -32v-2l-138 -138q-18 14 -18 30v6zM1224 -18l-128 -128l-20 -4q-10 -2 -18 -3t-14 -1h-4h-4l128 128l20 4q20 4 32 4h2h6zM1344 -8l-120 -120q-8 -10 -18 -10h-20h-22l122 120 q8 10 17 10h21h20zM788 -52l136 136q4 -2 11 -15t7 -17t-7 -13t-11 -13q-6 -6 -22 -23t-33 -35t-33 -34l-22 -22h-6q-10 0 -16 13t-6 21zM248 102v-50l-128 -128v50zM880 154h6q10 0 11 -10t1 -16v-8l-136 -138l-18 36zM248 216v-54l-128 -128h-10v42zM716 100q0 2 2 4 q0 2 2 6l128 130l18 -36l-138 -134q-10 2 -11 12t-1 16v2zM256 326q0 -26 -13 -49t-31 -44t-39 -39t-37 -32q-2 -4 -12 -10t-14 -6v20v20t10 18l120 122h16zM814 318q8 -18 8 -36v-8l-112 -112v54zM248 446v-24v-19t-8 -19l-130 -128v52zM770 394q18 -14 18 -30 q0 -10 -9 -23t-22 -26t-26 -22t-21 -11v10v8l6 24t4 20q4 4 23 24t27 26zM248 556v-42l-138 -138v20v21t10 19l120 120h8zM738 472q4 -10 5 -16t1 -18v-10q-2 -6 -16 -19t-18 -15v26v26q2 4 12 13t16 13zM240 668q6 -8 7 -16t1 -18v-10l-128 -128h-10v44zM230 778 q8 -8 9 -14t1 -16q0 -12 -3 -18t-15 -18q-12 -14 -31 -33l-37 -37t-31 -30l-13 -12h-8v50zM222 880v-50l-120 -118h-8v40zM216 994q4 -8 5 -16t1 -16v-12l-138 -136v52zM204 1096q4 -2 6 -12t6 -14v-6v-2q-4 -4 -6 -11t-6 -7l-128 -128v52zM204 1216q0 -2 2 -13t2 -13v-22 t-10 -22l-122 -120v62zM898 1216h6h2q2 0 5 -4t5 -6q4 -4 6 -8t2 -8l-110 -112q-2 0 -15 -3t-21 -5h-2h-6l-4 4l-4 4zM692 1120q0 2 2 2l136 138l36 -18l-138 -138h-4h-4q-6 2 -16 5t-10 5l-2 2v4zM204 1326v-52l-128 -128v52zM684 1224q0 2 4 9t6 9q4 6 21 22t23 22h12 q8 0 14 -1t14 -11q0 -2 -2 -7t-6 -7q-4 -4 -12 -13t-17 -19t-18 -19t-13 -11t-9 -5t-7 -3q-2 4 -6 17t-4 17zM204 1446v-50l-128 -128v50zM216 1562v-2q-4 -12 -6 -32t-6 -20l-128 -130v4v6q4 10 6 29t2 21l132 128v-4z" />
<glyph unicode="S" horiz-adv-x="1362" d="M780 -76l-130 -132q-8 -8 -17 -8h-21h-20l138 140h50zM634 -62l6 4q12 0 19 -4t17 -8l-136 -138h-2h-6q-4 4 -18 6t-18 4zM806 -172q-10 -10 -26 -14t-30 -4h-12l120 120q4 2 10 4q12 4 16 4q4 4 20 6t20 4zM548 -26q2 0 12 -3t14 -7q0 -2 2 -2t2 -1t2 -1l4 -4 q0 -2 -4 -8t-6 -10l-110 -110q-4 -2 -9 -5t-9 -5h-6q-18 0 -28 18zM472 8h6q18 0 28 -18l-138 -136l-32 16zM274 -70l138 136l26 -26l-138 -134l-4 -4q-2 0 -2 2l-2 2q-2 0 -9 7t-9 11v2v4zM360 128q18 -10 18 -28l-2 -8l-136 -136l-24 26zM164 52l136 134q6 0 16 -10 t10 -14t-6 -13t-10 -13l-22 -22l-34 -34t-34 -33t-22 -21l-8 -2q-10 0 -19 6t-9 16zM110 106q0 2 2 4l136 138q18 -10 18 -28v-8l-138 -136q-18 8 -18 26v4zM208 326h2h6q0 -4 3 -6t3 -6q2 -2 4 -3t4 -5t2 -6l-138 -138h-4h-2q-6 4 -14 14t-4 10zM858 350q0 -8 -16 -9 t-20 -1h-16l52 52v-42zM728 382l2 2l92 94h4q10 0 12 -10t2 -14v-8l-84 -88q-4 0 -9 3t-9 5q-8 4 -8 10l-2 2v4zM668 436l112 112h4h4q8 -4 8 -10q2 -2 4 -3t4 -5t2 -8l-112 -112h-6h-2q-14 4 -18 18v4v4zM730 614l26 -26v-2v-4l-114 -110q0 -2 -2 -2q-2 -2 -6 -2 q-8 0 -11 1t-7 9q-2 4 -6 10t0 8zM556 554q0 2 2 2l110 110q2 2 12 -5t14 -11v-4v-6l-110 -110h-6h-4q-4 2 -10 8t-6 10l-2 2v4zM600 720h6q18 0 28 -18l-112 -114l-34 18zM412 640l136 138l26 -26l-136 -138h-6h-4q-4 2 -10 9t-6 9q-2 0 -2 2v4zM482 830h2h4q6 -2 12 -6 q4 -4 9 -6t5 -6t-2 -9t-6 -7l-130 -130h-2h-6q-4 4 -13 14t-11 14zM428 888l28 -26l-138 -134q-2 -2 -4 -2q-2 -2 -4 -2q-16 0 -26 20zM232 812l136 138l26 -26l-146 -146q-2 2 -9 12t-7 14l-2 4zM318 1008q2 0 2 2l2 2l4 -4q2 0 10 -8q2 -4 5 -9t3 -7l-136 -136l-6 -4l-4 4 q-4 4 -11 13t-7 11zM146 958l128 128l6 2q10 0 11 -13t1 -17v-14l-22 -22l-34 -34l-34 -34l-22 -22q-4 -2 -13 -9t-13 -9q-6 8 -7 16t-1 18v10zM110 1032q0 2 2 2l128 128h2q2 0 2 1t2 1q8 0 10 -11t2 -17v-8l-138 -134q-4 10 -7 16t-3 16v6zM866 1096l94 92l26 -26l-96 -92 q-2 -2 -11 5t-13 11v4v6zM222 1268q8 -10 9 -17t1 -17v-10l-138 -138v50zM804 1150q0 2 2 4l110 114h6h2q4 -4 11 -14t7 -12t-7 -12t-11 -14q-4 -6 -16 -19t-25 -26t-26 -25t-17 -18h-8q-10 0 -19 6t-9 16zM866 1326q2 -2 6 -4q8 -4 12 -4q0 -2 3 -5t3 -5v-2v-6l-120 -120 l-26 26zM240 1396q0 -6 -4 -23t-4 -21q-2 -6 -4 -16t-6 -10l-110 -110q-2 2 -2 4v4q0 14 5 21t13 23q6 8 19 27t17 23l15 15l23 23l23 23t15 17zM702 1282l68 70h16h15t13 -8l-94 -94h-4q-10 0 -12 7t-2 15v10z" />
<glyph unicode="T" horiz-adv-x="1292" d="M614 -52l-128 -128h-50l138 140zM734 -40v-12l-120 -120q-8 -8 -17 -8h-21h-20l136 140h42zM804 -40h58l-128 -132l-58 -8v8zM538 36v-52l-128 -130v52zM400 12q0 4 2 6l128 128q8 -8 9 -14t1 -16q0 -2 -1 -4t-1 -4v-6q0 -2 -10 -15t-16 -17q-4 -6 -19 -21l-31 -31 l-31 -31l-21 -21q-10 4 -10 17v17v12zM530 258q2 -4 5 -18t3 -18v-4v-2l-136 -140q0 4 -1 10t-1 8q0 10 1 23t9 21zM548 386q0 -10 -3 -28t-7 -22l-128 -128v14q0 10 1 23t7 21l120 120h10zM548 506v-52l-130 -128h-8v42zM402 482l136 134v-58l-128 -130q-2 6 -5 23t-3 21v4 v6zM530 720v-52l-128 -128v52zM530 840v-52l-128 -128v52zM530 950v-52l-128 -128h-10v44zM382 918q0 2 2 6l128 130h12v-30t-12 -30l-102 -104q-2 -2 -9 -4t-9 -2q-8 0 -9 12t-1 16v6zM512 1164v-50l-128 -128l-8 44zM350 1122l136 138q2 0 5 -4t5 -4q4 -6 6 -16t2 -12 l-138 -136q-6 4 -12 13t-6 17zM66 1182l132 128q18 -10 18 -24q0 -2 -1 -3t-1 -3l-2 -2l-136 -138q-10 2 -10 13v15v14zM314 1268v-8l-110 -114q-10 -8 -21 -7t-21 1h-26l128 128h50zM436 1268l-128 -128h-52l136 138zM1154 1292l-128 -128q-8 -8 -18 -9t-20 -1q-2 0 -10 2 t-10 2l136 134h50zM958 1254q0 24 19 28t37 4h12l-58 -62q-2 4 -5 14t-5 14v2zM186 1420v-50l-128 -128v50zM186 1534v-52l-128 -128v52zM186 1610q0 -2 2 -2l2 -2l-4 -4q-2 -6 -11 -19t-13 -17q-6 -4 -18 -17t-26 -26t-26 -25l-16 -16q-2 -2 -8 -5l-10 -5v10z" />
<glyph unicode="U" horiz-adv-x="1498" d="M840 -40l-130 -132q-10 -8 -19 -8h-21h-20l138 140h52zM676 -34h52q0 -4 -7 -13t-11 -11q-6 -6 -22 -23t-33 -35t-33 -34l-22 -22h-18q-10 0 -18 1t-16 9zM958 -34l-110 -112q-10 -10 -27 -14t-29 -4h-6h-6q-2 0 -2 2l120 122q8 4 21 5t23 1h16zM464 -136l136 136l32 -16 l-136 -138h-8q-4 0 -16 2t-12 12zM384 -94l138 138l8 -4q8 -4 10 -4q0 -2 4 -5t4 -5v-2v-6l-128 -128q-2 -2 -4 -2h-4q-8 0 -18 2t-10 12v4zM1104 18q-34 -36 -63 -65t-73 -47l102 104q4 2 10 4q4 2 8 2t8 2h4h4zM326 -40l138 134q0 4 10 -4t14 -14v-2v-4l-138 -140h-4h-2 l-10 10l-8 8v6v6zM402 154h2l4 2q10 0 15 -9t5 -19v-8l-22 -22l-34 -34l-33 -33l-21 -21q-4 -2 -13 -9t-13 -9h-6h-4q-4 6 -11 16t-5 10zM222 88l136 134q8 -4 13 -13t5 -17v-2l-136 -138q-18 10 -18 30v6zM186 172l140 138q10 -16 10 -34q0 -2 -1 -3t-1 -3q-2 -2 -2 -4 l-128 -128l-4 -2l-2 2q-4 0 -6 10t-6 16v4v4zM162 258l138 136q4 -10 7 -18t3 -18q0 -2 -1 -2t-1 -2v-4l-136 -134q-10 14 -10 34v8zM282 496q10 -16 10 -32q0 -12 -4 -19t-14 -17q-12 -12 -30 -31t-36 -37t-32 -30l-14 -12h-8v50zM968 488q-2 -4 -9 -17t-9 -17 q-12 -14 -34 -37t-26 -23h-18zM136 464l130 128h8v-44l-128 -128q-10 2 -10 13v15v16zM1018 650v-16q0 -10 -1 -22t-5 -20l-122 -120v50zM256 702q8 -8 9 -15t1 -17v-10l-138 -138v52zM1026 780q0 -4 2 -13t2 -11q0 -12 -1 -23t-11 -21l-112 -112h-8v50zM256 814v-52 l-128 -128v52zM1036 898v-50l-138 -136v50zM248 924h14q0 -8 -2 -28t-12 -30l-128 -128v58zM890 866q0 2 3 8l5 10l128 128v-52l-128 -128q-2 4 -5 17t-3 17zM248 1036v-50l-128 -128v50zM1018 1114q10 -2 11 -13t1 -15t-1 -5t-1 -5q-2 -4 -2 -6l-128 -128h-8v44zM102 1012 l128 128h10v-44l-130 -128q-6 8 -7 15t-1 17v12zM880 1096l132 128h6v-52l-128 -128q-8 8 -9 18t-1 20v14zM230 1252v-54l-128 -128v52zM870 1192q0 2 2 6l128 130h12v-42l-132 -128q-8 2 -9 12t-1 16v6zM222 1362q10 -2 10 -11v-15q0 -10 -1 -17t-9 -15q-6 -6 -20 -22 t-30 -32l-31 -31l-21 -21q-4 -2 -13 -9t-13 -7v52zM994 1438q2 -4 4 -16t2 -16v-6v-4l-134 -136v50zM222 1472v-52l-128 -128h-10v44zM848 1406l138 136v-52l-130 -128q-6 8 -7 15t-1 15v14zM204 1576q12 -18 12 -34v-8l-140 -138v50zM968 1618h8v-26l-128 -128v36z" />
<glyph unicode="V" horiz-adv-x="1832" d="M830 -34l40 -20l-118 -118q-10 -10 -30 -10h-30v10zM994 -40l-132 -132q-8 0 -16 -2q-6 -2 -13 -3t-11 -3h-10h-8l128 128q0 4 17 6t27 6h8h10zM1206 -52l-120 -120q-8 -8 -16 -8h-18h-18l128 128h44zM1078 -34q8 0 13 -1t13 -5l-128 -132h-52l128 132q8 6 26 6zM658 -94 l138 138q6 -8 7 -15t1 -17v-12l-128 -128h-6q-10 0 -11 10t-1 16v8zM622 -12q0 2 2 4l128 128h6q8 0 10 -10t2 -16v-6l-138 -140q-10 14 -10 34v6zM588 70l140 138q4 -10 7 -17t3 -17q0 -2 -1 -3t-1 -3q-2 -2 -2 -4l-128 -128l-4 -2l-2 2q-4 0 -6 10t-6 16v4v4zM564 164 l128 128h4q12 0 14 -14t2 -22q0 -2 -1 -2t-1 -2v-4l-128 -128h-6q-10 0 -11 13t-1 19v12zM666 376q6 0 10 -8q0 -8 4 -16q2 -6 4 -8l-136 -136q-6 0 -10 8l-8 24zM504 336l136 136q8 -10 9 -17t1 -15v-12l-128 -128h-4h-6q0 2 -3 12t-5 14v4v6zM478 420l136 138 q10 -16 10 -36v-8l-138 -138q-4 10 -6 18t-2 18v8zM446 506l136 136q8 -8 9 -14t1 -16q0 -8 -1 -15t-9 -13l-110 -112h-12q-10 0 -12 10t-2 20v4zM418 592l130 128l2 2l4 -2h2l4 -12q4 -12 4 -14v-6v-2l-136 -138q-8 8 -9 16t-1 18v10zM512 806q18 -14 18 -30v-6l-138 -136 l-4 4l-4 4q-2 6 -6 16t-2 10zM1016 726q0 2 2 4l60 58l-18 -54t-34 -48q-4 10 -7 17t-3 19v4zM348 752q0 2 2 4l136 134q10 -16 10 -34v-8l-138 -136q-4 10 -7 18t-3 18v4zM1128 954v-4q-4 -14 -13 -40t-11 -26l-104 -104q4 6 9 26t9 26t10 18t6 16l19 19l28 28t28 29t19 18 v-6zM314 840l132 128h2q10 0 13 -10t3 -16q0 -12 -4 -18t-14 -16q-6 -6 -23 -22t-35 -34l-34 -34l-22 -22q-18 14 -18 36v8zM282 916l128 128q2 0 2 2l2 2q8 0 11 -12t3 -18v-6l-138 -140q-6 10 -7 17t-1 17v10zM238 994l138 138q0 -4 4 -6t4 -4q2 -4 6 -14t2 -12l-136 -136 q-18 10 -18 30v4zM1206 1146q-2 -4 -12 -28t-14 -30q-4 -8 -10 -21t-8 -13q-4 -6 -17 -19l-28 -28t-28 -29t-19 -18l26 76zM340 1208h6h4q0 -2 3 -12t5 -14v-4v-6l-136 -136l-18 34zM168 1158l140 134q4 -2 9 -15t9 -17q0 -4 -4 -10t-8 -8l-110 -110q0 -4 -7 -6t-11 -4h-4 h-2q-4 2 -6 11t-6 13v6v6zM1268 1324v-6q-10 -20 -23 -51t-29 -51l-70 -70h-10q4 16 9 41t17 37l106 104v-4zM136 1234l138 136q6 -8 7 -15t1 -17v-10l-128 -130h-6q-10 0 -11 10t-1 18v8zM102 1318l136 138q8 -8 9 -15t1 -17v-10l-130 -128h-2h-6q0 2 -4 11t-4 13v6v2z M1318 1488v-6q-2 -6 -8 -26t-10 -24q-2 -4 -2 -6t-2 -6t-4 -6l-104 -104v8v10q4 10 10 30t8 22l112 110v-2zM74 1402q0 2 2 4l128 128h6q8 0 10 -10t2 -16v-8l-138 -138q-10 12 -10 30v10z" />
<glyph unicode="W" horiz-adv-x="2356" d="M796 -40l-138 -140h-52l138 140h52zM1720 -40l-136 -140h-50l136 140h50zM632 -34h8q18 0 36 -6l-8 -18l-112 -114h-52v10zM1566 -34q16 0 34 -6l-8 -18l-112 -114h-60l140 138h6zM1840 -34l-112 -112q-8 -8 -30 -17t-36 -9h-10l130 132zM916 -34l-128 -128h-50l110 110 q10 14 22 16t28 2h18zM1362 -120l136 138q4 -2 9 -12t9 -14v-4v-4l-138 -138q-6 4 -12 13t-6 19zM574 18h4h4q4 -2 9 -8t9 -10v-2v-6l-136 -138l-28 26zM1326 -34l128 128q8 -4 13 -13t5 -17v-2l-136 -138q-10 2 -10 13v15v14zM418 -22q0 2 2 6l128 128l5 -5t3 -5 q4 -4 7 -13t3 -13l-138 -134q-10 2 -10 13v15v8zM1300 52l128 128h10v-42l-128 -128q-8 8 -9 14t-1 16v12zM392 66q0 2 2 4l136 134l10 -40l-138 -138q-10 12 -10 32v8zM1402 274q10 -2 11 -13t1 -15v-24q-6 -6 -21 -20t-31 -30l-31 -31l-21 -21q-4 -2 -13 -9t-11 -9 q-4 2 -6 5t-6 5q-2 4 -4 14t-2 12zM366 158q0 4 2 6l128 128q8 -4 13 -17t5 -17q-2 -2 -12 -16t-14 -20l-20 -20t-31 -30t-32 -31l-21 -21h-2q-12 0 -14 10t-2 18v10zM1378 360q8 -8 9 -15t1 -17v-10l-136 -136l-10 40zM472 376q10 -2 10 -12v-16q0 -2 -1 -3t-1 -3 q-2 -2 -2 -6l-128 -128q-6 0 -6 8q-4 2 -8 14q-2 6 -4 10zM1214 312q0 4 2 6l128 128q8 -4 13 -14t5 -18v-2l-138 -138q-10 2 -10 13v15v10zM446 472q6 -10 7 -17t1 -15v-12l-128 -128h-8v44zM1188 398q0 2 2 4l128 130h6h2q2 -2 5 -12t5 -14v-4v-6l-138 -136q-10 14 -10 32 v6zM290 424q0 2 2 4l128 130h8v-44l-128 -128q-10 12 -10 32v6zM1310 592q-2 -4 -11 -16t-13 -18l-19 -19t-27 -26t-26 -25l-16 -16q-2 0 -9 -4t-9 -4v8q0 16 9 37t17 31t22 24l28 28t25 23l11 9h8q4 0 9 -12t1 -20zM264 516q0 2 2 6l128 128h8q2 0 5 -12t3 -22q0 -2 -3 -8 t-5 -8l-110 -112q-2 -2 -9 -4t-9 -2q-10 0 -10 12v16v6zM248 616l136 140v-54l-128 -128q-8 16 -8 36v6zM1286 676l-52 -52v10q0 8 3 23t10 30t17 25t22 10v-46zM230 720l128 128h10v-42l-128 -130q-10 14 -10 36v8zM350 950q4 -10 7 -17t3 -19l-2 -6l-128 -128h-8v42z M890 904q0 -28 -9 -47t-33 -35q0 4 -2 13t-2 13q0 8 2 14q0 4 2 10q4 10 19 25t23 19v-12zM204 924l128 130h14q0 -10 -1 -30t-13 -30l-102 -104l-14 -6q-10 8 -11 14t-1 16v10zM942 1080l-18 -68l-84 -88h-10v44zM1658 986q0 2 2 4q0 2 2 4q2 4 15 18t17 18v-12 q0 -16 -4 -37t-20 -31q-10 8 -11 16t-1 18v2zM186 1018l140 140v-52l-128 -128q-10 8 -11 14t-1 16v10zM1626 1070l112 112v-10q0 -46 -30 -76t-64 -60h-6q-8 0 -10 10t-2 16v8zM976 1230v-4q0 -2 2 -2q0 -26 -12 -49t-29 -43t-36 -37t-35 -33l-10 -5t-8 -3q4 14 9 40t15 38 l104 102v-4zM162 1114l138 138q10 -12 10 -34q0 -2 -1 -3t-1 -3v-4l-136 -138q-4 4 -6 18t-4 18v6v2zM1764 1328h10q0 -8 -2 -26t-8 -24l-120 -120h-8q6 16 13 33t13 33zM144 1202q0 4 2 6l128 128h8v-44l-128 -128q-10 4 -10 14v14v10zM1026 1396q-2 -6 -7 -30t-7 -30 q-4 -2 -6 -9t-6 -9l-110 -110q4 14 10 40t16 38zM118 1300q0 2 2 4l128 128h6h2q2 -4 5 -13t5 -13v-6v-4q-2 -4 -9 -14t-9 -12l-22 -22l-34 -34t-34 -33t-22 -21h-2q-12 0 -14 12t-2 18v10zM1808 1470q0 -12 -3 -28t-7 -22l-122 -116v2v4q4 6 10 26t8 26q8 12 8 18l106 102 v-12zM94 1388l136 138q10 -18 10 -36v-8l-130 -128l-2 -2h-4q-2 0 -2 2q-2 4 -4 10q-4 12 -4 16v4v4zM1052 1490l-120 -120q2 6 5 26t5 24q0 4 3 10t5 8l120 122zM204 1592q4 0 12 -8v-4v-4l-140 -138v26z" />
<glyph unicode="X" horiz-adv-x="1764" d="M1406 -76l-114 -114q-2 -2 -6 -4l-8 -4q-8 -4 -28 -9t-24 -9h-4h-6l128 128zM1132 -182l136 138q4 -2 13 -12t11 -14q4 -4 1 -9t-7 -9q-6 -6 -21 -20t-31 -30l-31 -31l-21 -21q-10 -10 -17 -14t-19 -4q-18 0 -18 24zM592 -52l-120 -120q-10 -10 -26 -10h-8l128 130h26z M478 -34q16 0 36 -10l-128 -128h-50l136 136h2q2 0 2 1t2 1zM1560 -36l-122 -120q-10 -10 -28 -13t-30 -3h-10l120 120zM412 -36l-22 -22t-34 -33t-34 -33l-22 -22q-16 -16 -23 -18t-29 -2q-2 0 -12 1t-14 1l128 128h62zM258 -18h52l-138 -138h-4h-4q-4 2 -18 5t-18 5z M1086 -116q0 2 2 4l138 138q2 -4 9 -14t7 -12l2 -6q0 -2 -2 -4l-136 -136q-20 10 -20 26v4zM44 -112l138 138h2h6q2 -2 8 -9t10 -9v-6v-2l-138 -138q-4 0 -8 2q-8 4 -10 6q0 2 -4 5t-4 5v2v6zM1172 92q18 -6 18 -26v-8l-128 -128h-4h-4q-2 0 -4 4t-6 4q-2 2 -2 5t-2 7t-4 6z M190 140v-4q-4 -14 -10 -37t-8 -23l-110 -112q2 4 8 17t12 27t12 26t8 18q16 28 41 51t47 41v-4zM1132 162q18 -12 18 -26q0 -2 -1 -2t-1 -2q-2 -2 -2 -4l-128 -128l-2 -2q-2 0 -4 2q-8 0 -8 8q-4 4 -7 10t-3 8zM950 96q0 2 2 6l128 128h2h6q4 -4 11 -13t7 -13q0 -2 -7 -11 t-11 -13q-6 -6 -22 -23t-33 -35t-33 -34l-22 -22h-10q-12 0 -15 7t-3 17v6zM1044 308q8 -4 13 -14t5 -18v-2l-138 -138l-16 36zM872 256l132 128h2q10 0 13 -7t3 -17q0 -2 -1 -3t-1 -3q-2 -2 -2 -4l-128 -128l-4 -2q-8 0 -11 11t-3 17v8zM978 454q0 -4 4 -10t4 -8v-6v-2 l-78 -78q10 20 30 55t40 49zM532 720l136 136v-8q0 -2 -7 -12t-16 -24t-19 -29t-16 -23q-2 0 -8 -8t-15 -17t-17 -18t-12 -15q-4 -8 -10 -8q-2 0 -9 6t-7 10l-2 4zM488 796l136 136q18 -10 18 -30v-4l-136 -138q-18 14 -18 32v4zM574 994h4h6q0 -6 8 -10q2 -4 6 -10t2 -6 l-136 -138h-6h-2q-6 6 -13 14t-5 12zM522 1060h2l4 2q8 0 14 -11t6 -17q0 -2 -3 -7t-5 -9l-110 -112q-2 0 -9 -4t-9 -4l-4 -2h-4q-2 0 -2 2q-4 4 -11 14t-5 12zM344 994l138 134q18 -10 18 -24q0 -2 -1 -3t-1 -3l-2 -2l-128 -128l-4 -2l-4 2q-4 0 -9 6t-7 10v4v6zM308 1074 q0 2 2 4l128 128l4 2l4 -2q2 0 5 -11t5 -15v-4v-4l-138 -138q-10 12 -10 34v6zM266 1146l136 136q4 -2 10 -12t8 -14v-2v-4l-136 -138h-4q-10 0 -12 9t-2 19v6zM222 1224l128 128h6h4q4 -4 10 -14t6 -12t-6 -12t-10 -14l-102 -102q-2 -2 -8 -5l-10 -5h-4q-8 0 -11 11t-3 17 v8zM182 1292l136 136l18 -32l-138 -140q-18 10 -18 30zM128 1360l138 138q18 -10 18 -26v-8l-138 -138q-2 2 -9 12t-9 14v4v4zM92 1430q0 2 2 6l128 130q18 -10 18 -30v-6l-138 -134q-8 2 -9 12t-1 16v6z" />
<glyph unicode="Y" horiz-adv-x="1636" d="M530 -154l136 136q4 -2 13 -12t13 -14q2 -2 -2 -8t-6 -10l-84 -84q-6 -4 -19 -13t-17 -13h-12q-8 0 -15 2t-7 12v4zM812 -44l-128 -128h-52l128 128h52zM932 -34l-136 -138h-52l128 128q10 10 19 10h21h20zM1044 -34l-112 -112q-8 -8 -24 -13t-28 -5h-8l128 130h44z M658 84v-50l-128 -128v50zM658 204v-50l-128 -128v50zM666 326v-8v-10q0 -10 -4 -26l-4 -16l-120 -120h-8v40zM658 436v-60l-12 -12t-28 -29t-33 -34t-29 -27q-4 -2 -13 -9t-13 -9v52zM666 556v-14q0 -10 -1 -25t-7 -21l-128 -128v52zM668 668q0 -2 -1 -5t-1 -5q0 -4 -4 -24 q-2 -8 -4 -18l-128 -128v16q0 10 1 23t7 21l120 120h10zM658 778h8v-40l-128 -132l-16 36zM478 720l136 136q18 -10 18 -30v-4q-2 -4 -9 -14t-9 -12q-6 -6 -21 -22t-33 -34l-34 -34l-22 -22h-4q-10 0 -16 11t-6 19v6zM436 788l138 136q6 -4 12 -13t6 -17l-4 -4l-134 -138 q-18 12 -18 32v4zM392 866l130 128h2h6l4 -4l4 -4l6 -12q2 -4 4 -6l-138 -138h-6q-8 0 -10 10t-2 18v8zM348 928q0 2 2 4l136 138l18 -34l-138 -138q-18 12 -18 26v4zM308 1012l138 134l8 -16t6 -16l4 -6q0 -2 -2 -2t-2 -2l-128 -128h-4q-8 0 -14 11t-6 19v6zM264 1078 l128 128l4 2l6 -2l8 -8q2 -4 6 -10t2 -8l-136 -136q-18 10 -18 26v8zM220 1150q0 2 2 4l128 132h4q10 0 12 -10t2 -20q0 -2 -1 -2t-1 -2v-2l-136 -136q-10 12 -10 30v6zM176 1218q0 2 2 4l2 2l134 138q18 -12 18 -30v-6l-134 -136q-4 2 -11 12t-7 14zM136 1300l128 128 q2 0 2 2l2 2q10 0 16 -12t6 -20v-4q-6 -6 -21 -22t-33 -34t-34 -33t-22 -21q-4 -4 -13 -10t-13 -8h-6q-10 0 -11 10t-1 14v8zM92 1370l138 138l18 -36l-138 -136l-2 -2h-4l-2 2q-2 0 -5 10t-5 16v6v2zM58 1446q4 2 6 9t2 9l132 128q4 -8 5 -15t1 -15v-14l-128 -128h-4h-6 q0 4 -2 8q-4 8 -6 10v4v4z" />
<glyph unicode="Z" horiz-adv-x="1370" d="M318 -40v-12l-128 -128h-52l136 140h44zM430 -52l-130 -128h-52l128 128h54zM548 -52l-128 -128h-52l128 128h52zM678 -40l-130 -132q-8 -8 -20 -8h-22h-24l128 128zM780 -52l-130 -128h-50l130 128h50zM890 -52l-128 -128h-50l128 128h50zM1018 -40l-128 -132 q-8 -8 -18 -8h-20h-20l136 140h50zM1132 -40q-4 -4 -6 -10t-4 -8q-4 -6 -16 -18l-25 -25l-26 -26l-19 -19q-4 -4 -17 -13t-15 -13h-26h-26l128 132h52zM1226 -40l-120 -122q-2 -2 -12 -4t-14 -6h-4h-6l130 132h26zM182 -16h8q22 0 32 -18q-6 -6 -21 -22t-33 -34l-34 -34 l-22 -22q-14 -12 -19 -15t-19 -3q-10 0 -16 1t-14 9zM164 26l-120 -120v4v6q0 2 4 15t4 17q2 6 4 16t6 10l110 114zM232 266q-4 -20 -11 -45t-23 -41l-104 -104q4 20 14 47t20 41l21 21l31 31l31 31t21 19zM300 446q-4 -8 -13 -31t-13 -29q-2 -8 -9 -20t-7 -16l-16 -16 t-26 -25t-26 -25l-18 -18v6v2q2 6 8 26t10 26q0 2 4 10l4 8zM394 660q-10 -16 -10 -24t-8 -26q-8 -24 -21 -42t-29 -36q-12 -14 -35 -37t-25 -23h-8q2 6 9 21t15 31t16 30t12 20t15 18t25 26l26 26t18 16zM482 852q0 -6 -5 -19t-11 -27t-14 -26t-14 -18q-6 -4 -18 -17 t-25 -26l-26 -26t-19 -17v4v6q4 4 10 21t8 23q4 6 10 18t8 14q6 6 19 20t28 29t29 28t20 19v-6zM616 1114q-22 -46 -55 -96t-73 -84q2 6 9 21t15 31t16 30t12 20t15 17l23 23l23 23zM668 1278h28q0 -8 -2 -10q-2 -6 -9 -19t-9 -15l-102 -102q-4 8 -16 11t-18 3zM216 1286h4 h2q4 -4 14 -9t12 -9l-128 -128h-32v18zM360 1268l-128 -128h-50l128 128h50zM488 1278l-128 -132h-50l128 132h50zM600 1278q0 -4 -3 -10t-5 -8q-4 -6 -16 -18t-26 -25t-26 -26t-18 -19q-4 -4 -18 -13t-16 -13h-26h-26l128 132h52zM208 1396v-26v-22t-10 -20l-110 -112h-12 v52zM208 1508v-52l-132 -128v52zM208 1628v-52l-132 -130v54z" />
<glyph unicode="[" horiz-adv-x="880" d="M300 -244q4 -2 16 -4t16 -6l-128 -128h-50l138 138h2h6zM464 -244l-132 -130q-4 -6 -18 -7t-22 -1h-18l128 128zM582 -236l-8 -18l-110 -110h-62l120 120q8 10 18 9t20 -1h22zM710 -228l-128 -128q-6 -6 -21 -7t-25 -1h-14l128 128l16 4q20 4 28 4h8h8zM110 -312l138 136 l18 -34l-138 -138h-6q-8 0 -10 10t-2 18v8zM230 -74h16q0 -22 -4 -36t-20 -30q-12 -12 -31 -32t-37 -38l-31 -31l-13 -13h-8v52zM230 38q8 -8 9 -15t1 -15v-14l-138 -134v50zM230 158v-50l-128 -132v54zM230 268v-50l-128 -128v50zM222 382v-62l-128 -128v58zM222 492v-52 l-128 -128l-10 44zM216 604q4 -8 5 -16t1 -18v-10l-138 -138v52zM216 714v-50l-132 -128v50zM216 834v-26q0 -18 -1 -26t-17 -24q-6 -6 -23 -22t-35 -34l-34 -34l-22 -22v60zM216 944v-50l-132 -128v50zM216 1064v-50l-132 -128v50zM216 1178v-52l-132 -130v54zM216 1298 v-28q0 -20 -1 -27t-17 -25q-6 -6 -23 -21t-35 -33l-34 -34l-22 -22v60zM216 1408v-52l-132 -128v52zM216 1528v-50l-132 -128v50zM222 1648v-4v-6q-2 -10 -4 -29t-2 -21l-122 -122h-10v44zM216 1758v-24q0 -20 -1 -28t-17 -24q-6 -6 -23 -22t-35 -34t-34 -33t-22 -21v58z M204 1862q4 -4 6 -17t6 -17v-6v-2l-140 -138v52z" />
<glyph unicode="\" horiz-adv-x="1036" d="M588 -36q20 0 36 -10l-128 -128h-50l136 138h6zM744 -36l-130 -130h-50l120 120q8 8 21 9t23 1h16zM880 -20l-128 -128q-8 -8 -18 -9t-20 -1q-2 0 -10 1t-12 1l130 128zM418 -80l138 136q10 -16 10 -32q0 -12 -4 -18t-14 -16l-31 -31l-37 -37l-31 -31l-13 -13h-8 q-4 0 -6 12t-4 20v6v4zM392 6l138 138q4 -10 7 -18t3 -18q0 -2 -1 -3t-1 -3v-2l-128 -128h-6q-8 0 -10 10t-2 16v8zM366 100l136 136l10 -42l-136 -138q-8 8 -9 16t-1 18v10zM340 184l138 138q10 -20 10 -36q0 -2 -1 -2t-1 -2v-2l-128 -128h-4q-8 0 -11 9t-3 15v8zM314 280 l140 138l7 -21t3 -21q0 -2 -1 -3t-1 -3q-2 -2 -2 -4l-128 -128l-4 -2q-10 0 -12 14t-2 24v6zM290 366l138 136q6 -8 7 -14t1 -16v-14l-128 -128h-6h-2q-4 2 -6 12t-4 14v4v6zM264 458l138 138q6 -8 7 -15t1 -15v-14l-128 -128h-6h-2q-2 4 -5 13t-5 13v6v2zM238 546l138 134 q8 -16 8 -34v-6l-128 -128l-2 -2h-4l-2 2q-2 0 -5 10t-5 16v4v4zM220 644q0 2 2 4l128 128h10v-29t-10 -31l-112 -112h-2q-12 0 -14 13t-2 21v6zM340 878q8 -8 9 -14t1 -16v-10l-138 -140v52zM198 844q0 4 2 10t4 8l128 128l8 -42l-136 -136q-2 4 -4 16t-2 16zM308 1076 q6 0 6 -8l4 -8l4 -8q2 -6 4 -10l-140 -138q-6 6 -6 10q-4 4 -8 13t-4 13zM154 1034q0 2 2 8t6 8l128 128q0 -2 1 -12t1 -14v-21t-10 -19l-102 -104l-18 -10q-4 4 -6 18t-2 18zM144 1144l138 138v-54l-128 -128q-2 4 -5 18t-5 18v6v2zM118 1240l138 134q10 -12 10 -30 q0 -2 -1 -3t-1 -3v-4l-128 -130q-18 10 -18 32v4zM230 1462q4 -10 7 -18t3 -18q0 -2 -1 -2t-1 -2v-4l-136 -136v52zM74 1422q0 2 2 4l136 138q8 -12 9 -19t1 -19v-14l-22 -22l-34 -34l-34 -34l-22 -22q-2 -2 -12 -9t-14 -7q-4 10 -7 17t-3 17v4zM58 1506l140 134q6 -6 6 -16 t-6 -16l-132 -130q0 2 -4 8t-4 10v4v6z" />
<glyph unicode="]" horiz-adv-x="872" d="M128 -364l138 136q0 2 11 -5t15 -11v-4v-6l-128 -128h-12q-6 0 -15 2t-9 12v4zM412 -254l-22 -22l-34 -34t-34 -33t-22 -21q-16 -16 -23 -18t-29 -2q-2 0 -12 1t-14 1l128 128h62zM532 -244l-120 -120q-10 -10 -19 -10h-19h-24l132 130h50zM650 -236l-128 -128h-50 l128 128h50zM744 -236l-128 -128h-24l128 128h24zM102 -272l138 138v-50l-128 -128q-10 14 -10 32v8zM232 -30v-52l-130 -128v52zM232 30l-12 -13t-29 -29t-34 -33l-29 -29q-2 -2 -12 -9t-14 -7v2v6q2 8 5 24t5 20q0 2 3 8t5 6l112 114v-60zM394 312l-136 -138v6v4 q4 12 6 30t2 22l128 128v-52zM402 210q0 -2 -6 -5l-10 -5q-4 0 -19 -3t-23 -5h-6h-2l66 70v-52zM394 432l-128 -128v22v20t8 18l120 120v-52zM402 604q0 -4 1 -11t1 -11q0 -10 -1 -20t-9 -20l-120 -120v52zM402 722q0 -2 1 -12t1 -14q0 -20 -2 -27t-16 -23q-12 -12 -29 -30 t-33 -34l-40 -40h-10v52zM394 826l8 -42l-136 -138v50zM386 936h8v-42l-136 -136v50zM248 886q2 8 5 21t5 13l118 120q8 -8 9 -16t1 -16v-12l-128 -128l-10 10v2v6zM386 1168v-26q0 -20 -1 -27t-17 -25l-110 -110l-10 52zM376 1270v-52l-128 -128v52zM376 1390q2 0 6 -6 t4 -10t-4 -18t-6 -18l-128 -128v52zM368 1492v-50l-128 -128v50zM318 1562q10 10 26 10q4 0 10 -2t6 -10v-6q-2 -4 -8 -14t-8 -12l-22 -22l-34 -34l-34 -34l-22 -22q-10 6 -21 10t-21 8zM222 1580h6h4q4 0 17 -4t17 -4l-128 -130q-2 0 -9 -4t-9 -4h-4h-4q-4 0 -13 4t-11 4z M198 1624l-128 -132v24q0 10 -1 20t7 18l122 120v-50zM208 1792v-52l-132 -128v52z" />
<glyph unicode="^" horiz-adv-x="632" d="M266 698h52l-128 -130q-8 -6 -16 -7t-16 -1h-12t-10 8zM394 706q4 0 21 -4t23 -4l-22 -22l-34 -34l-34 -34l-22 -22q-16 -16 -24 -17t-28 -1h-26l136 138h6h4zM52 604l138 136l26 -26l-140 -136l-4 -2l-2 2q-4 0 -10 7t-8 9v6v4zM548 714l-136 -128h-28l130 128h34z M240 904q-2 -6 -8 -21t-14 -32t-16 -31t-12 -18q-6 -6 -18 -19t-25 -26t-26 -25t-19 -18q6 20 13 46t21 42z" />
<glyph unicode="_" horiz-adv-x="1012" d="M292 -104h40v-12l-128 -128h-10q-10 0 -17 1t-15 7zM454 -104l-8 -18q-2 -2 -14 -15t-28 -30t-33 -33t-27 -26q-18 -16 -25 -18t-27 -2q-4 0 -14 1t-12 1l128 128zM566 -116l-130 -128h-52l130 128h52zM632 -104h52l-136 -140h-44v8zM804 -104l-128 -132q-8 -8 -18 -8 h-20h-22l136 140h52zM880 -104l-118 -122q-2 -2 -8 -4t-10 -6h-4h-2l128 132h14zM76 -200l140 136l24 -26l-138 -136q0 -2 -8 -2q-18 0 -18 24v4zM204 38v-50l-128 -128v50zM204 158v-58l-128 -128v58z" />
<glyph unicode="`" horiz-adv-x="520" d="M356 1462v-10q0 -2 -10 -12l-24 -24t-29 -28t-23 -22q-18 -16 -44 -29t-54 -13h-6l140 138h50zM244 1512q18 -14 18 -30v-6l-138 -134l-16 32zM72 1462l138 136l18 -34l-138 -138h-6h-2q-2 2 -5 12t-5 14v4v6zM38 1538l140 136l14 -34l-136 -138h-4h-6q0 2 -2 12t-6 14v6 v4zM24 1596l140 142l8 -26l-136 -138h-4h-6q0 2 1 5t-3 7v6v4z" />
<glyph unicode="a" horiz-adv-x="1670" d="M1328 -52l-130 -130q-8 -8 -17 -8h-21h-20l138 138h50zM1172 -36l42 -18l-118 -118q-10 -10 -30 -11t-30 -1v12zM1438 -52l-128 -130h-50l120 120q8 10 17 10h21h20zM884 -36l-140 -136h-50l138 136h52zM720 -26h12q22 0 38 -10q-6 -6 -21 -22t-33 -33t-34 -33l-22 -22 q-16 -16 -31 -19t-37 -3v12zM972 -34q4 0 11 -1t11 -1l-104 -102q-10 -10 -32 -18t-36 -8h-8l120 120q8 8 18 9t20 1zM624 -10l44 -8l-128 -128q-8 -8 -14 -9t-16 -1q-6 0 -12 1t-10 9zM540 26h8q6 0 17 -2t11 -12q0 -2 -2 -4l-136 -138l-36 18zM1158 8l-128 -128h-12 q0 42 28 72t60 56q2 2 19 12t21 14q4 0 6 1t6 1v-28zM336 -70l136 136l34 -14l-138 -140h-8q-4 0 -16 2t-12 12zM258 -26l136 136h6q20 0 20 -26v-8l-22 -22t-33 -34t-33 -34l-22 -22q-4 -4 -14 -10t-12 -6t-12 6t-14 10l-2 6zM204 26l2 4q0 2 2 4l136 134q16 -6 16 -24v-8 l-138 -136q-18 8 -18 26zM284 230h2h6q2 -2 9 -8t9 -10v-2v-6l-138 -138l-26 26zM110 166q0 2 2 2l136 140q10 -18 10 -36v-8l-130 -128h-2q-10 0 -13 10t-3 16v4zM88 264l128 128l4 2l2 -2q4 0 6 -10t4 -16v-2v-6q-2 -4 -8 -13t-8 -13q-12 -10 -29 -27t-33 -34t-28 -29 t-14 -12l-18 -8q-4 10 -7 18t-3 18zM208 496q0 -4 4 -18t4 -18v-4v-2l-140 -140v52zM1158 522v-4v-6q-18 -40 -43 -78t-71 -50v26zM208 606v-42l-138 -136v20q0 12 -1 21t7 17l122 120h10zM1182 614l-128 -128q0 4 -1 12t-1 12q0 10 1 19t9 19l120 118v-52zM208 676 l-132 -128v20q0 10 1 20t11 18l120 122v-52zM1036 632l136 138q10 -2 10 -13v-15v-14l-128 -128q-18 8 -18 30v2zM1132 848q18 -10 18 -26q0 -12 -10 -26q-6 -6 -21 -22t-31 -32t-31 -30t-21 -20q-2 -4 -11 -10t-13 -6l-18 34zM240 880q-2 -8 -8 -30t-10 -28q-2 -4 -2 -8 t-2 -8q-2 -6 -2 -10l-104 -104h-10q2 4 9 26t9 26q2 6 9 19t9 15zM1080 906h2q24 0 24 -18v-8l-138 -136l-26 26zM1012 958h4h2q4 -4 14 -9t12 -9l-136 -136l-6 -2q-18 0 -30 20zM924 984l44 -12l-136 -134h-16h-14t-14 10zM858 976l-114 -114q-4 -4 -21 -9t-21 -5v2v6 q2 4 8 13t10 11q6 6 17 18t23 24l22 22l14 14q24 18 48 18h14z" />
<glyph unicode="b" horiz-adv-x="1704" d="M548 -52l-128 -130q-12 0 -20 -2q-10 -2 -18 -3t-14 -3h-4h-6l138 138h52zM282 -36l44 -8l-140 -138h-10q-10 0 -16 1t-14 9zM394 -44q4 0 17 -2t17 -6l-128 -130h-52l128 130q2 4 9 6t9 2zM668 -44q-2 -2 -5 -8l-5 -10l-16 -16t-25 -26t-25 -26t-18 -16q-8 -8 -24 -21 t-20 -15h-26h-26l128 130q4 0 19 3l25 5h8h10zM1012 -44v-8l-132 -130h-50l138 138h44zM1128 -44q0 -2 -2 -8t-4 -10q-18 -18 -36 -39t-39 -39t-45 -30t-52 -12h-8l128 130l20 4q8 2 17 2t15 2h4h2zM738 -156l128 130h4q20 0 36 -10l-136 -136q0 -2 -2 -2h-6q-4 0 -16 3 t-12 13zM84 -112l138 138q4 -4 10 -18t8 -18v-2v-6l-130 -128q0 -2 -8 -2q-10 0 -14 11t-4 21v4zM796 16l2 2q10 0 19 -6t13 -12l-136 -138h-6q-16 0 -30 18zM1274 0q-28 -34 -73 -74t-87 -56l102 104q2 2 6 4t6 2t6 2t20 9t20 9zM76 -10l140 138v-52l-132 -128q-6 10 -7 16 t-1 16v10zM762 58q6 0 6 -9t-6 -9q-8 0 -8 9t8 9zM204 186l-128 -128v22v20t8 18l120 120v-52zM216 358v-50l-132 -128v50zM216 454q0 -22 -1 -29t-17 -23q-6 -6 -18 -19t-25 -26t-26 -25t-19 -18q-2 -2 -12 -8t-14 -6v20v20t10 18l122 120v-24zM1146 486q-10 -20 -32 -45 t-44 -31zM222 600v-24q0 -10 1 -19t-7 -19l-122 -120v54zM1206 658q0 -2 1 -10t1 -10q0 -12 -1 -21t-9 -17l-120 -122v52zM222 666l-128 -128q0 4 -1 11t-1 11q0 10 1 20t9 20l120 120v-54zM1198 770h8v-42l-128 -128q-2 0 -4 2l-4 4q-2 6 -6 16t-2 10zM230 838q0 -4 1 -11 t1 -11q0 -10 -1 -20t-9 -18l-120 -120v52zM1154 838h2q2 0 2 1t2 1q10 0 11 -9t1 -17v-10l-128 -128l-4 -2l-4 2q-4 4 -12 13t-6 13zM958 760l130 128h4q2 0 2 1t2 1q8 0 18 -3t10 -15q0 -2 -1 -4t-1 -6q-6 -6 -22 -21t-34 -33t-33 -34t-21 -22q-4 -4 -14 -9t-12 -9 q-2 0 -9 4t-9 6q-2 0 -5 3l-5 5v6v2zM230 958h16q0 -24 -4 -38t-20 -32l-31 -31t-37 -36t-31 -30l-13 -13h-8v52zM1018 932h4q22 0 30 -18l-136 -136h-4q-18 0 -32 18zM890 924l8 4l8 4q4 0 20 4t24 4h4h4l-136 -136h-44v8zM240 1078v-52l-138 -138v52zM240 1188v-42 l-130 -128h-10q0 10 1 26t9 26l120 118h10zM230 1300v-50l-128 -128v50zM230 1420q0 -4 1 -13t1 -11v-23t-10 -21l-112 -110h-8v50zM230 1530v-50l-128 -128v50zM230 1626v-26l-128 -128v26z" />
<glyph unicode="c" horiz-adv-x="1626" d="M858 -52h50l-138 -138h-40v8zM968 -52h50v-10l-110 -110q-2 -2 -8 -5l-10 -5q-4 0 -24 -4t-26 -4v8zM756 -36l4 2q12 0 19 -3t17 -7l-136 -138h-4h-6q-4 2 -17 5t-17 5zM1146 -44l-110 -112q-10 -10 -26 -14t-30 -4h-6h-4q-2 0 -2 2l128 128h50zM668 -10h4q2 0 2 1t2 1 q10 0 18 -3t18 -7l-138 -138h-6q-12 0 -19 2t-17 8zM584 26h2q8 0 17 -5t13 -13l-7 -14t-9 -12l-22 -22l-34 -34l-34 -34l-22 -22h-6q-22 0 -36 18zM1278 0l-18 -18l-18 -18q-4 -2 -12 -9t-17 -16t-18 -17t-13 -10q-4 -4 -18 -13t-18 -11h-2h-4l94 94zM376 -70l138 136 q0 4 7 0t11 -8l8 -6v-6v-6l-128 -128h-8q-8 0 -18 2t-10 12v4zM308 -20l2 2l136 136q2 2 12 -5t14 -11l2 -4l-2 -6l-136 -136h-6h-4q-4 4 -10 9t-6 9l-2 2v4zM248 34l138 134l4 4l2 -2q0 -2 2 -2t9 -6t9 -8v-6v-4l-138 -136h-2h-6q-2 2 -9 8t-9 10v2v6zM326 230h4h6l8 -8 t6 -10l4 -2q0 -2 -1 -2t-1 -2l-2 -2q-2 -4 -7 -13t-7 -11q-6 -6 -21 -22t-31 -32t-31 -30t-21 -20q-6 -10 -16 -10q-4 4 -14 13t-12 13zM284 300h2h6q4 -4 12 -16q4 -6 6 -10l-138 -138h-6h-2q-2 0 -5 4t-5 4q-2 2 -2 4t-2 6l-4 8zM102 238l138 138q8 -4 8 -10q4 -4 7 -13 t3 -13l-138 -136q-8 4 -13 14t-5 18v2zM76 326l132 128h2h6q0 -4 3 -13t3 -13v-6v-4l-134 -136q-10 2 -11 13t-1 15v16zM198 564q4 -4 7 -21t3 -21q-4 -2 -14 -16t-14 -20q-10 -12 -27 -29t-34 -33t-29 -28t-14 -12h-6v52zM198 624l-128 -128v8v8q0 6 4 26q2 8 2 18l132 128 zM222 816v-4q0 -10 -3 -30t-3 -22l-122 -120v12q0 12 1 28t7 22l120 120v-6zM1304 830l-21 -21l-31 -31t-32 -30t-22 -20q-4 -4 -20 -15t-26 -11h-6l132 128h26zM1190 862l2 4q10 0 19 -6t15 -12l-138 -138h-2q-24 0 -32 18zM1114 898h8q18 0 36 -10l-140 -136h-4 q-12 0 -19 2t-17 6zM1012 914h6q2 0 4 1t4 1q10 0 19 -1t17 -9l-128 -128h-50v8zM898 914q14 8 22 9t22 1h18l-128 -128l-36 -10v10q0 10 4 17t14 17q4 4 16 17t26 26t26 25zM266 970v-2q-2 -6 -8 -26t-10 -28l-4 -8l-4 -8l-102 -102l-2 2v4l2 2q2 8 16 33t18 35 q16 30 44 56t50 48v-6z" />
<glyph unicode="d" horiz-adv-x="1618" d="M692 -52v-10l-128 -128h-52l138 138h42zM804 -62l-128 -128h-52l128 128h52zM932 -52l-120 -120q0 -2 -7 -5t-9 -5q-6 0 -26 -4t-26 -4l128 128q6 8 20 9t22 1h18zM1128 -36h2q2 0 2 1t2 1l2 -2q4 0 10 -6t8 -10v-4v-6l-128 -128q-2 -2 -4 -2h-8h-8q-4 0 -6 2q-4 4 -7 10 t1 8zM1268 -62l-132 -128h-50l130 128h52zM548 -36l4 2q12 0 19 -3t17 -7l-6 -18l-110 -110q-4 -2 -9 -5t-9 -5h-6h-2q-6 2 -19 5t-17 5zM1396 -52l-128 -130h-52l128 130h52zM472 0h2q8 0 17 -5t13 -13l-138 -138h-2q-8 0 -18 5t-14 13zM1096 0q-2 -2 -5 -9t-5 -9 q-4 -4 -16 -17t-26 -26t-26 -26t-18 -17q-2 -4 -8 -6t-8 -2q-8 0 -8 8l-70 -34l102 102q16 16 42 23t46 13zM264 -88l128 128l8 4q16 0 28 -18l-138 -138q-4 0 -8 2q-8 4 -8 6q-2 2 -5 4t-5 6v2v4zM204 -36l136 138l26 -26l-136 -138h-4h-4q-4 4 -9 10t-9 8v6v2zM162 40 l128 128l4 4q10 0 12 -10t2 -18q0 -6 -1 -13t-7 -13l-114 -110h-6q-12 0 -15 6t-3 16v10zM256 248q18 -14 18 -30v-6l-138 -136q-8 0 -8 8q-4 4 -8 16q-2 6 -2 10zM84 198l138 134l16 -32l-136 -138h-4h-6q0 2 -2 11t-6 13v6v6zM198 418h6v-42l-128 -128l-18 34zM186 530h14 q0 -8 -2 -31t-12 -27l-128 -132v62zM1104 522v-4q0 -12 -11 -27t-27 -30t-32 -27t-26 -16v10zM186 640v-52l-128 -128v52zM1154 684v-8q0 -14 -3 -32t-15 -30l-110 -110v52zM198 720l-132 -132v24v19t10 19l122 120v-50zM1018 666l136 138q4 -4 6 -17t2 -17v-4v-6l-136 -136 q-2 4 -5 17t-3 17v6v2zM966 726q0 2 2 2l136 134q2 0 2 2l2 2l4 -4q4 0 9 -6t7 -8v-6v-4l-134 -136l-6 -4l-4 4q-4 0 -10 7t-6 11l-2 2v4zM222 906q-2 -6 -4 -22t-6 -22q0 -4 -4 -13t-4 -11l-120 -118v2v6q4 12 10 35t8 23zM1034 914h2l4 2l4 -2l14 -7t12 -9v-4v-6l-22 -22 t-34 -33t-34 -33l-22 -22q-10 -10 -17 -14t-17 -4t-16 3t-10 15zM940 932h54l-138 -136l-44 8zM830 940h2q2 0 3 1t3 1q10 0 17 -3t17 -7l-128 -128h-42v8zM274 1072q0 -22 -14 -51t-30 -45q-4 -6 -16 -19t-26 -26t-26 -25l-18 -18v10q8 18 16 34q6 14 14 28t12 24 q16 26 41 50t47 44v-6zM1086 1308l42 44q4 -4 6 -17t2 -17v-4q0 -10 -7 -17t-15 -7t-18 3t-10 13v2zM1128 1472v-62q-12 -14 -22 -24t-20 -19t-16 -15q-8 -6 -21 -16t-15 -10q-4 0 -17 6t-17 12zM1128 1582v-52l-128 -128v52z" />
<glyph unicode="e" horiz-adv-x="1626" d="M866 -76h50l-128 -132q-10 -8 -25 -9t-25 -1v10zM756 -70h50l-138 -138h-44v10zM1036 -76q-6 -6 -21 -23t-33 -35t-35 -34t-23 -22q-16 -16 -23 -17t-29 -1h-24l130 132h58zM1164 -62l-110 -110q-2 -2 -8 -5l-10 -5t-28 -7t-30 -9l118 122q2 0 9 3t9 3t18 4t26 4h2h4z M668 -44l42 -10l-136 -136q-4 -2 -6 -2h-8q-6 0 -15 1t-13 9zM446 -146l138 136l32 -16v-10q-20 -22 -42 -44l-37 -37t-31 -29q-10 -12 -16 -15t-16 -3q-8 0 -18 1t-10 11v6zM514 34h6h2q4 -4 10 -9t8 -9v-4v-4l-128 -128l-8 -2q-18 0 -28 18zM446 84l2 2q2 0 3 1t3 1 q16 0 28 -22l-138 -136h-4q-22 0 -30 18zM386 136h4h4q2 -2 9 -8t9 -10v-2v-6l-128 -128h-8q-16 0 -28 18zM198 66l138 138q18 -10 18 -32q0 -2 -1 -3t-1 -3q-2 -2 -2 -4q-6 -6 -21 -22t-33 -34t-34 -33t-22 -21q-2 -4 -11 -10t-13 -8q-10 4 -14 13t-4 17v2zM284 264l2 2 q2 0 2 -1t2 -1h2l4 -4l4 -4q4 -4 7 -10t3 -8l-138 -136q0 -2 -2 -2h-4l-2 2q-2 0 -5 3l-5 5l-5 10t-3 8zM110 210q0 2 2 2l128 128l2 2q2 0 2 1t2 1q8 0 10 -12t2 -18v-6l-130 -128h-2q-10 0 -13 10t-3 14v6zM84 292l2 4q0 2 2 4l134 136v-52l-128 -128q-4 10 -7 18t-3 18z M890 478l-128 -128h-50l128 128h50zM1012 486v-8l-122 -120q-8 -8 -18 -9t-20 -1q-2 0 -10 1t-10 1l136 136h44zM1080 486h6q2 0 4 1t4 1q8 0 19 -2t11 -12l-2 -2l-110 -114q-10 -8 -16 -9t-16 -1q-8 0 -15 1t-15 9zM1252 486q-6 -6 -21 -20t-31 -30t-32 -31t-22 -21 q-14 -12 -34 -24t-36 -12q-4 0 -8 1t-6 1l136 136h54zM208 538q2 -4 5 -21t3 -21q0 -2 -7 -11t-11 -13q-12 -14 -31 -33l-37 -37q-22 -22 -42 -44h-12v52zM730 478h50l-94 -94l-26 26zM1438 496h26v-10l-76 -76h-4h-4q-2 0 -9 4t-9 4zM668 486q-2 -10 -13 -19t-21 -13 q-10 16 -10 32h44zM1286 460q2 6 11 16t13 10q0 2 10 2h16h14t12 -2q-4 -4 -17 -16t-17 -16h-4h-6q-4 0 -16 3t-16 3zM198 640v-52l-128 -128v52zM222 784v-6q0 -4 -2 -17t-4 -17q-4 -8 -6 -14t-2 -10l-114 -114v6q0 14 8 38t18 34l102 102v-2zM274 950q-2 -8 -7 -31t-9 -31 q-2 -2 -5 -9t-5 -7l-110 -112q6 24 15 50t27 46l19 19l28 28t29 28t18 19zM890 942l-84 -86h-44v6q0 2 6 9t14 15t17 16t15 12q12 10 34 19t38 9h4zM978 950q4 0 17 -4t17 -4l-88 -86h-52l96 94h4h6zM1054 924h8q6 0 16 -2t10 -10q0 -18 -10 -29t-25 -18t-31 -9t-28 0v6z M1140 880l8 -8l10 -10h-44q4 14 18 18h2h6z" />
<glyph unicode="f" horiz-adv-x="1146" d="M556 -52h8q14 0 36 -6l-12 -18l-110 -114q-6 -8 -24 -8q-10 0 -18 2t-18 6zM486 -58l-128 -132h-50l128 132h50zM720 -58l-132 -132h-50l128 132h54zM376 0l16 -34l-136 -138h-8v44zM248 -18l136 138v-18q0 -10 -1 -22t-7 -22l-120 -116q-2 4 -5 16t-3 16v6v2zM376 230 v-26v-21t-10 -21l-110 -110h-8v50zM366 332v-50l-128 -128v50zM366 446v-44l-128 -128h-10q0 10 1 26t9 26l120 120h8zM358 556v-52l-128 -128v52zM358 676q0 -2 1 -12t1 -14q0 -20 -2 -27t-18 -23q-6 -6 -21 -22t-33 -34l-34 -34l-22 -22v60zM358 788v-50l-128 -132v52z M326 872h32v-16l-136 -136l-24 24zM264 872l-136 -134h-52l136 134h52zM186 968q10 -8 11 -15t1 -17q0 -8 -1 -15t-11 -15l-128 -128v62zM186 1078v-52l-128 -128v52zM186 1172v-26l-128 -128v26zM366 1378h10v-42l-76 -76h-44v8zM962 1344q-2 -2 -2 -4t-2 -4 q-18 -22 -32 -33t-40 -11h-24l52 52h48zM822 1318q-2 0 -2 2v4q0 10 13 18t23 10zM392 1516q0 -4 1 -7t1 -7q0 -14 -4 -30t-14 -26l-112 -110v2v6q6 16 18 43t26 41q4 6 16 19t25 26l25 25z" />
<glyph unicode="g" horiz-adv-x="1688" d="M898 -478l-128 -132q-8 -8 -17 -7t-21 1h-20l136 138h50zM1012 -478l-128 -132q-4 0 -19 -2t-25 -4h-8h-10l128 128q10 10 20 10h20h22zM738 -472h50v-6q0 -2 -12 -15t-30 -31l-37 -37t-33 -31q-2 -2 -12 -8t-14 -10h-2h-6q-4 4 -16 6t-16 4zM1146 -464l-110 -110 q-10 -10 -34 -18t-40 -8h-2l128 128l20 4q20 4 32 4h4h2zM650 -446h8q18 0 36 -8l-136 -138h-8q-10 0 -18 2t-18 6zM428 -548l130 128h10q10 0 16 -1t16 -7l-136 -138h-4h-4q-6 2 -16 5t-12 3v6v4zM350 -514l138 138q4 0 13 -6t13 -12v-6v-2l-128 -130h-8q-8 0 -18 2t-10 10 v6zM412 -336q2 0 4 2q2 0 2 1t2 1q20 0 26 -18q0 -4 -3 -10t-5 -8l-112 -110q0 -4 -7 -6t-9 -4h-6q-18 0 -30 16zM222 -412l138 138l26 -26l-138 -138h-2h-6q-2 2 -8 9t-10 9v6v2zM300 -216l4 4l6 -4q2 0 9 -6t7 -8l2 -6q0 -2 -2 -4l-136 -136q0 -2 -2 -2h-4l-4 2q-2 0 -4 2 q-4 4 -4 6q-4 4 -7 9t-1 9zM136 -270q0 2 2 4l128 128h2l4 2l2 -2q2 0 5 -10t5 -16v-4v-4l-138 -138q-10 12 -10 34v6zM110 -186q0 2 2 6l128 128h6h2q4 -4 7 -13t3 -11q-2 -4 -8 -13t-10 -13q-6 -6 -21 -23t-33 -35t-35 -34t-23 -22h-2q-12 0 -14 9t-2 15v6zM866 0h50 l-120 -120q-4 -2 -6 -2h-6q-6 0 -16 1t-12 9zM1044 16l-120 -118q-6 -6 -21 -8t-25 -2h-12l120 120q6 6 21 7t25 1h12zM1140 44h18q0 -8 -3 -24t-9 -20l-110 -112v50zM712 -36q4 8 17 21l15 15q4 0 13 1t13 1t14 -1t12 -1q-2 -10 -10 -22t-19 -22t-23 -18t-20 -8 q-10 0 -11 10t-1 16v8zM674 16h2q2 0 9 -3t9 -5l-8 -8l-18 16h6zM368 198q18 -10 18 -30v-6l-138 -136l-26 26zM574 52q4 0 13 -4t13 -4q-4 -4 -17 -6t-17 -4h-10q0 4 3 11t11 7h4zM422 138q10 0 19 -6t15 -12q-18 -34 -43 -57t-63 -23q-2 0 -11 2t-13 2l94 92zM506 94 q4 -2 13 -8t13 -10q-2 -4 -16 -17t-20 -15q0 -4 -10 -4h-14h-14t-12 4l50 50h6h4zM172 120l138 136l26 -26l-146 -146q-18 14 -18 32v4zM136 194q0 2 2 4l128 128h6q8 0 10 -10t2 -16v-8l-130 -130h-2q-10 0 -13 10t-3 18v4zM102 282l130 128l4 2q10 0 12 -10t2 -18 q0 -16 -10 -26l-112 -110l-16 -10q-8 8 -9 16t-1 18v10zM216 504q10 -16 10 -30q0 -4 -1 -6t-1 -4q-2 -2 -2 -4l-128 -128h-6v44zM208 616v-50l-132 -130v50zM1122 486q0 -6 -10 -16t-16 -10q-4 0 0 5t10 11t11 9t5 1zM1164 650h8l-8 -50l-128 -128v50zM70 574q0 4 4 16 q2 6 2 10l132 128v-52l-132 -128q-6 2 -6 16v10zM1158 752q4 -8 5 -15t1 -15v-12l-134 -134l-12 40zM994 710l128 130h4q8 0 14 -10t6 -16q0 -2 -2 -9t-4 -9l-128 -128q-18 12 -18 34v8zM232 868v-2q0 -4 -4 -13t-8 -20t-7 -22t-5 -15q-4 -4 -6 -11t-4 -7l-24 -24t-27 -28 t-23 -23t-12 -9h-10v8q2 6 9 25t9 25l5 10t3 8l104 102v-4zM1080 906l2 2q2 0 2 -1t2 -1h2q2 0 9 -6t9 -10v-4v-6l-138 -136l-26 26zM1004 950h2h6q4 -2 13 -5t11 -3v-6v-4l-138 -136l-32 18zM942 950l-128 -128h-52l128 128h52zM274 994q0 -6 -6 -19t-10 -17q-4 -6 -17 -18 t-26 -25t-26 -25t-17 -18q4 14 16 29t20 23q2 4 12 14t20 21t20 21z" />
<glyph unicode="h" horiz-adv-x="1490" d="M326 -66l-128 -132q-4 0 -22 -2t-30 -4h-6h-4l138 138h52zM1088 -58h2h6q4 -2 10 -3t10 -3q6 -2 12 -2v-10q0 -2 -12 -15t-30 -30t-37 -35t-31 -30q-4 -4 -13 -11t-11 -7q-6 0 -23 2t-21 4zM1198 -66h52l-128 -132q-4 0 -9 -2t-9 -4h-4h-4q-4 0 -14 3t-12 3zM436 -66 l-128 -132h-52l128 132h52zM548 -66l-120 -120q-8 -10 -16 -11t-18 -1h-18l128 132h44zM1352 -66q-6 -6 -21 -23t-33 -35l-34 -34l-22 -22q-14 -14 -21 -16t-23 -2h-18l130 132h42zM74 -152q0 2 2 6l128 130q18 -16 18 -36v-6l-128 -128l-2 -2q0 -2 -2 -2q-12 0 -14 12 t-2 20v6zM1026 -58l-128 -128h-50l146 146zM976 10l-128 -130v22q0 10 -1 20t9 20l120 120v-52zM204 94v-50l-128 -128v50zM986 182v-24v-20t-10 -18l-120 -120v52zM204 164l-128 -128v20v20t8 18l120 122v-52zM994 300q0 -6 -4 -26t-4 -26q-2 -2 -5 -9t-5 -7l-110 -112h-10 v8q2 12 4 33t6 21l120 118h8zM216 336v-24q0 -10 -1 -19t-11 -19l-120 -120v54zM994 368l-122 -120h-10q0 10 3 29t7 23l128 128zM222 464v-26q0 -22 -1 -29t-17 -23q-6 -6 -21 -22t-33 -34l-34 -34l-22 -22v62zM1000 548v-52l-128 -128v52zM216 566v-52l-132 -128v52z M1000 660v-50l-128 -128v50zM216 686v-52l-132 -128v52zM848 624l138 138q8 -8 8 -16v-18v-16l-128 -128q-10 4 -14 16t-4 22v2zM216 796v-52l-132 -128v52zM950 840h4q10 0 12 -10t2 -16v-8l-128 -130h-6h-4q-4 6 -11 16t-5 12zM216 916v-26q0 -10 -1 -21t-11 -21 l-110 -110h-10v50zM872 884h16q4 0 15 -1t13 -11l-138 -134h-2h-6q-4 2 -13 8t-13 10zM216 1030v-52l-132 -130v50zM216 1146v-50l-132 -128v50zM222 1268v-16q0 -10 -1 -23t-5 -21l-122 -120v52zM222 1388v-60l-128 -130v62zM230 1508q0 -2 1 -9t1 -9q0 -8 -1 -22t-9 -22 l-120 -118v52zM230 1628v-52l-128 -130v54z" />
<glyph unicode="i" horiz-adv-x="770" d="M310 -26h50v-10l-13 -13l-31 -31t-37 -36t-31 -30q-16 -16 -30 -19t-38 -3v12zM482 -26l-132 -130q-8 -8 -17 -8h-21h-20l136 138h54zM592 -26l-136 -138h-54l130 128q8 10 18 10h20h22zM110 -116q0 2 2 4l128 128h2q2 0 2 1t2 1l2 -2q6 -4 12 -14t6 -12l-138 -136l-2 -2 q-10 0 -13 8t-3 18v6zM232 128h8v-44l-128 -128h-10v44zM232 238v-52l-130 -128v52zM232 358v-26v-21t-10 -21l-110 -110h-10v50zM232 468v-50l-130 -128h-8v42zM222 582v-52l-128 -128v52zM222 692v-52l-128 -128v52zM222 812v-60l-128 -128v60zM222 924v-52l-134 -138v52z M216 984l-128 -128v4v2q0 6 1 14t3 18q2 8 2 20l122 120v-50zM222 1154v-50l-128 -128v50zM154 1206l130 128h4q2 0 2 1t2 1q10 0 17 -3t17 -7l-8 -18l-110 -110q-10 -10 -28 -10q-6 0 -16 2t-10 10v6zM94 1256l138 140l26 -26l-138 -138q0 -2 -2 -2q-2 -2 -6 -2 q-10 0 -14 8t-4 18v2zM384 1300q4 0 15 1t13 -9q-2 -4 -16 -18t-20 -18q-4 -2 -10 -2h-16q-2 0 -11 1t-13 1q4 10 20 25t22 19h16zM514 1300q-4 -6 -19 -23t-23 -21h-16h-18q26 50 76 44zM198 1480q8 -8 9 -15t1 -17v-12l-138 -136v52zM198 1542l-128 -132v14q0 34 24 64 q6 6 20 21t30 32t32 31t22 20v-50z" />
<glyph unicode="j" horiz-adv-x="762" d="M110 -472l44 -6l-128 -132q-2 0 -8 -2t-10 -4h-6h-2q-4 0 -14 3t-12 3zM264 -478l-8 -18l-112 -114q-8 -8 -20 -7t-22 1h-26l128 128q10 10 20 10h20h20zM16 -446h8q8 0 18 -1t10 -11v-6l-132 -128h-10q-10 0 -16 1t-14 7zM410 -454l-19 -19l-28 -28l-29 -29t-20 -18 q-6 -6 -18 -14t-25 -14t-26 -11t-19 -5h-4l118 120q4 0 26 7t36 11h2h6zM-164 -514l138 138q8 -18 8 -36v-8l-138 -138q-8 16 -8 36v8zM-26 -284v-21t-10 -21l-110 -112h-12v30t12 32l120 118v-26zM-18 -190l-128 -128v6v2q0 4 3 10t5 8l120 120v-18zM212 -26q0 -22 -12 -38 t-34 -16q-4 0 -6 2q-2 0 -6 2l58 58v-8zM238 120v-10v-8q0 -10 -4 -25t-4 -19l-120 -120v52zM248 198l-130 -128v20v20t10 18l120 120v-50zM256 318l-128 -132v14q0 12 1 27t7 21l120 120v-50zM274 504v-26q0 -18 -1 -26t-17 -24l-22 -22l-34 -34t-34 -33t-22 -21v58z M274 616v-50l-130 -130v50zM274 734v-50l-130 -128v50zM274 848v-52l-130 -128v52zM274 968v-62l-130 -128v62zM126 926q0 2 2 6l128 130q10 -2 10 -13v-17q0 -2 -1 -3t-1 -5v-6l-128 -128q-10 4 -10 14v16v6zM248 1172q8 -16 8 -36v-8l-138 -134v20v20t10 18zM300 1336h2 q8 0 17 -5t13 -13l-138 -138q-4 2 -10 4q-12 4 -16 6l-4 4q-2 2 -2 4zM102 1256l136 140q4 -4 14 -13t12 -13q4 -14 -8 -18l-22 -22l-34 -34t-34 -33t-22 -21q-4 -4 -13 -10t-13 -8q-6 4 -12 13t-6 17zM66 1336l138 136q8 -16 8 -36v-8l-136 -136q-4 10 -7 18t-3 18v8z M392 1310q4 0 18 -3t18 -7q-4 -10 -19 -10h-17t-12 1t-14 1q4 4 13 11t13 7zM530 1318q-8 -14 -15 -21t-19 -7q-2 0 -5 1t-5 1q14 22 44 26zM194 1530l-128 -128v14q0 38 26 64l21 21t31 32t30 31l20 20v-54z" />
<glyph unicode="k" horiz-adv-x="1566" d="M392 -62l-128 -128h-52l128 128h52zM940 -156l138 138q4 -2 13 -12t13 -14q0 -2 -3 -8l-5 -10l-130 -128h-4q-10 0 -16 12t-6 20v2zM256 -36l2 2q10 0 19 -6t13 -12l-128 -130h-16h-15t-13 10zM504 -44q14 0 18 -8l-130 -130h-52l132 130q2 2 8 4q8 4 16 4h8zM632 -52 v-10l-110 -110q-10 -10 -21 -10h-23h-24l128 130h50zM1214 -52l-110 -112q-10 -10 -29 -14t-31 -4h-10l120 120q0 4 17 6t27 4h8h8zM1232 -146q-8 -10 -19 -10h-21h-20l120 120q0 2 10 5t16 5q4 0 21 4t21 4zM1454 -8l4 -2h4l-118 -120q-6 -6 -13 -7t-13 -1h-10l120 120 q10 10 26 10zM888 -94l138 134q18 -6 18 -24v-8l-130 -128l-2 -2h-4q-2 0 -2 2q-2 0 -9 6t-9 10v4v6zM250 66v-28t-12 -30l-110 -112l-18 -8v20v21t8 19l120 118h12zM966 102h4h6l18 -18v-4v-4l-138 -138l-26 26zM914 162h6h4l4 -4l4 -4q2 -4 6 -11t2 -7l-136 -136l-2 -2h-4 l-2 2q-6 4 -13 14t-5 12zM238 180q8 -4 9 -11t1 -13q0 -8 -1 -15t-9 -13l-120 -120h-8v44zM734 102l128 128h6h4q4 -2 10 -8t6 -10l2 -2q0 -2 -1 -2t-1 -2v-2q-2 -4 -7 -13t-9 -11q-6 -6 -20 -22t-30 -32t-31 -30t-21 -20q-2 -4 -8 -7t-10 -3q-18 8 -18 28v8zM238 300v-52 l-128 -130v50zM716 198l106 102q18 -12 18 -28l-2 -8l-110 -110q-10 2 -11 12t-1 16v16zM238 410v-52l-128 -128v52zM706 292q0 6 2 10q0 4 2 6l60 58q4 -2 10 -12t6 -14l2 -2q0 -2 -1 -2t-1 -2v-2l-70 -68q-8 2 -9 13t-1 15zM102 384q0 2 3 9t5 9l128 128q2 -2 2 -12v-14 v-16t-2 -10q0 -2 -10 -14t-16 -22l-84 -84q-2 -2 -9 -5t-9 -3q-2 4 -5 17t-3 17zM710 418l4 2l2 -2q4 0 11 -7t7 -9l4 -6l-4 -4q-2 -2 -11 -12t-13 -14v52zM230 632q10 -20 10 -36q0 -2 -1 -2t-1 -2v-4l-136 -134v50zM230 752v-50l-128 -128v50zM230 862v-50l-128 -128v50z M230 984v-26q0 -20 -1 -28t-17 -24q-4 -4 -16 -17t-26 -26t-26 -25l-16 -16t-14 -10t-12 -8v52zM230 1096v-52l-128 -130v54zM222 1206q8 -2 8 -13v-15v-16l-138 -136v52zM222 1318v-50l-130 -132v52zM84 1292q0 4 3 9t5 7l130 128v-26v-21t-10 -19l-110 -114h-10 q-2 0 -5 14t-3 22zM212 1542q10 -16 10 -26q0 -16 -10 -26l-128 -130v50zM212 1646v-38l-128 -128l8 46z" />
<glyph unicode="l" horiz-adv-x="738" d="M266 -26l2 2q2 0 2 -1t2 -1h2q4 0 13 -6t13 -8l-128 -132l-10 -5t-8 -3q-6 0 -14 7t-12 11zM410 -40l-128 -132h-52l128 132h52zM540 -34l-120 -120q-8 -8 -21 -9t-23 -1q-2 0 -9 1t-9 1l130 128h52zM248 76v-24v-22t-8 -20l-112 -112h-8v50zM248 190v-24v-19t-8 -19 l-120 -118h-10v42zM248 300v-42l-138 -138v20v21t10 19l120 120h8zM248 420v-52l-128 -128v52zM248 540v-26v-21t-8 -21l-112 -112h-8v52zM248 650v-50l-128 -128v50zM240 762h8v-42l-128 -128h-10v42zM240 872v-50l-130 -128v50zM230 986h16q0 -26 -12 -49t-30 -44t-39 -39 t-37 -32q-2 -2 -12 -9t-14 -7v52zM230 1096v-52l-128 -128v52zM222 1208h8v-44l-136 -134v50zM222 1318v-50l-128 -128v50zM216 1432h10v-31t-10 -31l-132 -128v62zM216 1542v-52l-132 -128v52zM216 1628v-18l-140 -138v6v4q2 4 6 16q2 6 2 10l120 120h12z" />
<glyph unicode="m" horiz-adv-x="2260" d="M102 -136l128 128q18 -10 18 -26v-6l-138 -140q-6 10 -7 17t-1 15v12zM350 -52l-128 -128h-50l128 128h50zM478 -40l-128 -132q-4 -6 -20 -7t-26 -1h-12l128 128q8 10 17 11t21 1h20zM566 -40l-120 -122q-14 -10 -26 -10h-10l130 132h26zM1832 -26l34 -14l-128 -132h-44 v10zM1976 -40q0 -4 -2 -10t-6 -8q-4 -6 -16 -18l-25 -25l-26 -26t-17 -19q-6 -4 -20 -13t-16 -13h-26h-24l128 132h50zM2106 -34l-120 -120q-2 0 -12 -4t-14 -4q-4 -2 -20 -4t-22 -6l138 138h50zM1190 -26l-128 -128q-10 -8 -19 -9t-19 -1q-4 0 -12 1t-12 1l140 136h50z M914 -130l2 2l136 138q2 0 12 -6t14 -12l2 -2q0 -2 -1 -2t-1 -2v-2q0 -4 -3 -11t-5 -7l-112 -112q-4 -2 -9 -5t-7 -3q-6 0 -17 8t-11 12v4zM1310 -16l-130 -130l-20 -4q-10 -2 -18 -3t-14 -1h-2h-4l128 128zM1808 70v-52l-132 -128v52zM84 -40q4 2 6 8t4 6l128 128v-26 q0 -18 -1 -26t-17 -24q-6 -6 -20 -21t-30 -31t-31 -30t-21 -20l-2 -2q0 -2 -2 -2l-4 4q-2 2 -4 11t-6 13v6v6zM1044 112v-12q0 -12 -1 -28t-7 -20l-120 -122v54zM1808 180v-52l-132 -128v52zM222 216l-6 -62l-132 -128v50zM1044 232v-52l-128 -128v50zM1808 300v-26v-21 t-10 -21l-128 -130v62zM222 336v-52l-128 -130v54zM1044 344v-52l-128 -128v52zM1798 402v-52l-128 -128v52zM222 446v-52l-128 -128v52zM1036 454q4 -4 6 -21t2 -21q0 -2 -7 -12t-11 -14q-12 -12 -30 -31t-36 -37l-44 -44h-10v52zM1790 514h8v-42l-128 -128h-8v42zM230 574 q2 -4 2 -13v-13v-14t-2 -12q0 -2 -10 -15t-16 -19l-20 -20t-30 -31t-31 -31t-21 -20v60zM1036 566v-52l-130 -128h-8v42zM1782 616q4 -10 6 -17t2 -17v-8l-128 -128h-10v42zM888 534q0 4 2 6l128 128q10 -2 11 -13t1 -15t-1 -5t-1 -5q-2 -4 -2 -6l-128 -128q-10 4 -10 14v14 v10zM230 686v-52l-128 -128v52zM1764 720q8 -8 9 -17t1 -19q0 -4 -1 -5t-1 -5v-6l-128 -128h-8v52zM856 616l138 140q4 -10 7 -18t3 -18q0 -2 -1 -3t-1 -3l-2 -2l-128 -128l-4 -2q-8 0 -10 11t-2 17v6zM92 648q0 8 1 15t9 13l120 120h8v-40l-128 -132q-8 4 -9 11t-1 13z M1592 660l136 136q4 -2 11 -12t7 -14l2 -2q0 -2 -1 -2t-1 -2v-2l-136 -138q-18 12 -18 28v8zM942 822l2 2q8 0 16 -11t8 -17q0 -2 -4 -7t-6 -9l-110 -112q-4 -2 -9 -5t-9 -3q0 -2 -2 -2h-4l-2 2q-4 4 -11 14t-7 12zM1662 848l2 2q8 0 17 -6t13 -12l-134 -138h-6 q-20 0 -30 18zM738 730l128 128h10q10 0 16 -1t14 -9l-136 -136q0 -2 -2 -2h-6q-4 0 -16 2t-12 12zM222 908v-50l-128 -128v50zM1610 858l-130 -128h-26q0 8 2 18t8 14q6 6 18 20t26 27t25 24l15 15q12 10 29 15t33 5v-10zM676 738h-8q18 40 54 81t82 47zM216 1018v-24 q0 -10 -1 -22t-11 -22l-120 -118v58zM204 1122q4 -4 8 -17t4 -17q0 -2 -4 -9t-8 -9l-128 -128v52z" />
<glyph unicode="n" horiz-adv-x="1446" d="M1088 -52l-138 -138h-52l128 128q10 10 19 10h19h24zM248 -36l34 -16l-128 -130h-44v10zM394 -52v-10l-112 -110q-8 -10 -20 -10h-22h-24l128 130h50zM504 -52l-120 -120q-8 -8 -16 -9t-18 -1h-18l132 130h40zM822 -156l136 138q4 -2 11 -12t7 -14l2 -4l-2 -4l-128 -130 h-8q-18 0 -18 18v8zM1206 -52l-128 -130h-52l128 130h52zM1300 -44l-128 -128h-26l122 120q6 8 24 8h8zM216 40v-40l-140 -138v20v21t8 17l120 120h12zM950 92v-26v-21t-8 -19l-120 -120v58zM216 162v-52l-132 -128h-8v44zM950 204v-50l-128 -128v50zM204 274q0 -4 2 -14 t2 -12v-23t-10 -21l-114 -112h-8v52zM950 326v-52l-128 -130v54zM204 384v-52l-128 -128v52zM950 436v-52l-128 -128v52zM204 504v-50l-128 -128v50zM958 564q0 -6 -3 -30t-5 -30q0 -2 -4 -9t-4 -9l-120 -120v62zM204 564l-128 -128v18q0 10 1 22t7 20l120 118v-50zM812 526 q0 2 2 4l136 136v-52l-128 -128q-10 12 -10 34v6zM216 744v-4v-6q-4 -8 -6 -28t-6 -22q0 -4 -3 -10t-3 -8l-114 -110h-8l8 58zM796 632l128 128h8v-40l-128 -132q-6 10 -7 17t-1 17v10zM216 856v-52l-132 -128v52zM762 710l136 138q8 -8 8 -10q4 -4 7 -14t3 -12l-138 -136 q-6 4 -12 12t-6 18zM710 778l138 136q0 2 7 -2t11 -6q0 -2 2 -4l4 -4v-4v-6q-2 -4 -8 -13t-8 -13q-6 -6 -22 -21t-34 -33l-34 -34l-22 -22h-6q-10 0 -19 6t-9 16v4zM776 916q4 -2 6 -2h6l-130 -128h-8q0 22 11 45t29 42t41 31t45 12zM216 976v-52l-132 -128v52zM222 1096 v-52l-128 -130v54zM216 1180q0 -20 -1 -28t-17 -24q-6 -4 -18 -17t-25 -26t-26 -25t-19 -16q-2 -4 -12 -9t-14 -9v22v20t10 18l122 120v-26z" />
<glyph unicode="o" horiz-adv-x="1610" d="M924 -40l-136 -140h-50l134 140h52zM1030 -52v-6l-114 -114q-10 -8 -21 -8h-23h-24l130 128h52zM762 -34h44v-6l-130 -132h-42v10zM1172 -26l-102 -102q0 -2 -14 -8t-20 -10q-4 -2 -24 -9t-26 -7l120 122q4 0 10 2q4 2 8 2t8 2q4 4 16 6t16 2h6h2zM668 -16h44v-10 l-128 -128q-2 -2 -6 -2h-10q-4 0 -15 1t-13 9zM454 -112l2 2l128 128h8q6 0 15 -1t9 -11v-6l-4 -8q-2 -4 -2 -8l-114 -112q-2 -2 -7 -5t-7 -3q-6 0 -17 6t-11 14v4zM376 -76l138 138l8 -4q8 -4 10 -6l8 -8v-6v-2l-128 -130h-8q-8 0 -18 2t-10 10v6zM446 112h4h6q2 -2 9 -8 t7 -10l2 -4l-2 -2l-136 -140l-26 26zM258 36l136 136l26 -26l-136 -136l-4 -2l-6 2q-2 0 -9 7t-7 9l-2 4zM336 232h2h6l16 -16v-6v-2q-2 -6 -8 -16t-8 -12l-104 -104q-2 0 -8 -3t-10 -3h-4h-2q-4 2 -12 14q-4 6 -6 10zM154 164l138 136q18 -10 18 -26v-8l-138 -138 q-4 4 -10 14t-8 12v4v6zM120 248l128 128l6 2q10 0 11 -11t1 -17v-6l-138 -136q-8 16 -8 36v4zM222 464q10 -4 10 -14v-14v-16l-134 -136l-10 42zM70 420q0 2 2 9t4 9l132 128q2 -4 6 -21t2 -23q0 -2 -11 -15t-15 -19q-12 -12 -30 -29t-34 -33q-20 -20 -38 -40h-12 q-2 0 -4 13t-2 21zM1158 578q0 -22 -14 -48t-34 -50t-42 -42t-38 -26q0 2 -2 10t-2 10q0 10 1 20t9 20l122 120v-14zM198 668v-52l-128 -128v52zM1030 574l134 138v-24q0 -10 1 -19t-7 -19l-122 -118q-2 4 -4 17t-2 17v4v4zM198 738l-128 -128v6q0 14 3 32t15 28l110 112 v-50zM1000 660q0 2 2 4q0 2 2 4l128 128l2 2l4 -2h2q0 -4 2 -10q4 -12 4 -16v-4v-4l-134 -138q-12 14 -12 34v2zM1088 866l26 -26l-136 -138h-6h-4q-4 2 -14 8t-12 10zM1012 908h2q10 0 18 -4t12 -14q0 -4 -6 -13t-8 -11q-6 -6 -23 -22t-35 -34t-34 -33t-22 -21l-8 -4 q-16 0 -36 18zM248 950q-2 -8 -12 -33t-14 -33q0 -4 -4 -12q-2 -4 -2 -6l-104 -104q2 6 8 18t13 25t13 25t8 18q16 30 45 57t49 45zM934 942h2h6q2 -2 7 -2t9 -2q6 -2 10 -4l2 -4l-2 -6l-128 -128h-10q-10 0 -18 1t-16 9zM866 942l-128 -128h-52l110 110q12 12 30 15t32 3h8 z" />
<glyph unicode="p" horiz-adv-x="1626" d="M232 -460l34 -18l-128 -128h-44v6zM376 -478l-128 -128h-50l128 128h50zM496 -478l-128 -128h-50l128 128h50zM198 -376v-60l-128 -128v60zM198 -264v-50l-128 -128v50zM208 -136v-50l-132 -128v50zM208 -26v-50l-132 -128v50zM884 -40h40v-12l-128 -128h-12q-6 0 -16 1 t-12 11zM1044 -40l-8 -18l-112 -110q-8 -10 -19 -11t-21 -1h-26l128 128q8 10 18 11t20 1h20zM788 -16h4h4q4 -2 18 -5t18 -5l-138 -136h-8q-10 0 -18 2t-18 6zM1182 -26l-112 -110q-10 -10 -27 -14t-31 -4h-8l110 114q10 10 29 12t29 2h10zM702 10q2 0 12 -3t16 -7l4 -4 l4 -4l-88 -84v52zM216 94q0 -16 -4 -35t-14 -33l-104 -102l-18 -8v18q0 8 1 21t11 19l128 130v-10zM650 26l-8 -8v8h8zM216 216v-52l-128 -128v52zM226 336q0 -2 -1 -3t-1 -3l-2 -2q0 -8 -4 -28q-2 -8 -2 -16l-128 -128q0 2 -2 10t-2 10q0 10 1 20t9 20l122 120h10zM222 456 q0 -4 2 -12t2 -12q0 -10 -1 -19t-9 -19l-122 -120h-6v44zM216 566v-26q0 -20 -1 -28t-17 -24l-29 -29l-33 -33l-28 -28t-14 -12h-6v52zM1114 536v-4q-6 -10 -17 -31t-26 -41t-30 -35t-29 -15v10q0 4 4 16q2 6 2 10l96 94v-4zM222 686v-12q0 -10 -1 -26t-5 -20l-128 -132v54z M1012 550l134 136q4 -2 6 -12t6 -14v-4v-4q-4 -4 -6 -11t-6 -7l-116 -120h-6q-10 0 -11 10t-1 16v10zM984 636q0 2 2 6l128 128q8 0 8 -8q4 -8 6 -14t4 -10l-138 -136q-8 2 -9 12t-1 16v6zM222 806v-10v-8q0 -10 -3 -25t-3 -19l-122 -116v50zM1070 840l6 2l4 -2q4 -4 11 -14 t5 -12l-136 -136l-2 -2h-4l-4 2l-8 8q-2 4 -6 10t-2 8zM232 916v-8q-2 -10 -4 -25t-6 -17l-120 -122h-10q0 10 3 29t7 23l130 130v-10zM884 770l128 132h6q22 0 26 -18q4 -4 0 -9t-8 -9l-112 -110q0 -4 -6 -6t-10 -6h-4h-6q-2 4 -8 10t-6 8q-2 0 -2 2q-2 2 -2 4zM730 796 l-44 -8v6v2q6 22 26 40t32 30q26 22 54 36t60 24zM804 802q0 2 2 4l128 128h10q10 0 18 -1t16 -7l-138 -138h-2h-6q-4 2 -16 6q-6 2 -10 2zM232 1044v-26v-21t-10 -19l-110 -112h-10v50zM232 1158v-52l-130 -128v52zM232 1242v-16l-130 -128v16z" />
<glyph unicode="q" horiz-adv-x="1720" d="M1190 -472l44 -6l-138 -138l-42 6zM1344 -478l-128 -132q-8 -4 -21 -5t-23 -1h-14l128 128q4 4 20 7t26 3h12zM1472 -472l-118 -120q-6 -6 -22 -7t-26 -1h-14l128 128h52zM1566 -464l-128 -128h-24l128 128h24zM1018 -522l128 128q10 -2 11 -11t1 -15q0 -10 -1 -17 t-11 -17l-110 -112h-4q-12 0 -13 10t-1 18v16zM1146 -284v-52l-128 -128v52zM1158 -154v-50l-128 -132v52zM770 -76h52l-136 -140h-12q-8 0 -16 1t-16 11zM1164 -52q0 -10 -1 -22t-5 -20l-122 -122v18q0 10 1 23t7 21l120 118v-16zM950 -70l-118 -120q-2 0 -9 -4t-9 -4 t-19 -3t-25 -3h-2h-6l128 128q10 0 20 2q8 2 17 2t15 2h6h2zM686 -52l42 -10l-136 -136q-2 -2 -6 -2h-10q-4 0 -15 1t-13 9zM600 -18l34 -18q-2 -2 -8 -12t-10 -14l-110 -110h-10q-20 0 -32 18zM1106 -26v-10l-44 -40l-2 -2q0 -2 -2 -2l-4 4q-2 0 -4 2t-6 4q-4 -4 -13 -12 t-19 -17l-20 -18t-14 -11q-6 -4 -26 -18t-28 -18h-2h-6l114 112zM522 16h2l4 2q8 0 16 -6t14 -12l-138 -138h-2q-22 0 -32 18zM456 70h2h6q2 -4 8 -10t10 -8v-6v-2l-138 -138l-26 24zM256 -20l2 2l136 138h6h2q4 -2 10 -9t8 -9v-4v-4l-136 -138q-2 -2 -12 5t-14 13l-2 2v4z M198 44l138 136h2h6q2 -4 8 -9t8 -9v-4v-4q-2 -2 -4 -9t-6 -9l-110 -110q0 -2 -7 -5t-11 -5h-2h-4q-4 2 -10 8t-8 10v4v6zM284 238l2 2q2 0 2 -1t2 -1h2q2 0 9 -6t9 -10v-4v-6l-138 -136h-6h-2q-6 6 -12 15t-6 11zM110 184q0 2 2 2l128 132h6h2q2 -4 5 -6t5 -4t6 -10 q2 -4 2 -6l-138 -138h-2q-10 0 -13 10t-3 16v4zM84 262q0 6 2 8q0 2 2 4l134 136l10 -42l-138 -138q-10 16 -10 32zM66 360q0 6 2 10q0 4 2 6l128 128h12q0 -10 -1 -29t-11 -29l-110 -114h-6q-12 0 -14 10t-2 18zM1106 486v-2v-6q-12 -34 -40 -65t-62 -45v16zM208 624v-18 q0 -8 -1 -21t-9 -19l-122 -120v50zM1146 638v-6q0 -6 -3 -22t-3 -18q0 -4 -4 -10t-4 -8l-120 -120v4v2q0 6 1 14t3 18q2 8 2 20l128 130v-4zM994 606l138 138q4 -10 6 -17t2 -17v-8l-136 -136q-10 14 -10 34v6zM222 748q0 -10 -1 -25t-5 -21l-122 -120v10q0 10 4 29t14 29 l110 110v-12zM950 676l138 138q18 -12 18 -28v-8l-128 -128h-6h-4q-2 2 -9 8t-9 10v2v6zM890 734l128 132h8q8 0 18 -4t10 -14q0 -4 -7 -13t-11 -13q-6 -6 -21 -22t-33 -34t-35 -34t-23 -22h-8q-10 0 -18 6t-8 16v2zM248 848l-102 -104v8q0 2 5 14t12 26l14 28t13 20 q4 4 16 17t25 26t26 25t17 16zM950 906l8 2q18 0 28 -18l-138 -138l-34 18zM762 786h-42q60 104 178 138z" />
<glyph unicode="r" horiz-adv-x="1336" d="M300 -52q4 0 16 -3t16 -7l-128 -128h-50l128 128q2 4 8 7t10 3zM454 -62l-128 -128h-52l128 128h52zM522 -52h52v-10l-110 -110q-14 -10 -35 -15t-35 -5v10zM248 16q8 -4 9 -10t1 -12q0 -8 -1 -15t-9 -15l-128 -128l-10 44zM248 136v-18q0 -40 -26 -66q-4 -6 -17 -19 t-26 -27t-26 -26t-17 -16q-2 0 -8 -4t-8 -4v52zM110 110l138 138v-50l-128 -132q-10 4 -10 14v14v16zM240 358v-50l-130 -128v50zM240 472v-54l-130 -128v50zM230 582q8 -10 9 -16t1 -16q0 -14 -3 -19t-15 -19l-31 -31l-37 -37t-31 -30l-13 -12h-8v52zM230 692v-52 l-128 -128v52zM94 666q0 4 3 9t5 9l120 120h8v-44l-128 -128q-2 2 -5 12t-3 14v6v2zM942 830h10q12 0 21 -1t21 -7l-128 -130h-52v10zM738 734l128 128q2 0 4 2q2 0 3 1t3 1q14 0 30 -10l-136 -136q0 -2 -2 -2q-2 -2 -6 -2t-16 3t-12 13zM84 778l138 136v-52l-128 -128 q-2 4 -4 18t-6 18v6v2zM814 880l-112 -110q4 6 18 26t18 26q10 12 27 35t39 23h10zM204 1018q6 -10 9 -17t3 -17q0 -12 -4 -17t-14 -17l-29 -29l-33 -33l-28 -28t-14 -12l-18 -10v10v8q4 10 6 25t2 17zM74 994q0 2 2 6l140 136v-50l-132 -128q-8 2 -9 13t-1 15v8z" />
<glyph unicode="s" horiz-adv-x="1250" d="M756 -66v-10l-122 -122q-10 -8 -19 -7t-19 1h-22l138 138h44zM610 -52h2h4q4 0 17 -2t17 -4l-136 -140h-10q-10 0 -17 1t-15 11zM890 -58q-4 -6 -16 -18t-25 -26t-25 -27t-18 -17q-24 -22 -51 -32t-61 -20l128 132q2 0 18 2t26 6h12h12zM522 -26q2 2 12 -1t14 -7 q2 0 5 -3t5 -3l-130 -132h-14h-14t-14 10zM428 0q2 2 15 -2t21 -6l4 -4l4 -4l-128 -130h-16q-10 0 -19 1t-17 9zM350 36h8q8 0 18 -2t10 -10v-6l-138 -138l-32 18zM284 88h2h6q2 -4 9 -10t9 -8v-6v-2l-138 -138l-26 24zM222 138h6h4q4 -2 10 -9t6 -9l2 -4l-2 -4l-136 -138 l-24 26zM198 216q0 -4 1 -10t1 -8q0 -10 -1 -18t-9 -16l-114 -112h-10q0 16 10 36q26 30 59 64t63 64zM642 326l88 86l26 -26l-80 -76h-2h-6q-4 0 -13 4t-13 4v4v4zM770 336q-2 -4 -12 -14t-14 -12l-2 -2q-2 0 -4 2q2 2 11 12t13 14h6h2zM566 368l102 104q0 2 7 -2t11 -6 q0 -2 4 -6q2 -2 4 -2v-6v-4l-102 -102q-4 0 -8 2t-6 2t-4 2q0 4 -4 6t-4 4v4v4zM496 412l104 102h4h6q2 -2 11 -8t13 -10l-112 -110l-2 -2h-4q-2 0 -2 2q-2 0 -8 7t-10 9v6v4zM326 472l138 138l24 -26l-138 -138h-2h-4q-4 2 -10 8t-8 10v4v4zM522 558h6q16 0 30 -18 q-2 -4 -9 -13t-9 -13q-6 -8 -18 -19t-22 -22t-19 -19l-9 -8h-52v10zM258 522l136 138l26 -26l-136 -138h-4h-6q-2 4 -9 10t-7 8q-2 0 -2 2v4zM344 720l4 2l2 -2q4 0 6 -3t4 -5q8 -12 8 -18l-136 -136l-4 -2l-6 2q-4 4 -11 14t-3 12zM292 788h4q22 0 22 -26v-6l-128 -132h-6 h-4q-4 4 -13 14t-13 12zM120 730l128 128h6q10 0 11 -10t1 -18v-8l-128 -128h-4q-10 0 -12 9t-2 13v14zM232 960q8 -16 8 -36v-8l-138 -136v52zM890 806q10 12 16 19t18 7h10l-36 -36zM806 840q2 4 16 17t18 15q2 0 2 2l2 2q6 0 19 -7t13 -17q0 -2 -2 -2t-2 -2 q-10 -12 -17 -15t-17 -3t-17 1t-15 9zM770 916h6q16 0 30 -18q-4 -4 -17 -16t-19 -16h-8q-10 0 -15 3t-9 15zM232 1018l-120 -120q0 2 -1 3t-1 5v6q0 14 4 30t14 26l112 112zM732 952q0 -2 -1 -3t-1 -3v-4q-4 -4 -14 -13t-14 -13q-22 12 -22 36h52z" />
<glyph unicode="t" horiz-adv-x="1052" d="M446 -40h40v-12l-128 -128h-44v8zM600 -52l-128 -128h-54l130 128h52zM720 -52l-132 -128h-50l128 128h54zM392 26q2 -4 6 -21t4 -21q0 -2 -4 -8t-6 -10l-110 -112l-18 -8v20v22t10 18zM402 146v-52l-128 -128v52zM402 266v-50l-128 -128v50zM402 376v-50l-128 -128v50z M392 488q10 -2 10 -10v-14q0 -10 -1 -19t-9 -17l-110 -110h-18v42zM392 600v-52l-128 -128v52zM384 712q10 -2 10 -13v-15t-1 -5t-1 -5v-6l-136 -136v52zM384 822v-52l-128 -128v52zM84 756l138 134l34 -18l-138 -134h-2h-6q-4 2 -13 4t-13 2v6v6zM366 866q-6 -6 -21 -22 t-33 -34t-34 -33t-22 -21q-16 -16 -24 -19t-28 -3q-4 0 -13 2t-11 2l128 128h58zM66 858l132 128h6v-44l-128 -128q-10 2 -10 13v15v16zM198 1096v-52l-132 -128v52zM188 1170q0 -2 1 -3t1 -3q0 -10 -6 -16l-16 -16q-4 -6 -16 -19t-25 -26l-25 -25l-18 -18q-2 -2 -12 -8 t-14 -6v2v4q4 4 6 10t2 8l120 118zM392 1414q2 -4 6 -21t4 -23q0 -2 -4 -8t-6 -8q-4 -4 -13 -14t-19 -21t-20 -20t-14 -13t-14 -6t-12 -2h-6h-4q-4 0 -13 2t-13 6zM402 1286h-18l18 18v-18zM392 1526q0 -4 1 -12t1 -12q0 -10 -1 -20t-9 -18l-128 -128v52zM392 1610v-18 l-128 -128v18z" />
<glyph unicode="u" horiz-adv-x="1542" d="M658 -40h52l-136 -140h-10q-10 0 -18 1t-16 7zM822 -52l-128 -128h-52l128 128h52zM932 -52v-6l-110 -114q-10 -8 -21 -8h-23h-26l128 128h52zM454 -136l138 136q0 2 6 -2t8 -6q4 0 6 -4t4 -4v-4v-6l-128 -128h-6q-8 0 -18 2t-10 12v4zM1088 -16l-102 -104q-2 0 -16 -7 t-20 -9q-6 -4 -26 -10t-26 -8l114 114q2 0 6 2l8 4t28 10t24 8h4h6zM376 -94l138 138l8 -4l8 -4q8 -6 9 -8t1 -10v-8q-6 -6 -22 -23t-34 -35t-34 -33t-22 -21q-4 -4 -14 -11t-12 -7t-12 7t-14 11v4v4zM446 88h2h6q4 -4 13 -10t11 -8l-134 -140h-8q-20 0 -28 18zM248 10 l136 136l26 -26l-136 -136l-2 -2h-4l-2 2q-4 0 -10 7t-8 9v6v4zM194 62l2 4q0 2 2 4l128 128h4h2q4 -4 10 -9t8 -9v-4v-4l-134 -136q-22 6 -22 26zM162 154l130 130h2q10 0 13 -10t3 -16q0 -16 -10 -26l-114 -112l-14 -8q-8 8 -9 15t-1 17v10zM136 240l138 136q2 -4 5 -16 t3 -16v-6v-2l-136 -138q-10 14 -10 34v8zM248 472q10 -4 10 -15v-15q0 -2 -1 -4t-1 -4v-6l-128 -128h-8v44zM94 428l136 138q2 -4 5 -17t5 -17v-4v-6l-138 -136q-4 10 -7 18t-3 18zM986 510v-4q-16 -32 -40 -68t-66 -36h-8l114 112v-4zM1000 642v-50l-128 -128v50zM84 532 q4 4 6 10t4 6l128 128v-26q0 -20 -1 -27t-17 -23q-6 -6 -21 -22t-33 -34l-34 -34l-22 -22q-2 4 -4 17t-6 17v6v4zM1000 762v-50l-128 -128v50zM204 770q4 -4 6 -16t6 -16v-6v-2l-140 -138v50zM1000 872v-50l-128 -128l-6 44zM204 890v-50l-128 -128v50zM994 986h14 q0 -26 -13 -49t-31 -44t-38 -39t-36 -32q-4 -2 -13 -9t-11 -7v52zM204 1004v-54l-128 -128v50zM986 1088q6 -8 7 -15t1 -15v-14l-128 -128h-10v44zM204 1122v-60l-128 -128v60zM840 1036q0 6 2 19t6 15l120 120h8v-44l-128 -128q-4 4 -6 10t-2 8zM216 1224l-12 -42 l-120 -120v18q0 10 1 18t9 16l110 110h12z" />
<glyph unicode="v" horiz-adv-x="1704" d="M632 -180l138 136l4 4l2 -2q0 -2 2 -2t9 -6t9 -8v-6v-6l-130 -128h-10q-8 0 -16 2t-8 12v4zM994 -52h2h4q4 0 17 -3t17 -3q0 -4 -6 -15t-10 -15t-17 -16t-26 -25t-26 -25t-17 -18q-6 -6 -18 -16t-16 -10q-6 -2 -22 2t-20 6zM932 -52l-128 -128q-8 -10 -18 -10h-20h-22 l136 138h52zM596 -116q0 4 2 8q0 2 2 6l128 128h4q8 0 10 -10t2 -16v-8l-130 -130h-2q-10 0 -13 9t-3 13zM556 -26l136 136q20 -14 20 -34q0 -2 -1 -2t-1 -2v-2l-128 -128q0 -2 -2 -2q-2 -2 -4 -2q-8 0 -14 13t-6 21v2zM512 44l138 136q6 -4 12 -14t6 -18l-2 -2l-136 -138 q-18 14 -18 30v6zM478 128l136 138l18 -36l-136 -136l-4 -2q-10 0 -12 11t-2 17v8zM446 204l136 140l18 -36l-140 -136l-2 -4q-2 0 -2 2l-2 2q-2 4 -4 10q-4 12 -4 16v4v2zM538 420q14 -6 17 -13t3 -17q0 -4 -1 -6t-1 -4v-4l-136 -132l-18 38zM366 358l130 130h4q10 0 12 -9 t2 -19q0 -2 -1 -2t-1 -2v-2l-128 -128h-6q-10 0 -11 7t-1 15v10zM326 436l134 138q10 -4 14 -14t4 -18v-2l-138 -138q-6 4 -12 13t-6 17zM290 514l138 136q6 -4 12 -13t6 -17v-4l-138 -138q-18 12 -18 32v4zM256 600l136 138q4 -4 11 -17t7 -19q0 -4 -3 -10t-5 -8l-128 -128 q-18 12 -18 36v8zM358 814l5 -5t3 -5q4 -4 7 -14t3 -12l-138 -136l-4 4l-4 4q-2 6 -6 16t-2 10zM194 762q0 2 2 4q0 2 2 4l128 128h2q10 0 13 -10t3 -16q0 -2 -1 -2t-1 -2l-2 -2l-136 -138q-10 16 -10 32v2zM162 848l138 138q6 -8 7 -16t1 -18v-10l-128 -128l-6 -2l-6 2 q0 4 -2 10q-4 12 -4 16v4v4zM126 928q0 2 2 4l128 130h6q10 0 11 -12t1 -18v-14l-112 -112q-4 -2 -13 -9t-13 -7q-10 14 -10 32v6zM84 1000l138 140q6 -6 12 -15t6 -17q0 -2 -2 -4l-136 -136q-8 4 -13 13t-5 17v2zM186 1198q4 0 6 -4t6 -4v-4v-6l-140 -136v26z" />
<glyph unicode="w" horiz-adv-x="2174" d="M472 -172l138 138l24 -24l-128 -132q-2 -2 -8 -5t-10 -3q-16 0 -16 18v8zM744 -58l-128 -132h-50l128 132h50zM866 -58l-122 -122q-8 -10 -17 -10h-21h-20l128 132h52zM1318 -18l36 -16l-138 -138h-10q-10 0 -18 1t-16 7zM1464 -34v-10l-40 -40l-62 -62q-16 -16 -24 -17 t-28 -1h-24l128 130h50zM1592 -26l-120 -120q-8 -8 -18 -9t-20 -1q-2 0 -10 1t-10 1l128 128h50zM436 -90q0 2 2 2l136 140q10 -18 10 -36q0 -10 -4 -16t-14 -18l-110 -110q-2 -2 -4 -2h-2q-10 0 -12 14t-2 22v4zM1146 -70l132 128q8 -2 8 -12v-16v-12l-128 -130 q-10 2 -11 13t-1 15v14zM548 136q10 -2 10 -12v-16v-14l-130 -128l-4 4l-4 4q-2 6 -6 16t-2 10zM1114 8l138 138q6 -8 7 -16t1 -18v-10l-128 -128h-6h-4q0 2 -3 12t-5 14v6v2zM384 90q0 2 2 4l128 128h6h2q2 -2 5 -11t5 -13v-6v-2l-138 -138q-10 12 -10 30v8zM1088 102 l138 138q8 -18 8 -36t-8 -24l-112 -110l-18 -12q-8 18 -8 36v8zM488 308q8 0 8 -8l4 -8l4 -8q2 -6 2 -10l-138 -138l-5 5t-3 5q-4 4 -7 13t-3 13zM1062 190l128 128h6q8 0 10 -10t2 -18v-8l-138 -136q-6 8 -7 14t-1 16v14zM318 256l138 138q16 -16 16 -30v-6q-4 -4 -9 -13 t-7 -13q-6 -6 -22 -21t-34 -33l-34 -34l-22 -22h-6q-8 0 -14 12t-6 20v2zM1172 420q10 -16 10 -36v-8l-112 -110q18 46 40 83t62 71zM428 478q18 -8 18 -30v-2l-136 -138q-2 2 -5 4t-5 6q-4 4 -6 13t-2 13zM266 436l128 130h6q8 0 10 -10t2 -18v-8l-138 -136q-4 10 -6 17 t-2 19v6zM368 650q10 -2 10 -13v-15t-1 -5t-1 -5v-6l-128 -128q0 4 -4 6t-4 4q-2 4 -6 14t-2 12zM208 606l136 138q8 -8 9 -14t1 -16q0 -8 -1 -15t-9 -15l-112 -110q-2 0 -4 -2t-6 -2q-10 0 -12 12t-2 22v2zM180 694l138 136q4 -10 7 -18t3 -18l-2 -6l-128 -130h-6h-2 q-4 2 -6 12t-4 14v4v6zM284 916q6 -8 7 -15t1 -17v-12l-128 -128h-10v44zM120 866l138 134q6 -8 7 -14t1 -16v-10l-128 -130h-4q-10 0 -12 10t-2 18v8zM94 960l128 128q12 -2 11 -16t-1 -18v-18l-130 -130q-8 8 -8 18v20v16zM208 1128l-132 -128h-10q0 4 2 6t2 6l4 8 q2 4 2 6l132 128v-26z" />
<glyph unicode="x" horiz-adv-x="1626" d="M1216 -76l-128 -132q-8 0 -16 -2t-16 -3t-12 -3h-8h-6l134 140h52zM960 -164l136 138l26 -26l-144 -146q-8 4 -14 13t-6 19zM1336 -70q0 -2 -4 -8t-4 -10l-16 -16t-26 -25t-26 -25l-18 -18t-19 -16t-15 -10q-2 -2 -12 -2h-14h-13t-11 2l120 122q8 8 17 7t21 -1h20z M1472 -52l-128 -130l-58 -8l128 128q4 6 20 8t26 2h12zM292 -26h8q18 0 26 -18l-136 -138h-6h-4q-4 2 -13 9t-13 9zM548 -44v-8l-128 -130h-52l138 138h42zM446 -44l-128 -128h-60l128 128h60zM610 -52q-6 -8 -23 -26t-36 -37t-37 -35t-26 -22t12 16t46 47t47 45t17 12z M76 -120l140 136q0 2 10 -5t14 -11v-6v-4l-128 -128h-12q-6 0 -15 1t-9 11v6zM916 -94l138 134q6 -4 12 -12t6 -18l-2 -2l-136 -138q-4 4 -9 13t-9 13v4v6zM1004 110h2h6q4 -4 9 -13t9 -13q0 -2 -4 -8t-8 -10l-110 -110q-2 0 -8 -4t-10 -4h-4h-2q-4 0 -6 3t-6 5q-2 4 -4 10 t-2 8zM822 40l138 140q8 -4 13 -14t5 -18v-4l-138 -136q-18 10 -18 26v6zM778 114q0 2 2 4l128 130h4q10 0 12 -10t2 -18q0 -2 -1 -2t-1 -2v-4l-136 -136q-10 14 -10 32v6zM428 460l130 128h8q-22 -36 -54 -78t-56 -74q-2 0 -5 -4t-5 -4q-18 10 -18 26v6zM514 658h6h2 q14 -4 18 -18v-2v-6l-138 -136l-26 26zM472 734q20 -6 20 -24q0 -2 -1 -3t-1 -3l-2 -2l-138 -138l-14 36zM292 666l136 138q10 -6 15 -11t5 -15q0 -2 -1 -2t-1 -2v-4l-128 -130h-6h-2q-4 2 -10 9t-8 9v6v2zM376 872h6q10 0 16 -11t6 -19q0 -2 -2 -4l-128 -128h-8h-8 q-6 4 -13 13t-5 11zM336 942h2h6q6 -6 6 -10q10 -10 10 -18l-138 -136h-2h-4q-4 6 -11 15t-7 11zM284 1008l2 4q2 0 2 -1t2 -1q0 -2 2 -2t9 -6t9 -8v-6v-4l-138 -136l-26 24zM240 1078h6h2q4 -4 12 -16q4 -6 6 -10l-138 -138h-2h-6l-5 5t-3 5q-4 2 -7 9t-3 9zM70 1018 l128 128h4q8 0 11 -6t3 -12q0 -8 -1 -13t-7 -11l-114 -110l-18 -10q-4 8 -5 13t-1 15v6z" />
<glyph unicode="y" horiz-adv-x="1636" d="M770 -486h42v-10l-128 -128q-2 -2 -6 -2q-4 -2 -10 -2q-4 0 -15 1t-13 11zM924 -496l-120 -120q-8 -10 -18 -9t-20 1h-22l128 128h52zM710 -478l-128 -128h-52l128 128h52zM442 -586l2 2l2 2l136 136q2 4 11 -3t13 -11v-6v-6l-128 -128h-10q-8 0 -17 2t-9 12zM582 -330 q0 -22 -5 -42t-21 -38l-26 -26l-31 -31l-26 -26t-13 -11h-6q4 20 11 45t21 39l96 94v-4zM666 -128q-2 -6 -8 -22t-8 -22q-6 -10 -16 -29t-10 -21q-4 -6 -16 -18l-26 -26l-26 -26t-18 -16v4v4q2 6 8 26t10 26q0 2 4 10l4 8zM728 52q-6 -16 -9 -40t-17 -38l-114 -110q4 2 6 8 t6 8q2 8 11 34t13 34zM596 20q0 6 2 10q0 4 2 6l128 128q6 -6 6 -10q4 -4 7 -14t3 -12l-138 -136q-10 2 -10 12v16zM556 112l136 136q20 -18 20 -32q0 -4 -1 -6t-1 -6q-6 -6 -22 -21t-34 -33t-33 -34t-21 -22q-4 -2 -14 -8t-12 -10q-18 14 -18 32v4zM512 180l138 138 q2 -4 9 -13t7 -13v-2q0 -2 1 -2t1 -2l-2 -2l-136 -138q-18 10 -18 30v4zM472 256l134 138l18 -34l-138 -138q-6 4 -12 14t-6 18zM436 336l138 136q6 -10 7 -17t1 -15v-12l-128 -128h-6q-10 0 -11 10t-1 18v8zM392 412l130 128h2h6l4 -4l4 -4q0 -2 2 -4t4 -6l4 -8 q-2 -2 -8 -12t-10 -14l-112 -112h-8q-12 0 -15 9t-3 19v8zM478 610h6h2q2 -4 5 -6t5 -4t6 -10q2 -4 2 -6l-138 -138h-2h-6q-4 6 -11 14t-7 12zM300 548l136 138q20 -14 20 -28l-2 -8l-140 -136q-2 4 -8 13t-6 13q-2 0 -2 2q-2 0 -2 4zM256 616l136 136q20 -6 20 -24 q0 -2 -1 -3t-1 -3v-2l-136 -136q-4 2 -10 12t-8 14v2v4zM212 694l138 138q6 -6 11 -14t5 -16v-6q0 -2 -3 -9t-5 -9l-110 -110q-2 -2 -9 -5t-9 -3q-4 0 -12 12q-4 6 -6 14v6v2zM308 898q18 -6 18 -26v-6l-140 -138l-18 34zM888 788l70 70q-4 -10 -13 -40t-13 -40 q-2 -4 -12 -13t-14 -13q-18 14 -18 34v2zM128 840l136 136q18 -10 18 -32v-2l-138 -136q-6 4 -12 13t-6 19zM1026 1044q-14 -64 -43 -100t-77 -78q-2 -4 -9 -6t-9 -2q2 6 9 26t9 24q2 6 9 19t9 15zM84 908l138 136q6 -4 12 -13t6 -17l-2 -2l-136 -140q-18 14 -18 32v4z M186 1096l12 -8q-4 -4 -8 -10q-8 -12 -10 -16l-31 -31l-37 -37l-31 -31t-15 -13h-8v18zM1078 1182q-2 -8 -12 -27t-14 -23q-4 -6 -18 -20l-29 -29l-28 -28l-19 -19v6v2q4 8 9 21t9 15z" />
<glyph unicode="z" horiz-adv-x="1326" d="M592 -58h50l-138 -140h-40v8zM822 -58h50q-2 -4 -7 -15t-9 -15q-16 -16 -33 -36t-37 -38t-43 -30t-49 -12v14zM952 -58q10 0 18 -1t16 -11l-130 -128h-52l138 140h10zM1044 -70q8 10 18 11t20 1h22l-128 -132q-10 0 -18 -2q-20 -4 -26 -6h-8v8zM368 -52h52v-6 q0 -2 -13 -15l-31 -31l-37 -37l-31 -31q-16 -16 -30 -19t-38 -3v14zM530 -58l-128 -132h-52l128 132h52zM762 -58l-130 -132h-50l130 132h50zM1208 -52l-130 -128q0 -2 -10 -4t-16 -6h-2h-6l128 132q8 6 26 6h10zM274 -34l40 -10l-134 -136q-2 -2 -4 -2h-8q-20 0 -32 10z M52 -138l128 130h4h6q2 -2 8 -9t6 -9t2 -2l2 -2l-4 -4l-128 -130h-6q-18 0 -18 18v8zM230 154q-10 -56 -46 -101t-82 -79v6v2q0 4 4 14t4 12q6 10 16 29t10 21q4 6 18 20l29 29l28 28zM332 372v-4q-4 -10 -16 -36t-16 -32q-6 -10 -17 -27t-23 -33t-27 -28t-29 -14v4v2 q4 4 6 10t6 8q4 8 12 22l16 28t15 24t7 12q2 4 12 14t20 21t20 20t14 13v-4zM438 586v-4q0 -2 -4 -9t-8 -17t-9 -19t-7 -15q0 -4 -4 -10t-4 -8l-94 -94q2 6 7 19t12 28t13 29t10 18q4 6 16 19t26 27t27 26t19 16v-6zM556 830q-2 -6 -9 -21t-15 -31t-16 -30t-12 -20t-14 -17 t-22 -23l-23 -23t-17 -15q2 6 8 21t14 31t16 31t12 19q4 6 15 18t23 24t23 22t17 14zM292 906h52l-128 -128l-10 -5t-8 -3q-4 0 -18 3t-18 5zM66 796q0 8 4 8l134 138l26 -26l-136 -138h-4q-24 0 -24 18zM464 906l-44 -44q-18 -18 -38 -37t-32 -29q-16 -16 -23 -17t-27 -1 h-26l128 128q0 2 17 5t27 5h18v-10zM582 916l-128 -128h-52l128 128h52zM216 1052v-8q-4 -10 -10 -29t-8 -21l-114 -114v10v8q4 10 6 26t4 18l122 120v-10zM248 1198q-2 -6 -9 -26t-9 -26q0 -4 -4 -9t-4 -9l-94 -92h-10l2 8q0 4 4 20q2 8 4 14z" />
<glyph unicode="{" horiz-adv-x="1104" d="M838 -310q18 0 34 -10l-128 -128h-50l138 138h6zM730 -294h2h6q4 0 16 -3t16 -5l-8 -18l-112 -110q-10 -10 -26 -10q-14 0 -32 10zM978 -310l-120 -120q-8 -8 -15 -9t-17 -1h-12l120 120q8 8 15 9t17 1h12zM642 -268h4q2 0 2 1t2 1q6 0 17 -3t11 -13l-2 -2l-128 -130h-10 q-10 0 -16 1t-16 9zM566 -226h2q22 0 32 -18l-136 -134l-4 -4q-10 0 -18 6t-12 12zM386 -294l136 138q18 -14 18 -30v-6l-138 -136q-6 4 -12 13t-6 19zM344 -218l138 138q4 -8 5 -14t1 -16q0 -8 -1 -15t-5 -15l-114 -110q0 -2 -2 -2q-2 -2 -6 -2q-10 0 -13 10t-3 18v8z M318 -130l128 128q10 -4 10 -14v-14v-16l-130 -128q-10 2 -9 13t1 15v16zM300 -28l130 128h8v-44l-128 -128q-10 18 -10 36v8zM420 202h10v-44l-130 -128h-8v44zM274 176l138 138q2 -4 5 -20t3 -22q0 -4 -3 -10t-5 -8l-112 -110l-16 -10q-2 4 -5 17t-5 17v6v2zM394 408 l8 -42l-136 -138v52zM240 374l136 136l10 -42l-138 -138q-6 8 -7 16t-1 18v10zM318 564h4h4q4 -4 13 -10t11 -8l-134 -138h-8q-20 0 -26 16zM216 578l2 2q2 0 2 1t2 1q8 0 22 -2t14 -14v-2q-6 -6 -22 -23t-34 -35l-34 -34l-22 -22q-14 -14 -20 -16t-22 -2h-14t-14 10z M58 530l2 4q0 2 2 4l136 136q2 -4 4 -17t6 -17v-6v-4l-138 -136q-4 10 -8 18t-4 18zM44 630q0 2 2 9t6 9l130 128l8 -42l-138 -138q-4 4 -6 17t-2 17zM182 888v-22v-20t-10 -20l-120 -116v50zM394 1098q0 -36 -27 -55t-57 -27l84 84v-2zM402 1232q0 -4 1 -14t1 -14v-22 t-10 -20l-110 -112h-12q0 8 2 30t10 32zM412 1298l-120 -120v4v6q0 6 1 14t3 18l4 20l130 128zM446 1492q0 -10 -1 -26t-7 -22l-120 -120v4v6q2 6 5 22t3 18q2 4 4 10t6 8l110 114v-14zM496 1658q-4 -18 -11 -39t-21 -37q-6 -6 -18 -19t-25 -26t-26 -25t-19 -16v4v6 q2 6 8 16t12 21t11 20l5 9q4 6 16 18t25 26t26 26t17 16z" />
<glyph unicode="|" horiz-adv-x="770" d="M292 -20v-10l-120 -122q-4 0 -19 -2t-25 -4h-8h-10l138 138h44zM376 -12q4 0 17 -3t17 -5l-128 -132h-52l128 132q2 2 9 5t9 3zM548 -6l-128 -128q-10 -8 -19 -9t-19 -1q-4 0 -12 2t-12 2l130 128q6 4 22 5t26 1h12zM76 -82q0 2 3 9t5 9l132 128q4 -12 5 -20t1 -18v-14 q-6 -6 -21 -22t-33 -34t-35 -34t-23 -22q-2 -2 -12 -9t-14 -7q-2 4 -5 17t-3 17zM216 174v-52l-132 -128v52zM216 294v-50l-132 -128v50zM222 414v-12q0 -10 -1 -25t-5 -21l-122 -120v50zM222 536q0 -4 2 -13t2 -13t-1 -8t-1 -8q-2 -6 -2 -10q0 -2 -10 -16t-14 -20 q-6 -4 -19 -17t-27 -26t-26 -25l-16 -16q-2 -4 -7 -6t-9 -2v52zM222 646v-52l-128 -128v52zM222 766v-52l-128 -128v52zM216 868v-52l-132 -128v52zM216 962q0 -20 -1 -27t-17 -23l-31 -31l-37 -37t-31 -30t-15 -12h-10v28t10 30l132 128v-26zM216 1100v-50l-132 -130h-8v42 zM216 1210v-42l-140 -136v20v21t8 17l120 120h12zM204 1324v-52l-128 -130v50zM204 1442q0 -4 2 -13t2 -13v-22t-10 -20l-114 -112h-8v52zM204 1554v-52l-128 -128v52z" />
<glyph unicode="}" horiz-adv-x="1114" d="M248 -302l36 -18l-130 -128h-42v8zM292 -422q-2 -2 -8 -5t-10 -3q-2 -2 -19 -5t-23 -5h-4h-6l122 120q2 2 7 5t9 5q6 0 26 4t26 4zM222 -208q0 -4 2 -13t2 -11v-23t-10 -21l-122 -120v58zM522 -276q-28 -32 -60 -62t-68 -52l102 106q4 0 9 4t9 4h6h2zM222 -98v-50 l-128 -128v50zM222 6v-34l-128 -128h-6l6 34zM446 246q-14 -50 -44 -74t-76 -46zM464 360q0 -10 -1 -25t-7 -21l-120 -120v8v10q0 4 4 24q2 8 4 18l120 120v-14zM482 512v-26q0 -22 -1 -29t-17 -25q-6 -6 -23 -21t-35 -33l-34 -34l-22 -22v60zM488 628v-6q-2 -6 -2 -15 t-2 -17q-2 -10 -2 -20l-122 -120v10q0 12 3 31t13 29l112 110v-2zM436 694q0 2 2 4l136 140q6 0 18 -12q8 0 8 -6q-30 -34 -66 -74t-70 -72q-4 2 -14 8t-12 10zM394 768l138 136q6 -4 12 -13t6 -19l-2 -2l-136 -136q-18 10 -18 32v2zM360 852l136 138q8 -8 9 -17t1 -21v-12 l-112 -114q-2 0 -8 -3t-10 -3h-4h-4q0 2 -4 11t-4 13v6v2zM472 1076q4 -10 7 -17t3 -17v-8l-138 -138v52zM464 1188l8 -44l-136 -136v52zM456 1290q2 -4 5 -17t3 -17q0 -2 -3 -8t-5 -8l-130 -128v50zM438 1392q6 -8 7 -14t1 -16q0 -8 -1 -15t-7 -13l-128 -130v60zM292 1360 l136 136l10 -44l-138 -136q-6 8 -7 15t-1 15v14zM94 1392l138 138l26 -24l-130 -132l-8 -4q-4 -2 -8 -2q-2 0 -8 6l-10 10v4v4zM318 1506q18 18 50 18q4 0 10 -2t8 -2l-138 -136h-40v8zM216 1634v-62l-128 -128v62zM216 1744v-52l-140 -136v52zM198 1838q10 -16 10 -26v-8 l-138 -138v44z" />
<glyph unicode="~" horiz-adv-x="1182" d="M438 484q0 -8 -8 -14t-19 -12t-21 -10t-14 -8q-4 -2 -15 -12t-23 -21t-24 -21t-14 -12q-12 -10 -18 -14t-18 -4h-8l128 128h54zM752 502q4 -2 10 -4q12 -4 16 -4l5 -5t3 -5l-128 -128q-2 -2 -6 -2h-10q-4 0 -15 1t-13 9zM180 390l128 130h6q20 0 26 -18l-136 -138h-4h-2 q-4 2 -11 8t-7 10l-2 2q-2 0 -2 2zM888 494q-4 -6 -16 -19t-25 -26t-26 -25t-17 -16q-12 -10 -35 -25t-41 -19l120 120q0 2 12 5l20 5h6h2zM666 536l36 -16l-138 -138h-4q-20 0 -30 18zM110 440l138 138l26 -26l-138 -138h-6h-2l-10 10l-8 8v6v2zM472 450l128 128h10 q8 0 15 -1t7 -11v-6l-136 -136q-2 -2 -11 5t-13 11l-4 6zM58 484q0 4 3 13t5 13l132 128q2 -4 8 -13t6 -13l4 -2q0 -2 -2 -4l-2 -2l-136 -138q-4 2 -11 8t-7 10z" />
<glyph horiz-adv-x="548" d="M376 528v-10q0 -2 -10 -12l-24 -24t-29 -28t-23 -22q-18 -16 -44 -29t-54 -13h-6l140 138h50zM264 578q18 -14 18 -30v-6l-138 -134l-16 32zM92 528l138 136l18 -34l-138 -138h-6h-2q-2 2 -5 12t-5 14v4v6zM58 604l140 136l14 -34l-136 -138h-4h-6q0 2 -2 12t-6 14v6v4z M44 662l140 142l8 -26l-136 -138h-4h-6q0 2 1 5t-3 7v6v4z" />
<glyph unicode="&#xa0;" horiz-adv-x="1662" d="M1036 -454q-6 -6 -21 -22t-33 -34t-35 -33t-23 -21q-16 -16 -23 -18t-29 -2q-2 0 -11 1t-13 1l130 128h58zM890 -428q2 0 4 2q2 0 2 1t2 1q10 0 18 -4t18 -8l-138 -138h-4q-12 0 -19 3t-17 7zM1164 -436q-4 -4 -16 -17t-25 -26t-25 -26t-18 -17q-24 -22 -48 -32t-54 -20 l128 132q8 0 16 2q6 2 13 2t11 2h12h6zM822 -376q4 -2 10 -12t8 -14v-2v-6l-138 -138h-8v44zM788 -326q-2 24 12 41t32 29v-18q0 -8 -1 -22t-9 -18l-120 -122v18zM968 -230q2 4 12 13t14 13h14h16t12 -8q-4 -10 -22 -18t-28 -8q-2 0 -9 3t-9 5zM770 -194l128 128h24 q0 -22 -5 -34t-19 -28q-4 -6 -18 -21t-31 -31t-32 -30t-21 -20h-2h-6q-2 2 -8 12t-10 14v4v6zM942 -194q0 -10 -8 -10h-26h-24l40 42zM796 -58h12q10 0 17 -1t15 -7l-128 -128h-44v8zM712 -26h2q2 0 3 1t3 1q6 0 17 -2t11 -12l-4 -2l-128 -128q-2 -2 -4 -2q-2 -2 -6 -2 q-16 0 -32 10zM1380 -52q0 4 24 10t34 8h8h10q-6 -4 -22 -21t-20 -21q-2 -2 -11 -8t-20 -15t-22 -17t-17 -12q-8 -6 -23 -16t-29 -10v18zM634 10h8q6 0 16 -2t10 -10v-6l-128 -128h-10q-10 0 -18 1t-16 7zM558 52l2 2q8 0 20 -7t12 -17v-4l-128 -128h-8q-12 0 -20 5t-16 13z M1242 -80q0 16 22 19t34 3h12l-42 -44h-4h-4q-4 2 -10 8t-8 10v4zM358 -38q0 2 2 4l136 138q4 0 13 -6t13 -10v-2q0 -2 2 -4l-2 -2l-136 -138q-2 0 -8 2t-10 4q-2 4 -5 6t-3 6zM300 26l138 138l26 -26l-138 -138h-4h-4q-4 2 -10 9t-8 9v6v2zM386 222l26 -24l-138 -136 q-2 -2 -4 -2q-2 -2 -4 -2q-14 0 -26 22zM198 156l138 136q18 -14 18 -36q0 -2 -1 -2t-1 -2q-2 -2 -2 -4l-128 -128h-2h-4q-4 2 -10 12t-8 14v6v4zM164 232l136 136q8 -8 9 -14t1 -16v-10l-130 -130h-4h-4q0 2 -4 11t-4 13v6v4zM136 324q0 2 2 4l136 136q2 -4 5 -17t5 -17v-6 v-4l-138 -136q-4 10 -7 17t-3 19v4zM248 548q8 -8 9 -14t1 -16v-12l-136 -134l-10 40zM94 514l138 138q8 -18 8 -36q0 -10 -3 -15t-15 -17q-12 -14 -30 -32l-36 -36l-44 -44h-10q0 6 -2 14t-6 20v6v2zM76 610l140 134v-50l-128 -128q-10 2 -11 13t-1 15v16zM70 712q0 2 2 9 t4 9l132 128v-52l-132 -128q-2 4 -4 17t-2 17zM198 908l-128 -128v14q0 10 1 25t5 21l132 128zM232 1114q-4 -26 -10 -51t-24 -45q-6 -4 -18 -16l-25 -25l-25 -25l-18 -18q-2 -2 -8 -5t-10 -3q4 6 10 30t8 30q0 2 3 8l5 10zM274 1242q-10 -34 -33 -61t-51 -49q14 34 36 60 t48 50zM908 1278q-2 -4 -4 -10t-6 -8q-34 -40 -64 -70t-78 -40q0 8 6 14q10 10 35 36t35 34q2 2 12 9t14 9q6 2 26 12t24 14zM1328 1286h16v-8q0 -2 -12 -14l-28 -28l-33 -33t-29 -27q-6 -6 -20 -14t-24 -12v8zM1234 1304h44v-12l-132 -128h-12q-6 0 -16 1t-12 11z M1054 1304l-120 -122q-2 0 -18 -3t-26 -3h-6h-12l132 128h50zM1132 1318h40v-8l-128 -128h-40v8z" />
<glyph unicode="&#xa1;" horiz-adv-x="762" d="M270 1560h-50l128 130q4 4 22 7t28 3v-10zM366 1534h-6q-16 0 -30 18l138 138l34 -18zM424 1482l-26 26l136 138h6q8 0 17 -4t13 -14zM484 1424q-4 2 -13 12t-13 14v4v4l130 130h8q6 0 9 -1t9 -9q2 -2 5 -9t3 -9zM510 1340q-6 8 -7 14t-1 16v10l128 128h10v-40zM510 1270 l120 128q0 -2 -5 -11t-11 -21t-11 -21t-7 -11q-4 -6 -16 -19t-26 -28t-26 -28t-18 -17v28zM392 1038l128 130h50l-128 -130h-50zM494 970q-10 18 -10 34q0 12 4 18t14 16q12 14 30 33t36 37t32 30l14 12h8v-52zM278 1038q4 6 17 19t19 17q4 2 16 7t25 10l26 10t17 5l-68 -68 h-52zM246 1074q-4 -6 -17 -20t-19 -16q-4 0 -10 -2q-4 0 -8 -1t-8 -1q-2 0 -12 2t-14 2l44 42q2 2 4 2q2 2 4 2h2q18 0 34 -10zM502 868v52l128 128v-52zM640 894q0 -2 -4 -9t-6 -9l-128 -128v52l128 128q2 -4 6 -17t4 -17zM510 646v50l130 128v-50zM520 534q-8 8 -9 14 t-1 16q0 8 1 15t9 15l128 128v-60zM520 424v50l134 136v-52zM526 310v52l128 128v-52zM534 208q0 4 -4 17t-4 17v4v6l140 136v-52zM532 98q0 8 1 28t11 30l110 110l18 12v-24q0 -10 1 -19t-7 -19l-122 -118h-12zM534 -22v20v20t10 18l122 120h6v-42zM544 -136v52l128 130 v-54z" />
<glyph unicode="&#xa3;" horiz-adv-x="1490" d="M1004 -84l-132 -132q-8 -8 -17 -7t-21 1h-20l136 138h54zM428 -84l-118 -120q-10 -10 -19 -11t-19 -1h-24l128 132h52zM858 -70h2h6q4 0 13 -3t11 -3v-6v-2l-128 -132h-10q-10 0 -17 1t-15 11zM198 -146l138 138q8 -8 8 -18v-20v-12l-128 -132q-10 6 -14 16t-4 20v8z M456 -172q-12 -10 -30 -14t-32 -4h-8l110 114q12 10 38 15t40 9zM756 -52q2 0 6 2q4 0 6 1t6 1h16t16 -10l-130 -132h-52v10zM1158 -52q-40 -44 -88 -79t-102 -59l112 114q14 4 26 10q10 4 21 8t19 6h6h6zM650 -44h44v-8l-128 -128q-2 -2 -6 -2h-10h-15t-13 10zM172 -58 l128 128h4h6q0 -4 2 -13t6 -13v-6v-4l-138 -136q-6 8 -7 15t-1 15v14zM274 164q8 -10 9 -17t1 -17v-10l-130 -128h-8v42zM266 248v-32l-128 -132v36zM428 428q-10 -20 -28 -42t-40 -28zM1004 390q0 -12 -8 -22t-18 -10h-10l36 36v-4zM472 592q0 -4 1 -14t1 -12q0 -22 -2 -29 t-16 -23l-22 -22l-34 -34l-34 -34l-22 -22v62zM420 650q6 6 24 8t28 2v-10l-136 -136l-36 16zM350 650l-128 -128h-50l128 128h50zM232 694l26 -26l-138 -138h-8q-18 0 -24 18zM1030 686h50l-130 -130q-4 -4 -23 -7t-29 -3v10zM968 686l-78 -80q0 4 -1 14t-1 12q0 54 54 54 h26zM216 796v-58l-128 -132v62zM70 762l138 136v-50l-132 -128q0 4 -3 16t-3 16v6v4zM344 1154h6v-40l-128 -128h-6v40zM368 1062q10 -12 10 -28q0 -14 -12 -15t-22 -1h-18zM950 1128l-84 -84h-52l120 120zM1054 1122q-10 -34 -44 -52t-68 -18h-8l70 70h50zM1062 1062 q6 8 29 31t31 29q10 8 21 9t21 1q4 0 10 -2t8 -2l-76 -76zM344 1216l-128 -128v20q0 10 -1 20t7 18l122 122v-52zM770 1122l138 138l16 -36l-136 -136q-18 10 -18 30v4zM848 1310q8 0 18 -10l4 -4q2 -2 2 -4t2 -2l2 -2l-4 -2l-102 -106h-8v10q4 10 6 26t2 18zM376 1416 q0 -20 -10 -47t-22 -43l-24 -24l-28 -28q-16 -16 -34 -32h-10q0 28 18 56t34 46l76 76v-4z" />
<glyph unicode="&#xa8;" horiz-adv-x="1354" d="M504 1472l-128 -130q-8 -6 -21 -7t-23 -1h-18l128 128q8 8 22 9t22 1h18zM350 1488h2q10 0 22 -2t12 -14q0 -2 -1 -4t-1 -6l-110 -110q-8 -8 -16 -9t-16 -1q-10 0 -16 1t-14 9zM288 1540l26 -26l-136 -136l-4 -2q-8 0 -17 6t-15 12zM230 1600l26 -24l-146 -146l-18 32z M212 1692v-50l-128 -128v50zM1100 1458l-128 -130q-8 -6 -21 -7t-23 -1h-18l128 128q8 8 22 9t22 1h18zM946 1474h2q10 0 22 -2t12 -14q0 -2 -1 -4t-1 -6l-110 -110q-8 -8 -16 -9t-16 -1q-10 0 -16 1t-14 9zM884 1526l26 -26l-136 -136l-4 -2q-8 0 -17 6t-15 12zM826 1586 l26 -24l-146 -146l-18 32zM808 1678v-50l-128 -128v50z" />
<glyph unicode="&#xad;" horiz-adv-x="1012" d="M310 674h50l-138 -138q-4 -2 -6 -2q-2 -2 -4 -2h-2q-6 0 -17 1t-13 9zM482 674l-138 -138h-52l136 138h54zM592 674q-4 -4 -9 -14t-9 -14q-6 -6 -20 -21t-30 -31l-31 -31l-21 -21q-16 -4 -26 -5t-26 -1h-18l130 128q6 4 21 7t25 3h14zM222 698h6h4q4 -2 13 -8t13 -10 l-138 -138l-40 10zM712 674l-128 -132h-52l128 132h52zM822 674l-128 -132h-52l128 132h52zM212 792q0 -26 -12 -49t-30 -43t-39 -38t-37 -32q-2 -4 -11 -10t-13 -8v18q0 8 1 22t5 22l122 118h14zM70 776l138 136v-52l-132 -128q0 4 -3 17t-3 17v4v6z" />
<glyph unicode="&#xaf;" horiz-adv-x="1012" d="M280 1452h40v-12l-128 -128h-10q-10 0 -17 1t-15 7zM442 1452l-8 -18q-2 -2 -14 -15t-28 -30t-33 -33t-27 -26q-18 -16 -25 -18t-27 -2q-4 0 -14 1t-12 1l128 128zM554 1440l-130 -128h-52l130 128h52zM620 1452h52l-136 -140h-44v8zM792 1452l-128 -132q-8 -8 -18 -8 h-20h-22l136 140h52zM868 1452l-118 -122q-2 -2 -8 -4t-10 -6h-4h-2l128 132h14zM64 1356l140 136l24 -26l-138 -136q0 -2 -8 -2q-18 0 -18 24v4zM192 1594v-50l-128 -128v50zM192 1714v-58l-128 -128v58z" />
<glyph unicode="&#xb4;" horiz-adv-x="690" d="M288 1472h8q6 0 17 -2t11 -12l-2 -4l-128 -128h-10q-10 0 -18 1t-16 7zM194 1498h2h6q4 0 18 -4t18 -4l-138 -138h-14q-6 0 -16 -1t-12 7zM176 1540l-128 -128v22v20t10 18l118 120v-52zM252 1776q0 -28 -17 -57t-41 -56t-50 -51t-44 -38q-4 -2 -9 -5t-7 -3v2v6q0 6 6 26 t10 26q2 4 4 9t6 9l142 140v-8z" />
<glyph unicode="&#xb8;" horiz-adv-x="702" d="M340 -420h52l-128 -132q-8 -8 -25 -9t-27 -1v10zM248 -396h2h6q4 -2 17 -4t17 -6l-136 -136q-2 -2 -4 -2h-4q-10 0 -18 3t-18 7zM522 -414q-4 -4 -16 -17t-26 -26t-26 -26t-18 -17q-18 -16 -42 -30t-48 -14q-2 0 -6 1t-8 1l122 122q8 0 16 2q6 2 14 2t12 2h14h12z M186 -344q4 -4 10 -14t8 -12v-4v-6l-138 -136h-8v42zM154 -304q-2 6 1 26t7 26q2 4 14 17t22 19h4q2 0 3 1t3 1q0 -16 -4 -38t-18 -34l-110 -110h-10zM332 -200q4 16 18 18t26 2q2 0 12 -1t14 -1q-20 -26 -48 -26h-12t-10 8zM144 -158l138 140q2 -4 5 -18t3 -18v-6v-2 l-136 -138q-2 4 -5 18t-5 18v4v2zM290 -122q4 -10 7 -25t3 -25h-62z" />
<glyph unicode="&#xc0;" d="M1068 1878v-10q0 -2 -10 -12l-24 -24t-29 -28t-23 -22q-18 -16 -44 -29t-54 -13h-6l140 138h50zM956 1928q18 -14 18 -30v-6l-138 -134l-16 32zM784 1878l138 136l18 -34l-138 -138h-6h-2q-2 2 -5 12t-5 14v4v6zM750 1954l140 136l14 -34l-136 -138h-4h-6q0 2 -2 12 t-6 14v6v4zM736 2012l140 142l8 -26l-136 -138h-4h-6q0 2 1 5t-3 7v6v4zM446 -66l-136 -138h-52l128 128q8 10 18 10h20h22zM300 -52h4h6q4 0 13 -3t13 -3v-6v-2l-128 -132h-14q-8 0 -15 1t-15 11zM1508 -52l-138 -134h-52l138 134h52zM-8 -148q0 8 1 15t7 13l120 120 q18 -10 18 -30v-4l-138 -138q-8 4 -8 11v13zM248 -40l-128 -132h-58l128 132h58zM1566 -52q16 4 35 11t35 7v-6q0 -2 -12 -14t-28 -29t-33 -34l-29 -29q-6 -4 -19 -13t-15 -13h-26h-26zM1748 -40l-130 -132h-52l138 138zM1260 -128l136 138l18 -36l-136 -136q-18 10 -18 32 v2zM1362 88q18 -14 18 -32v-4l-138 -136q-2 0 -4 2q-4 4 -4 6q-2 4 -6 14t-2 10zM1328 172q6 -8 7 -15t1 -17q0 -8 -1 -14t-7 -14q-6 -6 -20 -21t-30 -31t-31 -30t-21 -20q-4 -4 -13 -10t-13 -8v52zM190 184v-2q-4 -6 -9 -26t-9 -28l-4 -8l-4 -8l-102 -102v2v6q0 4 2 13 t6 13q4 10 13 29t11 21q6 6 19 20t28 29t29 28t20 19v-6zM1164 120l140 138l14 -36l-136 -134q-18 8 -18 30v2zM968 274h50v-8l-11 -12t-28 -29l-34 -34t-29 -27q-4 -6 -17 -16t-15 -10q-2 -2 -6 -2h-8q-10 0 -16 1t-14 9zM1132 266l-128 -128h-52l128 128h52zM1226 274 q2 0 8 -3t8 -5l-128 -128h-52l128 128q2 0 12 4t14 4h6h4zM768 276q2 0 10 -1t10 -1l-128 -128h-36q4 4 10 18t8 18q4 4 16 15t25 25t27 26t20 18q8 8 17 9t21 1zM916 284l-128 -130q-8 -8 -18 -8h-20h-20l136 138h50zM274 386q-2 -6 -9 -21t-15 -32t-16 -31t-12 -18 q-2 -6 -12 -18t-22 -24t-24 -22t-18 -12v2v6q6 16 16 41t10 27zM350 578q0 -22 -17 -56t-33 -50q-8 -10 -19 -22t-21 -22q-12 -12 -28 -26h-10q0 22 16 51t28 43q6 6 18 19t25 26l25 25t16 18v-6zM430 768q0 -14 -8 -39t-18 -35l-104 -102v4v4q2 4 8 24t10 26q0 4 4 12 q2 4 4 6l104 102v-2zM1080 848q2 -4 9 -17t7 -17q0 -2 -3 -8l-5 -10q-4 -4 -13 -14t-20 -20t-21 -20t-16 -12q-10 -10 -19 -10h-21h-26zM1114 762q18 -8 18 -30q0 -14 -14 -13t-22 1h-26zM898 776l2 2l2 2l134 136q4 -2 10 -12t8 -14v-4v-2l-138 -140q-6 6 -12 15t-6 17z M472 884l-104 -104v4v4q4 6 10 26t8 26q4 4 6 10t2 8l102 102zM1018 968l-84 -84q10 34 26 64t44 56zM558 1126v-4q-2 -4 -9 -24t-9 -28l-4 -8l-4 -8l-102 -102v2v6q0 4 6 21t10 23t11 18t7 14q4 6 17 20t28 29t29 28t20 19v-6zM634 1328q-14 -64 -43 -100t-77 -82 q-2 0 -8 -3t-10 -3q6 18 13 44t23 42zM694 1500v-4v-6q0 -4 -7 -21t-9 -23q-4 -6 -11 -18t-7 -14q-4 -6 -17 -20t-28 -29t-29 -28t-20 -19l26 78z" />
<glyph unicode="&#xc1;" d="M1024 1894h8q6 0 17 -2t11 -12l-2 -4l-128 -128h-10q-10 0 -18 1t-16 7zM930 1920h2h6q4 0 18 -4t18 -4l-138 -138h-14q-6 0 -16 -1t-12 7zM912 1962l-128 -128v22v20t10 18l118 120v-52zM988 2198q0 -28 -17 -57t-41 -56t-50 -51t-44 -38q-4 -2 -9 -5t-7 -3v2v6 q0 6 6 26t10 26q2 4 4 9t6 9l142 140v-8zM446 -66l-136 -138h-52l128 128q8 10 18 10h20h22zM300 -52h4h6q4 0 13 -3t13 -3v-6v-2l-128 -132h-14q-8 0 -15 1t-15 11zM1508 -52l-138 -134h-52l138 134h52zM-8 -148q0 8 1 15t7 13l120 120q18 -10 18 -30v-4l-138 -138 q-8 4 -8 11v13zM248 -40l-128 -132h-58l128 132h58zM1566 -52q16 4 35 11t35 7v-6q0 -2 -12 -14t-28 -29t-33 -34l-29 -29q-6 -4 -19 -13t-15 -13h-26h-26zM1748 -40l-130 -132h-52l138 138zM1260 -128l136 138l18 -36l-136 -136q-18 10 -18 32v2zM1362 88q18 -14 18 -32v-4 l-138 -136q-2 0 -4 2q-4 4 -4 6q-2 4 -6 14t-2 10zM1328 172q6 -8 7 -15t1 -17q0 -8 -1 -14t-7 -14q-6 -6 -20 -21t-30 -31t-31 -30t-21 -20q-4 -4 -13 -10t-13 -8v52zM190 184v-2q-4 -6 -9 -26t-9 -28l-4 -8l-4 -8l-102 -102v2v6q0 4 2 13t6 13q4 10 13 29t11 21q6 6 19 20 t28 29t29 28t20 19v-6zM1164 120l140 138l14 -36l-136 -134q-18 8 -18 30v2zM968 274h50v-8l-11 -12t-28 -29l-34 -34t-29 -27q-4 -6 -17 -16t-15 -10q-2 -2 -6 -2h-8q-10 0 -16 1t-14 9zM1132 266l-128 -128h-52l128 128h52zM1226 274q2 0 8 -3t8 -5l-128 -128h-52l128 128 q2 0 12 4t14 4h6h4zM768 276q2 0 10 -1t10 -1l-128 -128h-36q4 4 10 18t8 18q4 4 16 15t25 25t27 26t20 18q8 8 17 9t21 1zM916 284l-128 -130q-8 -8 -18 -8h-20h-20l136 138h50zM274 386q-2 -6 -9 -21t-15 -32t-16 -31t-12 -18q-2 -6 -12 -18t-22 -24t-24 -22t-18 -12v2v6 q6 16 16 41t10 27zM350 578q0 -22 -17 -56t-33 -50q-8 -10 -19 -22t-21 -22q-12 -12 -28 -26h-10q0 22 16 51t28 43q6 6 18 19t25 26l25 25t16 18v-6zM430 768q0 -14 -8 -39t-18 -35l-104 -102v4v4q2 4 8 24t10 26q0 4 4 12q2 4 4 6l104 102v-2zM1080 848q2 -4 9 -17t7 -17 q0 -2 -3 -8l-5 -10q-4 -4 -13 -14t-20 -20t-21 -20t-16 -12q-10 -10 -19 -10h-21h-26zM1114 762q18 -8 18 -30q0 -14 -14 -13t-22 1h-26zM898 776l2 2l2 2l134 136q4 -2 10 -12t8 -14v-4v-2l-138 -140q-6 6 -12 15t-6 17zM472 884l-104 -104v4v4q4 6 10 26t8 26q4 4 6 10 t2 8l102 102zM1018 968l-84 -84q10 34 26 64t44 56zM558 1126v-4q-2 -4 -9 -24t-9 -28l-4 -8l-4 -8l-102 -102v2v6q0 4 6 21t10 23t11 18t7 14q4 6 17 20t28 29t29 28t20 19v-6zM634 1328q-14 -64 -43 -100t-77 -82q-2 0 -8 -3t-10 -3q6 18 13 44t23 42zM694 1500v-4v-6 q0 -4 -7 -21t-9 -23q-4 -6 -11 -18t-7 -14q-4 -6 -17 -20t-28 -29t-29 -28t-20 -19l26 78z" />
<glyph unicode="&#xc2;" d="M916 1856h52l-128 -130q-8 -6 -16 -7t-16 -1h-12t-10 8zM1044 1864q4 0 21 -4t23 -4l-22 -22l-34 -34l-34 -34l-22 -22q-16 -16 -24 -17t-28 -1h-26l136 138h6h4zM702 1762l138 136l26 -26l-140 -136l-4 -2l-2 2q-4 0 -10 7t-8 9v6v4zM1172 1872l-128 -128h-10l130 128h8 zM890 2062q-2 -6 -8 -21t-14 -32t-16 -31t-12 -18q-6 -6 -18 -19t-25 -26t-26 -25t-19 -18q6 20 13 46t21 42zM446 -66l-136 -138h-52l128 128q8 10 18 10h20h22zM300 -52h4h6q4 0 13 -3t13 -3v-6v-2l-128 -132h-14q-8 0 -15 1t-15 11zM1508 -52l-138 -134h-52l138 134h52z M-8 -148q0 8 1 15t7 13l120 120q18 -10 18 -30v-4l-138 -138q-8 4 -8 11v13zM248 -40l-128 -132h-58l128 132h58zM1566 -52q16 4 35 11t35 7v-6q0 -2 -12 -14t-28 -29t-33 -34l-29 -29q-6 -4 -19 -13t-15 -13h-26h-26zM1748 -40l-130 -132h-52l138 138zM1260 -128l136 138 l18 -36l-136 -136q-18 10 -18 32v2zM1362 88q18 -14 18 -32v-4l-138 -136q-2 0 -4 2q-4 4 -4 6q-2 4 -6 14t-2 10zM1328 172q6 -8 7 -15t1 -17q0 -8 -1 -14t-7 -14q-6 -6 -20 -21t-30 -31t-31 -30t-21 -20q-4 -4 -13 -10t-13 -8v52zM190 184v-2q-4 -6 -9 -26t-9 -28l-4 -8 l-4 -8l-102 -102v2v6q0 4 2 13t6 13q4 10 13 29t11 21q6 6 19 20t28 29t29 28t20 19v-6zM1164 120l140 138l14 -36l-136 -134q-18 8 -18 30v2zM968 274h50v-8l-11 -12t-28 -29l-34 -34t-29 -27q-4 -6 -17 -16t-15 -10q-2 -2 -6 -2h-8q-10 0 -16 1t-14 9zM1132 266l-128 -128 h-52l128 128h52zM1226 274q2 0 8 -3t8 -5l-128 -128h-52l128 128q2 0 12 4t14 4h6h4zM768 276q2 0 10 -1t10 -1l-128 -128h-36q4 4 10 18t8 18q4 4 16 15t25 25t27 26t20 18q8 8 17 9t21 1zM916 284l-128 -130q-8 -8 -18 -8h-20h-20l136 138h50zM274 386q-2 -6 -9 -21 t-15 -32t-16 -31t-12 -18q-2 -6 -12 -18t-22 -24t-24 -22t-18 -12v2v6q6 16 16 41t10 27zM350 578q0 -22 -17 -56t-33 -50q-8 -10 -19 -22t-21 -22q-12 -12 -28 -26h-10q0 22 16 51t28 43q6 6 18 19t25 26l25 25t16 18v-6zM430 768q0 -14 -8 -39t-18 -35l-104 -102v4v4 q2 4 8 24t10 26q0 4 4 12q2 4 4 6l104 102v-2zM1080 848q2 -4 9 -17t7 -17q0 -2 -3 -8l-5 -10q-4 -4 -13 -14t-20 -20t-21 -20t-16 -12q-10 -10 -19 -10h-21h-26zM1114 762q18 -8 18 -30q0 -14 -14 -13t-22 1h-26zM898 776l2 2l2 2l134 136q4 -2 10 -12t8 -14v-4v-2 l-138 -140q-6 6 -12 15t-6 17zM472 884l-104 -104v4v4q4 6 10 26t8 26q4 4 6 10t2 8l102 102zM1018 968l-84 -84q10 34 26 64t44 56zM558 1126v-4q-2 -4 -9 -24t-9 -28l-4 -8l-4 -8l-102 -102v2v6q0 4 6 21t10 23t11 18t7 14q4 6 17 20t28 29t29 28t20 19v-6zM634 1328 q-14 -64 -43 -100t-77 -82q-2 0 -8 -3t-10 -3q6 18 13 44t23 42zM694 1500v-4v-6q0 -4 -7 -21t-9 -23q-4 -6 -11 -18t-7 -14q-4 -6 -17 -20t-28 -29t-29 -28t-20 -19l26 78z" />
<glyph unicode="&#xc3;" d="M810 1864q0 -8 -8 -14t-19 -12t-21 -10t-14 -8q-4 -2 -15 -12t-23 -21t-24 -21t-14 -12q-12 -10 -18 -14t-18 -4h-8l128 128h54zM1124 1882q4 -2 10 -4q12 -4 16 -4l5 -5t3 -5l-128 -128q-2 -2 -6 -2h-10q-4 0 -15 1t-13 9zM552 1770l128 130h6q20 0 26 -18l-136 -138h-4 h-2q-4 2 -11 8t-7 10l-2 2q-2 0 -2 2zM1260 1874q-4 -6 -16 -19t-25 -26t-26 -25t-17 -16q-12 -10 -35 -25t-41 -19l120 120q0 2 12 5l20 5h6h2zM1038 1916l36 -16l-138 -138h-4q-20 0 -30 18zM482 1820l138 138l26 -26l-138 -138h-6h-2l-10 10l-8 8v6v2zM844 1830l128 128 h10q8 0 15 -1t7 -11v-6l-136 -136q-2 -2 -11 5t-13 11l-4 6zM430 1864q0 4 3 13t5 13l132 128q2 -4 8 -13t6 -13l4 -2q0 -2 -2 -4l-2 -2l-136 -138q-4 2 -11 8t-7 10zM446 -66l-136 -138h-52l128 128q8 10 18 10h20h22zM300 -52h4h6q4 0 13 -3t13 -3v-6v-2l-128 -132h-14 q-8 0 -15 1t-15 11zM1508 -52l-138 -134h-52l138 134h52zM-8 -148q0 8 1 15t7 13l120 120q18 -10 18 -30v-4l-138 -138q-8 4 -8 11v13zM248 -40l-128 -132h-58l128 132h58zM1566 -52q16 4 35 11t35 7v-6q0 -2 -12 -14t-28 -29t-33 -34l-29 -29q-6 -4 -19 -13t-15 -13h-26 h-26zM1748 -40l-130 -132h-52l138 138zM1260 -128l136 138l18 -36l-136 -136q-18 10 -18 32v2zM1362 88q18 -14 18 -32v-4l-138 -136q-2 0 -4 2q-4 4 -4 6q-2 4 -6 14t-2 10zM1328 172q6 -8 7 -15t1 -17q0 -8 -1 -14t-7 -14q-6 -6 -20 -21t-30 -31t-31 -30t-21 -20 q-4 -4 -13 -10t-13 -8v52zM190 184v-2q-4 -6 -9 -26t-9 -28l-4 -8l-4 -8l-102 -102v2v6q0 4 2 13t6 13q4 10 13 29t11 21q6 6 19 20t28 29t29 28t20 19v-6zM1164 120l140 138l14 -36l-136 -134q-18 8 -18 30v2zM968 274h50v-8l-11 -12t-28 -29l-34 -34t-29 -27 q-4 -6 -17 -16t-15 -10q-2 -2 -6 -2h-8q-10 0 -16 1t-14 9zM1132 266l-128 -128h-52l128 128h52zM1226 274q2 0 8 -3t8 -5l-128 -128h-52l128 128q2 0 12 4t14 4h6h4zM768 276q2 0 10 -1t10 -1l-128 -128h-36q4 4 10 18t8 18q4 4 16 15t25 25t27 26t20 18q8 8 17 9t21 1z M916 284l-128 -130q-8 -8 -18 -8h-20h-20l136 138h50zM274 386q-2 -6 -9 -21t-15 -32t-16 -31t-12 -18q-2 -6 -12 -18t-22 -24t-24 -22t-18 -12v2v6q6 16 16 41t10 27zM350 578q0 -22 -17 -56t-33 -50q-8 -10 -19 -22t-21 -22q-12 -12 -28 -26h-10q0 22 16 51t28 43 q6 6 18 19t25 26l25 25t16 18v-6zM430 768q0 -14 -8 -39t-18 -35l-104 -102v4v4q2 4 8 24t10 26q0 4 4 12q2 4 4 6l104 102v-2zM1080 848q2 -4 9 -17t7 -17q0 -2 -3 -8l-5 -10q-4 -4 -13 -14t-20 -20t-21 -20t-16 -12q-10 -10 -19 -10h-21h-26zM1114 762q18 -8 18 -30 q0 -14 -14 -13t-22 1h-26zM898 776l2 2l2 2l134 136q4 -2 10 -12t8 -14v-4v-2l-138 -140q-6 6 -12 15t-6 17zM472 884l-104 -104v4v4q4 6 10 26t8 26q4 4 6 10t2 8l102 102zM1018 968l-84 -84q10 34 26 64t44 56zM558 1126v-4q-2 -4 -9 -24t-9 -28l-4 -8l-4 -8l-102 -102v2 v6q0 4 6 21t10 23t11 18t7 14q4 6 17 20t28 29t29 28t20 19v-6zM634 1328q-14 -64 -43 -100t-77 -82q-2 0 -8 -3t-10 -3q6 18 13 44t23 42zM694 1500v-4v-6q0 -4 -7 -21t-9 -23q-4 -6 -11 -18t-7 -14q-4 -6 -17 -20t-28 -29t-29 -28t-20 -19l26 78z" />
<glyph unicode="&#xc4;" d="M792 1888l-128 -130q-8 -6 -21 -7t-23 -1h-18l128 128q8 8 22 9t22 1h18zM638 1904h2q10 0 22 -2t12 -14q0 -2 -1 -4t-1 -6l-110 -110q-8 -8 -16 -9t-16 -1q-10 0 -16 1t-14 9zM576 1956l26 -26l-136 -136l-4 -2q-8 0 -17 6t-15 12zM518 2016l26 -24l-146 -146l-18 32z M500 2108v-50l-128 -128v50zM1388 1874l-128 -130q-8 -6 -21 -7t-23 -1h-18l128 128q8 8 22 9t22 1h18zM1234 1890h2q10 0 22 -2t12 -14q0 -2 -1 -4t-1 -6l-110 -110q-8 -8 -16 -9t-16 -1q-10 0 -16 1t-14 9zM1172 1942l26 -26l-136 -136l-4 -2q-8 0 -17 6t-15 12z M1114 2002l26 -24l-146 -146l-18 32zM1096 2094v-50l-128 -128v50zM446 -66l-136 -138h-52l128 128q8 10 18 10h20h22zM300 -52h4h6q4 0 13 -3t13 -3v-6v-2l-128 -132h-14q-8 0 -15 1t-15 11zM1508 -52l-138 -134h-52l138 134h52zM-8 -148q0 8 1 15t7 13l120 120 q18 -10 18 -30v-4l-138 -138q-8 4 -8 11v13zM248 -40l-128 -132h-58l128 132h58zM1566 -52q16 4 35 11t35 7v-6q0 -2 -12 -14t-28 -29t-33 -34l-29 -29q-6 -4 -19 -13t-15 -13h-26h-26zM1748 -40l-130 -132h-52l138 138zM1260 -128l136 138l18 -36l-136 -136q-18 10 -18 32 v2zM1362 88q18 -14 18 -32v-4l-138 -136q-2 0 -4 2q-4 4 -4 6q-2 4 -6 14t-2 10zM1328 172q6 -8 7 -15t1 -17q0 -8 -1 -14t-7 -14q-6 -6 -20 -21t-30 -31t-31 -30t-21 -20q-4 -4 -13 -10t-13 -8v52zM190 184v-2q-4 -6 -9 -26t-9 -28l-4 -8l-4 -8l-102 -102v2v6q0 4 2 13 t6 13q4 10 13 29t11 21q6 6 19 20t28 29t29 28t20 19v-6zM1164 120l140 138l14 -36l-136 -134q-18 8 -18 30v2zM968 274h50v-8l-11 -12t-28 -29l-34 -34t-29 -27q-4 -6 -17 -16t-15 -10q-2 -2 -6 -2h-8q-10 0 -16 1t-14 9zM1132 266l-128 -128h-52l128 128h52zM1226 274 q2 0 8 -3t8 -5l-128 -128h-52l128 128q2 0 12 4t14 4h6h4zM768 276q2 0 10 -1t10 -1l-128 -128h-36q4 4 10 18t8 18q4 4 16 15t25 25t27 26t20 18q8 8 17 9t21 1zM916 284l-128 -130q-8 -8 -18 -8h-20h-20l136 138h50zM274 386q-2 -6 -9 -21t-15 -32t-16 -31t-12 -18 q-2 -6 -12 -18t-22 -24t-24 -22t-18 -12v2v6q6 16 16 41t10 27zM350 578q0 -22 -17 -56t-33 -50q-8 -10 -19 -22t-21 -22q-12 -12 -28 -26h-10q0 22 16 51t28 43q6 6 18 19t25 26l25 25t16 18v-6zM430 768q0 -14 -8 -39t-18 -35l-104 -102v4v4q2 4 8 24t10 26q0 4 4 12 q2 4 4 6l104 102v-2zM1080 848q2 -4 9 -17t7 -17q0 -2 -3 -8l-5 -10q-4 -4 -13 -14t-20 -20t-21 -20t-16 -12q-10 -10 -19 -10h-21h-26zM1114 762q18 -8 18 -30q0 -14 -14 -13t-22 1h-26zM898 776l2 2l2 2l134 136q4 -2 10 -12t8 -14v-4v-2l-138 -140q-6 6 -12 15t-6 17z M472 884l-104 -104v4v4q4 6 10 26t8 26q4 4 6 10t2 8l102 102zM1018 968l-84 -84q10 34 26 64t44 56zM558 1126v-4q-2 -4 -9 -24t-9 -28l-4 -8l-4 -8l-102 -102v2v6q0 4 6 21t10 23t11 18t7 14q4 6 17 20t28 29t29 28t20 19v-6zM634 1328q-14 -64 -43 -100t-77 -82 q-2 0 -8 -3t-10 -3q6 18 13 44t23 42zM694 1500v-4v-6q0 -4 -7 -21t-9 -23q-4 -6 -11 -18t-7 -14q-4 -6 -17 -20t-28 -29t-29 -28t-20 -19l26 78z" />
<glyph unicode="&#xc5;" d="M1024 1848h40l-118 -120q-8 -10 -24 -14t-26 -4v6zM808 1742l138 138q4 0 8 -2l8 -4q2 -4 5 -6t5 -6v-2v-4l-130 -128q-2 -2 -4 -2q-2 -2 -4 -2q-6 0 -16 3t-10 13v2zM758 1812l138 138q2 -4 8 -18t6 -18v-2v-6q-6 -6 -21 -22t-33 -34l-34 -34l-22 -22q-2 -2 -11 -8 t-13 -8l-6 -2q-10 0 -11 11t-1 17v8zM886 2002l-122 -122v6v2q4 4 10 14t8 12l21 21t31 32t31 31t21 18v-14zM446 -66l-136 -138h-52l128 128q8 10 18 10h20h22zM300 -52h4h6q4 0 13 -3t13 -3v-6v-2l-128 -132h-14q-8 0 -15 1t-15 11zM1508 -52l-138 -134h-52l138 134h52z M-8 -148q0 8 1 15t7 13l120 120q18 -10 18 -30v-4l-138 -138q-8 4 -8 11v13zM248 -40l-128 -132h-58l128 132h58zM1566 -52q16 4 35 11t35 7v-6q0 -2 -12 -14t-28 -29t-33 -34l-29 -29q-6 -4 -19 -13t-15 -13h-26h-26zM1748 -40l-130 -132h-52l138 138zM1260 -128l136 138 l18 -36l-136 -136q-18 10 -18 32v2zM1362 88q18 -14 18 -32v-4l-138 -136q-2 0 -4 2q-4 4 -4 6q-2 4 -6 14t-2 10zM1328 172q6 -8 7 -15t1 -17q0 -8 -1 -14t-7 -14q-6 -6 -20 -21t-30 -31t-31 -30t-21 -20q-4 -4 -13 -10t-13 -8v52zM190 184v-2q-4 -6 -9 -26t-9 -28l-4 -8 l-4 -8l-102 -102v2v6q0 4 2 13t6 13q4 10 13 29t11 21q6 6 19 20t28 29t29 28t20 19v-6zM1164 120l140 138l14 -36l-136 -134q-18 8 -18 30v2zM968 274h50v-8l-11 -12t-28 -29l-34 -34t-29 -27q-4 -6 -17 -16t-15 -10q-2 -2 -6 -2h-8q-10 0 -16 1t-14 9zM1132 266l-128 -128 h-52l128 128h52zM1226 274q2 0 8 -3t8 -5l-128 -128h-52l128 128q2 0 12 4t14 4h6h4zM768 276q2 0 10 -1t10 -1l-128 -128h-36q4 4 10 18t8 18q4 4 16 15t25 25t27 26t20 18q8 8 17 9t21 1zM916 284l-128 -130q-8 -8 -18 -8h-20h-20l136 138h50zM274 386q-2 -6 -9 -21 t-15 -32t-16 -31t-12 -18q-2 -6 -12 -18t-22 -24t-24 -22t-18 -12v2v6q6 16 16 41t10 27zM350 578q0 -22 -17 -56t-33 -50q-8 -10 -19 -22t-21 -22q-12 -12 -28 -26h-10q0 22 16 51t28 43q6 6 18 19t25 26l25 25t16 18v-6zM430 768q0 -14 -8 -39t-18 -35l-104 -102v4v4 q2 4 8 24t10 26q0 4 4 12q2 4 4 6l104 102v-2zM1080 848q2 -4 9 -17t7 -17q0 -2 -3 -8l-5 -10q-4 -4 -13 -14t-20 -20t-21 -20t-16 -12q-10 -10 -19 -10h-21h-26zM1114 762q18 -8 18 -30q0 -14 -14 -13t-22 1h-26zM898 776l2 2l2 2l134 136q4 -2 10 -12t8 -14v-4v-2 l-138 -140q-6 6 -12 15t-6 17zM472 884l-104 -104v4v4q4 6 10 26t8 26q4 4 6 10t2 8l102 102zM1018 968l-84 -84q10 34 26 64t44 56zM558 1126v-4q-2 -4 -9 -24t-9 -28l-4 -8l-4 -8l-102 -102v2v6q0 4 6 21t10 23t11 18t7 14q4 6 17 20t28 29t29 28t20 19v-6zM634 1328 q-14 -64 -43 -100t-77 -82q-2 0 -8 -3t-10 -3q6 18 13 44t23 42zM694 1500v-4v-6q0 -4 -7 -21t-9 -23q-4 -6 -11 -18t-7 -14q-4 -6 -17 -20t-28 -29t-29 -28t-20 -19l26 78z" />
<glyph unicode="&#xc6;" horiz-adv-x="2132" d="M394 -76l-128 -128h-50l134 138zM464 -76l-132 -128h-6l128 128h10zM248 -52q2 0 6 2q4 0 5 1t5 1h15t13 -10l-138 -140l-42 12zM1438 -66v-10q0 -2 -11 -13l-26 -26l-31 -31l-26 -26q-16 -14 -35 -20t-41 -6h-8l128 132h50zM1644 -58q4 0 13 -4t13 -4l-128 -132h-52 l128 132q2 2 6 4q8 4 12 4h4h4zM1798 -58l-128 -128l-60 -12l136 140h52zM1180 -48q10 0 18 -3t18 -7l-128 -128h-52l136 134q2 0 4 2q2 0 2 1t2 1zM1336 -58l-128 -128h-50l128 128h50zM1566 -58l-128 -128h-50l128 128h50zM190 -52l-132 -128h-50l130 128h52zM1088 -26 l26 -26l-128 -128h-36v18zM1928 -40l-5 -10t-5 -8q-18 -20 -36 -41t-39 -39t-45 -30t-52 -12h-8l128 128q0 4 17 6t27 6h8h10zM102 36q0 -4 1 -14t1 -12v-23t-10 -21l-112 -112h-10q0 2 1 5t1 5q26 50 53 93t75 79zM1026 36q4 -4 6 -18t4 -18v-10v-6l-128 -130h-10v52z M1026 146v-52l-128 -128l-8 44zM190 228v-6q-6 -14 -16 -40t-10 -28l-106 -102v4v6q4 2 6 12t6 14q4 10 13 29t11 21q6 6 19 20t28 29t29 28t20 17v-4zM1018 258h8v-42l-136 -140v52zM924 274h52l-136 -136h-44v8zM738 266l-122 -120v8v10q16 40 37 71t67 31h18zM866 274 q-6 -6 -23 -22t-35 -33t-34 -33l-22 -22q-16 -16 -22 -18t-28 -2q-4 0 -13 1t-13 1l128 128h62zM282 446q0 -6 -7 -26t-9 -26q-4 -6 -10 -20t-8 -14l-102 -102q0 4 4 13t4 13q6 14 19 39t17 27q4 6 17 20t28 29l28 28zM360 634q-4 -8 -14 -30t-14 -30q-2 -4 -3 -9t-5 -11 q-4 -8 -6 -14q-6 -6 -19 -20t-28 -29t-29 -28t-20 -17q2 6 7 19t12 28t14 29t11 18q4 6 17 20t28 29t29 28t20 17zM1636 704l-128 -130h-28q0 8 2 19t8 17l94 94h52zM1746 704v-10l-110 -110q-10 -10 -21 -10h-23h-26l128 130h52zM1866 712v-8l-120 -120q-8 -10 -18 -10h-20 h-20l134 138h44zM428 818q0 -2 2 -4q0 -30 -16 -55t-38 -47q-6 -8 -18 -20t-22 -23t-19 -19l-9 -8h-8q2 6 8 26t10 26q2 6 8 20t6 16l19 19t28 27t29 27t20 19v-4zM1516 704l-26 -28v28h26zM1018 712h-6l6 8v-8zM1012 822q6 -8 6 -26q0 -8 -1 -13t-5 -13q-6 -6 -15 -14 t-17 -16q-10 -8 -20 -20h-52zM1012 916q0 -20 -1 -27t-17 -23l-22 -22l-34 -34l-33 -33l-21 -21q0 2 -2 7t-2 7q0 14 4 32t14 30l114 110v-26zM496 1004q-2 -6 -8 -26t-10 -26q-2 -8 -8 -20t-6 -16l-19 -19l-28 -28l-29 -29t-20 -18v4v6q4 4 9 23t9 29l4 8q2 4 4 6z M1012 1004l-78 -80q12 28 30 68t48 62v-50zM566 1186v-4q-2 -4 -9 -21t-9 -21q-4 -6 -10 -20t-8 -14q-4 -6 -17 -20t-28 -29l-28 -28t-19 -17v4v2q0 4 6 21t10 23l10 20q4 8 8 14t17 20t28 29t29 28t20 17v-4zM1584 1286h52l-128 -128h-44v6zM1764 1292l-128 -128 q-10 -8 -19 -9t-19 -1q-4 0 -12 2t-12 2l138 134h52zM1874 1292v-6q0 -2 -12 -15t-30 -31l-37 -37l-31 -31q-16 -14 -24 -16t-28 -2q-4 0 -13 2t-11 2l134 134h52zM634 1370q-2 -6 -8 -26t-10 -26t-9 -18t-7 -14l-104 -104l26 78zM1502 1290q4 0 11 -2t11 -2l-52 -52v6v2 q2 10 5 27t5 17q4 0 8 2q4 0 7 1t5 1zM702 1554q0 -10 -6 -26t-15 -33t-20 -33t-19 -24l-68 -68v10q0 10 2 16l6 18q4 10 14 29t10 21q6 6 19 20t28 29t29 28t20 19v-6z" />
<glyph unicode="&#xc7;" horiz-adv-x="1638" d="M1254 -72l14 14q10 8 19 7t19 -1h22l-42 -42zM208 932q0 -20 -1 -27t-17 -25l-102 -102l-18 -8v18q0 8 1 22t5 20l132 130v-28zM650 18l42 -20l-126 -126q-2 -2 -8 -5l-10 -5h-2q-22 0 -32 18zM120 410l128 130h10q0 -2 3 -12t5 -14v-10l-4 -8l-4 -8l-112 -112l-18 -8 q-8 18 -8 36v6zM258 84l136 138q12 -4 15 -12t3 -18v-12l-128 -128q-4 2 -13 11l-13 13q-2 0 -2 2v4zM1080 1318q-2 -2 -5 -8l-5 -10l-16 -16t-25 -26t-26 -26t-17 -16q-28 -28 -64 -28q-4 0 -12 1t-12 1l120 120q6 6 22 7t28 1h12zM1178 -422q-4 -4 -16 -17t-26 -26 t-26 -26t-18 -17q-18 -16 -42 -30t-48 -14q-2 0 -6 1t-8 1l122 122q8 0 16 2q6 2 14 2t12 2h26zM456 162q18 -10 18 -26q0 -2 -1 -2t-1 -2v-4l-136 -136l-26 26zM146 318l136 136l10 -44l-138 -136q-6 8 -7 15t-1 15v14zM904 -404h8q4 -2 17 -4t17 -6l-136 -136q-2 -2 -4 -2 h-4q-10 0 -18 3t-18 7zM996 -428h52l-128 -132q-8 -8 -25 -9t-27 -1v10zM938 -26q2 -4 5 -18t3 -18v-8l-136 -138q-2 4 -5 18t-5 18v6zM1252 1310h12h16t12 -10l-134 -136l-42 12zM574 52h8q16 0 28 -18l-138 -136l-34 14zM842 -352q4 -4 10 -14t8 -12v-10l-138 -136h-8v42z M506 102h8q4 -2 10 -8t8 -10v-8l-138 -134l-26 24zM814 -52h8q14 0 36 -6l-138 -140l-44 8zM600 -154l130 128h10q10 0 16 -1t14 -7l-136 -138h-6q-10 0 -19 2t-9 12v4zM208 840v-52l-132 -130v54zM344 282q16 -8 16 -26v-8l-128 -128l-4 -2l-6 2l-4 4q-2 2 -2 4q-4 4 -8 10 t0 8zM172 230l128 128l4 2q10 0 12 -11t2 -17v-6l-138 -136q-8 16 -8 36v4zM1170 1328h16t12 -10l-128 -128h-52l140 136h6q2 0 3 1t3 1zM216 738q2 -4 4 -18t2 -18v-8l-134 -138v50zM102 504l130 128h8v-40l-128 -128q-8 8 -9 14t-1 16v10zM222 1088q0 -6 -2 -23t-4 -21 t-6 -16q-2 -6 -2 -10l-114 -112v10q0 12 4 31t14 29zM942 1292l-120 -120q-12 0 -20 -2q-10 -2 -18 -3t-14 -3h-8l96 96q14 10 35 21t41 11h8zM1482 -8q-30 -36 -82 -78t-96 -60l110 112zM810 -312q-2 6 1 26t7 26q2 4 14 17t22 19h4q2 0 3 1t3 1q0 -16 -4 -38t-18 -34 l-110 -110h-10zM274 1250q0 -4 -3 -13t-5 -13q-4 -8 -10 -25t-8 -19l-94 -92q28 46 54 87t66 75zM946 -130q4 -10 7 -25t3 -25h-62zM988 -208q4 16 18 18t26 2q2 0 12 -1t14 -1q-20 -26 -48 -26h-12t-10 8z" />
<glyph unicode="&#xc8;" horiz-adv-x="1352" d="M786 1878v-10q0 -2 -10 -12l-24 -24t-29 -28t-23 -22q-18 -16 -44 -29t-54 -13h-6l140 138h50zM674 1928q18 -14 18 -30v-6l-138 -134l-16 32zM502 1878l138 136l18 -34l-138 -138h-6h-2q-2 2 -5 12t-5 14v4v6zM468 1954l140 136l14 -34l-136 -138h-4h-6q0 2 -2 12t-6 14 v6v4zM454 2012l140 142l8 -26l-136 -138h-4h-6q0 2 1 5t-3 7v6v4zM658 -62l-110 -110q-2 -2 -22 -8t-30 -10h-8h-10l128 128h52zM898 -52l-136 -138h-52l138 138h50zM404 -44q10 0 16 -1t16 -7l-128 -130h-52l138 138h10zM548 -52v-10l-112 -110q-10 -10 -21 -10h-21h-26 l128 130h52zM744 -44q4 0 17 -2t17 -6l-128 -130h-50l128 130q2 4 8 6t8 2zM1012 -52v-10l-114 -110q-10 -10 -21 -10h-21h-26l128 130h54zM162 -156l138 138h4h4q4 -2 9 -8t9 -10v-2v-6l-128 -128q-2 -2 -6 -2h-8q-6 0 -14 3t-8 13v2zM1146 -36l-128 -128l-60 -8l130 128 q6 6 21 7t25 1h12zM110 -94l130 128q4 -4 10 -13t6 -13v-2q0 -2 1 -2t1 -2l-2 -2l-136 -138q-10 2 -10 13v15v16zM240 154h10v-30t-10 -32l-130 -128v62zM240 264v-52l-130 -128v52zM240 332l-130 -128v22v20t10 18l120 120v-52zM248 504v-50l-128 -128v50zM248 624v-24v-23 t-8 -21l-112 -114h-8v54zM100 582q0 2 2 6l138 140v-52l-130 -128q-8 2 -9 12t-1 16v6zM856 710l-22 -22l-34 -34t-34 -33t-22 -21q-18 -22 -46 -22q0 10 1 23t11 23q8 10 23 25l28 28t24 23l11 10h60zM968 720v-10l-128 -128h-52l128 128zM1036 720h52l-130 -132 q-6 -4 -25 -7t-27 -3v10zM230 838v-52l-128 -128v52zM738 710l-28 -26v26h28zM230 950v-52l-128 -128h-8v42zM222 1060v-26q0 -10 1 -21t-7 -19l-114 -114h-8v52zM84 1034l138 138v-50l-128 -128q-10 2 -10 12v16v12zM216 1282v-50l-132 -128v50zM804 1292h52l-128 -130h-44 v10zM916 1292q8 10 18 9t20 -1h22l-8 -18l-112 -110q0 -2 -17 -5t-25 -5h-18v10zM1096 1300l-128 -128q-6 -6 -22 -8t-26 -2h-14l138 138h52zM216 1396v-52l-132 -130v54zM738 1292l-44 -42q0 2 -1 6t-1 6q0 16 5 23t23 7h18zM204 1506h16q0 -24 -3 -38t-19 -32l-31 -31 l-37 -37t-31 -30t-15 -12h-8v52zM204 1566l-128 -130v12q0 18 8 36t18 32q6 6 21 20t31 30t30 31t20 21v-52z" />
<glyph unicode="&#xc9;" horiz-adv-x="1352" d="M674 1888h8q6 0 17 -2t11 -12l-2 -4l-128 -128h-10q-10 0 -18 1t-16 7zM580 1914h2h6q4 0 18 -4t18 -4l-138 -138h-14q-6 0 -16 -1t-12 7zM562 1956l-128 -128v22v20t10 18l118 120v-52zM638 2192q0 -28 -17 -57t-41 -56t-50 -51t-44 -38q-4 -2 -9 -5t-7 -3v2v6q0 6 6 26 t10 26q2 4 4 9t6 9l142 140v-8zM658 -62l-110 -110q-2 -2 -22 -8t-30 -10h-8h-10l128 128h52zM898 -52l-136 -138h-52l138 138h50zM404 -44q10 0 16 -1t16 -7l-128 -130h-52l138 138h10zM548 -52v-10l-112 -110q-10 -10 -21 -10h-21h-26l128 130h52zM744 -44q4 0 17 -2 t17 -6l-128 -130h-50l128 130q2 4 8 6t8 2zM1012 -52v-10l-114 -110q-10 -10 -21 -10h-21h-26l128 130h54zM162 -156l138 138h4h4q4 -2 9 -8t9 -10v-2v-6l-128 -128q-2 -2 -6 -2h-8q-6 0 -14 3t-8 13v2zM1146 -36l-128 -128l-60 -8l130 128q6 6 21 7t25 1h12zM110 -94 l130 128q4 -4 10 -13t6 -13v-2q0 -2 1 -2t1 -2l-2 -2l-136 -138q-10 2 -10 13v15v16zM240 154h10v-30t-10 -32l-130 -128v62zM240 264v-52l-130 -128v52zM240 332l-130 -128v22v20t10 18l120 120v-52zM248 504v-50l-128 -128v50zM248 624v-24v-23t-8 -21l-112 -114h-8v54z M100 582q0 2 2 6l138 140v-52l-130 -128q-8 2 -9 12t-1 16v6zM856 710l-22 -22l-34 -34t-34 -33t-22 -21q-18 -22 -46 -22q0 10 1 23t11 23q8 10 23 25l28 28t24 23l11 10h60zM968 720v-10l-128 -128h-52l128 128zM1036 720h52l-130 -132q-6 -4 -25 -7t-27 -3v10zM230 838 v-52l-128 -128v52zM738 710l-28 -26v26h28zM230 950v-52l-128 -128h-8v42zM222 1060v-26q0 -10 1 -21t-7 -19l-114 -114h-8v52zM84 1034l138 138v-50l-128 -128q-10 2 -10 12v16v12zM216 1282v-50l-132 -128v50zM804 1292h52l-128 -130h-44v10zM916 1292q8 10 18 9t20 -1h22 l-8 -18l-112 -110q0 -2 -17 -5t-25 -5h-18v10zM1096 1300l-128 -128q-6 -6 -22 -8t-26 -2h-14l138 138h52zM216 1396v-52l-132 -130v54zM738 1292l-44 -42q0 2 -1 6t-1 6q0 16 5 23t23 7h18zM204 1506h16q0 -24 -3 -38t-19 -32l-31 -31l-37 -37t-31 -30t-15 -12h-8v52z M204 1566l-128 -130v12q0 18 8 36t18 32q6 6 21 20t31 30t30 31t20 21v-52z" />
<glyph unicode="&#xca;" horiz-adv-x="1352" d="M632 1856h52l-128 -130q-8 -6 -16 -7t-16 -1h-12t-10 8zM760 1864q4 0 21 -4t23 -4l-22 -22l-34 -34l-34 -34l-22 -22q-16 -16 -24 -17t-28 -1h-26l136 138h6h4zM418 1762l138 136l26 -26l-140 -136l-4 -2l-2 2q-4 0 -10 7t-8 9v6v4zM888 1872l-128 -128h-10l130 128h8z M606 2062q-2 -6 -8 -21t-14 -32t-16 -31t-12 -18q-6 -6 -18 -19t-25 -26t-26 -25t-19 -18q6 20 13 46t21 42zM658 -62l-110 -110q-2 -2 -22 -8t-30 -10h-8h-10l128 128h52zM898 -52l-136 -138h-52l138 138h50zM404 -44q10 0 16 -1t16 -7l-128 -130h-52l138 138h10zM548 -52 v-10l-112 -110q-10 -10 -21 -10h-21h-26l128 130h52zM744 -44q4 0 17 -2t17 -6l-128 -130h-50l128 130q2 4 8 6t8 2zM1012 -52v-10l-114 -110q-10 -10 -21 -10h-21h-26l128 130h54zM162 -156l138 138h4h4q4 -2 9 -8t9 -10v-2v-6l-128 -128q-2 -2 -6 -2h-8q-6 0 -14 3t-8 13 v2zM1146 -36l-128 -128l-60 -8l130 128q6 6 21 7t25 1h12zM110 -94l130 128q4 -4 10 -13t6 -13v-2q0 -2 1 -2t1 -2l-2 -2l-136 -138q-10 2 -10 13v15v16zM240 154h10v-30t-10 -32l-130 -128v62zM240 264v-52l-130 -128v52zM240 332l-130 -128v22v20t10 18l120 120v-52z M248 504v-50l-128 -128v50zM248 624v-24v-23t-8 -21l-112 -114h-8v54zM100 582q0 2 2 6l138 140v-52l-130 -128q-8 2 -9 12t-1 16v6zM856 710l-22 -22l-34 -34t-34 -33t-22 -21q-18 -22 -46 -22q0 10 1 23t11 23q8 10 23 25l28 28t24 23l11 10h60zM968 720v-10l-128 -128 h-52l128 128zM1036 720h52l-130 -132q-6 -4 -25 -7t-27 -3v10zM230 838v-52l-128 -128v52zM738 710l-28 -26v26h28zM230 950v-52l-128 -128h-8v42zM222 1060v-26q0 -10 1 -21t-7 -19l-114 -114h-8v52zM84 1034l138 138v-50l-128 -128q-10 2 -10 12v16v12zM216 1282v-50 l-132 -128v50zM804 1292h52l-128 -130h-44v10zM916 1292q8 10 18 9t20 -1h22l-8 -18l-112 -110q0 -2 -17 -5t-25 -5h-18v10zM1096 1300l-128 -128q-6 -6 -22 -8t-26 -2h-14l138 138h52zM216 1396v-52l-132 -130v54zM738 1292l-44 -42q0 2 -1 6t-1 6q0 16 5 23t23 7h18z M204 1506h16q0 -24 -3 -38t-19 -32l-31 -31l-37 -37t-31 -30t-15 -12h-8v52zM204 1566l-128 -130v12q0 18 8 36t18 32q6 6 21 20t31 30t30 31t20 21v-52z" />
<glyph unicode="&#xcb;" horiz-adv-x="1352" d="M510 1888l-128 -130q-8 -6 -21 -7t-23 -1h-18l128 128q8 8 22 9t22 1h18zM356 1904h2q10 0 22 -2t12 -14q0 -2 -1 -4t-1 -6l-110 -110q-8 -8 -16 -9t-16 -1q-10 0 -16 1t-14 9zM294 1956l26 -26l-136 -136l-4 -2q-8 0 -17 6t-15 12zM236 2016l26 -24l-146 -146l-18 32z M218 2108v-50l-128 -128v50zM1106 1874l-128 -130q-8 -6 -21 -7t-23 -1h-18l128 128q8 8 22 9t22 1h18zM952 1890h2q10 0 22 -2t12 -14q0 -2 -1 -4t-1 -6l-110 -110q-8 -8 -16 -9t-16 -1q-10 0 -16 1t-14 9zM890 1942l26 -26l-136 -136l-4 -2q-8 0 -17 6t-15 12zM832 2002 l26 -24l-146 -146l-18 32zM814 2094v-50l-128 -128v50zM658 -62l-110 -110q-2 -2 -22 -8t-30 -10h-8h-10l128 128h52zM898 -52l-136 -138h-52l138 138h50zM404 -44q10 0 16 -1t16 -7l-128 -130h-52l138 138h10zM548 -52v-10l-112 -110q-10 -10 -21 -10h-21h-26l128 130h52z M744 -44q4 0 17 -2t17 -6l-128 -130h-50l128 130q2 4 8 6t8 2zM1012 -52v-10l-114 -110q-10 -10 -21 -10h-21h-26l128 130h54zM162 -156l138 138h4h4q4 -2 9 -8t9 -10v-2v-6l-128 -128q-2 -2 -6 -2h-8q-6 0 -14 3t-8 13v2zM1146 -36l-128 -128l-60 -8l130 128q6 6 21 7t25 1 h12zM110 -94l130 128q4 -4 10 -13t6 -13v-2q0 -2 1 -2t1 -2l-2 -2l-136 -138q-10 2 -10 13v15v16zM240 154h10v-30t-10 -32l-130 -128v62zM240 264v-52l-130 -128v52zM240 332l-130 -128v22v20t10 18l120 120v-52zM248 504v-50l-128 -128v50zM248 624v-24v-23t-8 -21 l-112 -114h-8v54zM100 582q0 2 2 6l138 140v-52l-130 -128q-8 2 -9 12t-1 16v6zM856 710l-22 -22l-34 -34t-34 -33t-22 -21q-18 -22 -46 -22q0 10 1 23t11 23q8 10 23 25l28 28t24 23l11 10h60zM968 720v-10l-128 -128h-52l128 128zM1036 720h52l-130 -132q-6 -4 -25 -7 t-27 -3v10zM230 838v-52l-128 -128v52zM738 710l-28 -26v26h28zM230 950v-52l-128 -128h-8v42zM222 1060v-26q0 -10 1 -21t-7 -19l-114 -114h-8v52zM84 1034l138 138v-50l-128 -128q-10 2 -10 12v16v12zM216 1282v-50l-132 -128v50zM804 1292h52l-128 -130h-44v10zM916 1292 q8 10 18 9t20 -1h22l-8 -18l-112 -110q0 -2 -17 -5t-25 -5h-18v10zM1096 1300l-128 -128q-6 -6 -22 -8t-26 -2h-14l138 138h52zM216 1396v-52l-132 -130v54zM738 1292l-44 -42q0 2 -1 6t-1 6q0 16 5 23t23 7h18zM204 1506h16q0 -24 -3 -38t-19 -32l-31 -31l-37 -37t-31 -30 t-15 -12h-8v52zM204 1566l-128 -130v12q0 18 8 36t18 32q6 6 21 20t31 30t30 31t20 21v-52z" />
<glyph unicode="&#xcc;" horiz-adv-x="770" d="M494 1878v-10q0 -2 -10 -12l-24 -24t-29 -28t-23 -22q-18 -16 -44 -29t-54 -13h-6l140 138h50zM382 1928q18 -14 18 -30v-6l-138 -134l-16 32zM210 1878l138 136l18 -34l-138 -138h-6h-2q-2 2 -5 12t-5 14v4v6zM176 1954l140 136l14 -34l-136 -138h-4h-6q0 2 -2 12t-6 14 v6v4zM162 2012l140 142l8 -26l-136 -138h-4h-6q0 2 1 5t-3 7v6v4zM326 -52l-128 -130q-4 0 -22 -2t-30 -6h-6h-4l130 128zM384 -52h52v-10l-110 -110q-12 -10 -33 -15t-37 -5v10zM566 -44l-120 -120q-8 -8 -21 -9t-23 -1q-2 0 -9 1t-9 1l130 128h52zM84 -120l132 128h2h4 q0 -2 4 -12t4 -14v-6v-2l-136 -138q-10 20 -10 36v8zM216 118v-52l-132 -128v52zM216 180l-114 -114l-18 -8v22v20t10 18l122 120v-58zM222 358v-20q0 -12 1 -21t-7 -17l-122 -120v50zM222 478v-50l-128 -128v50zM222 588v-50l-128 -128v50zM222 710v-26q0 -12 1 -23t-7 -21 l-114 -110h-8v52zM216 812h6v-42l-128 -130h-10v44zM216 932v-52l-132 -128v52zM216 1044v-50l-132 -132v52zM216 1162v-26q0 -18 -1 -26t-17 -24q-6 -6 -23 -22t-35 -34t-34 -33t-22 -21v58zM204 1268h12v-44l-140 -138v50zM204 1384v-50l-128 -128v50zM204 1498v-52 l-128 -128v52zM204 1582q0 -2 2 -4q0 -2 2 -4q0 -12 -10 -26l-114 -112h-8v18z" />
<glyph unicode="&#xcd;" horiz-adv-x="770" d="M382 1888h8q6 0 17 -2t11 -12l-2 -4l-128 -128h-10q-10 0 -18 1t-16 7zM288 1914h2h6q4 0 18 -4t18 -4l-138 -138h-14q-6 0 -16 -1t-12 7zM270 1956l-128 -128v22v20t10 18l118 120v-52zM346 2192q0 -28 -17 -57t-41 -56t-50 -51t-44 -38q-4 -2 -9 -5t-7 -3v2v6q0 6 6 26 t10 26q2 4 4 9t6 9l142 140v-8zM326 -52l-128 -130q-4 0 -22 -2t-30 -6h-6h-4l130 128zM384 -52h52v-10l-110 -110q-12 -10 -33 -15t-37 -5v10zM566 -44l-120 -120q-8 -8 -21 -9t-23 -1q-2 0 -9 1t-9 1l130 128h52zM84 -120l132 128h2h4q0 -2 4 -12t4 -14v-6v-2l-136 -138 q-10 20 -10 36v8zM216 118v-52l-132 -128v52zM216 180l-114 -114l-18 -8v22v20t10 18l122 120v-58zM222 358v-20q0 -12 1 -21t-7 -17l-122 -120v50zM222 478v-50l-128 -128v50zM222 588v-50l-128 -128v50zM222 710v-26q0 -12 1 -23t-7 -21l-114 -110h-8v52zM216 812h6v-42 l-128 -130h-10v44zM216 932v-52l-132 -128v52zM216 1044v-50l-132 -132v52zM216 1162v-26q0 -18 -1 -26t-17 -24q-6 -6 -23 -22t-35 -34t-34 -33t-22 -21v58zM204 1268h12v-44l-140 -138v50zM204 1384v-50l-128 -128v50zM204 1498v-52l-128 -128v52zM204 1582q0 -2 2 -4 q0 -2 2 -4q0 -12 -10 -26l-114 -112h-8v18z" />
<glyph unicode="&#xce;" horiz-adv-x="770" d="M342 1856h52l-128 -130q-8 -6 -16 -7t-16 -1h-12t-10 8zM470 1864q4 0 21 -4t23 -4l-22 -22l-34 -34l-34 -34l-22 -22q-16 -16 -24 -17t-28 -1h-26l136 138h6h4zM128 1762l138 136l26 -26l-140 -136l-4 -2l-2 2q-4 0 -10 7t-8 9v6v4zM598 1872l-128 -128h-10l130 128h8z M316 2062q-2 -6 -8 -21t-14 -32t-16 -31t-12 -18q-6 -6 -18 -19t-25 -26t-26 -25t-19 -18q6 20 13 46t21 42zM326 -52l-128 -130q-4 0 -22 -2t-30 -6h-6h-4l130 128zM384 -52h52v-10l-110 -110q-12 -10 -33 -15t-37 -5v10zM566 -44l-120 -120q-8 -8 -21 -9t-23 -1q-2 0 -9 1 t-9 1l130 128h52zM84 -120l132 128h2h4q0 -2 4 -12t4 -14v-6v-2l-136 -138q-10 20 -10 36v8zM216 118v-52l-132 -128v52zM216 180l-114 -114l-18 -8v22v20t10 18l122 120v-58zM222 358v-20q0 -12 1 -21t-7 -17l-122 -120v50zM222 478v-50l-128 -128v50zM222 588v-50 l-128 -128v50zM222 710v-26q0 -12 1 -23t-7 -21l-114 -110h-8v52zM216 812h6v-42l-128 -130h-10v44zM216 932v-52l-132 -128v52zM216 1044v-50l-132 -132v52zM216 1162v-26q0 -18 -1 -26t-17 -24q-6 -6 -23 -22t-35 -34t-34 -33t-22 -21v58zM204 1268h12v-44l-140 -138v50z M204 1384v-50l-128 -128v50zM204 1498v-52l-128 -128v52zM204 1582q0 -2 2 -4q0 -2 2 -4q0 -12 -10 -26l-114 -112h-8v18z" />
<glyph unicode="&#xcf;" horiz-adv-x="770" d="M222 1888l-128 -130q-8 -6 -21 -7t-23 -1h-18l128 128q8 8 22 9t22 1h18zM68 1904h2q10 0 22 -2t12 -14q0 -2 -1 -4t-1 -6l-110 -110q-8 -8 -16 -9t-16 -1q-10 0 -16 1t-14 9zM6 1956l26 -26l-136 -136l-4 -2q-8 0 -17 6t-15 12zM-52 2016l26 -24l-146 -146l-18 32z M-70 2108v-50l-128 -128v50zM818 1874l-128 -130q-8 -6 -21 -7t-23 -1h-18l128 128q8 8 22 9t22 1h18zM664 1890h2q10 0 22 -2t12 -14q0 -2 -1 -4t-1 -6l-110 -110q-8 -8 -16 -9t-16 -1q-10 0 -16 1t-14 9zM602 1942l26 -26l-136 -136l-4 -2q-8 0 -17 6t-15 12zM544 2002 l26 -24l-146 -146l-18 32zM526 2094v-50l-128 -128v50zM326 -52l-128 -130q-4 0 -22 -2t-30 -6h-6h-4l130 128zM384 -52h52v-10l-110 -110q-12 -10 -33 -15t-37 -5v10zM566 -44l-120 -120q-8 -8 -21 -9t-23 -1q-2 0 -9 1t-9 1l130 128h52zM84 -120l132 128h2h4q0 -2 4 -12 t4 -14v-6v-2l-136 -138q-10 20 -10 36v8zM216 118v-52l-132 -128v52zM216 180l-114 -114l-18 -8v22v20t10 18l122 120v-58zM222 358v-20q0 -12 1 -21t-7 -17l-122 -120v50zM222 478v-50l-128 -128v50zM222 588v-50l-128 -128v50zM222 710v-26q0 -12 1 -23t-7 -21l-114 -110 h-8v52zM216 812h6v-42l-128 -130h-10v44zM216 932v-52l-132 -128v52zM216 1044v-50l-132 -132v52zM216 1162v-26q0 -18 -1 -26t-17 -24q-6 -6 -23 -22t-35 -34t-34 -33t-22 -21v58zM204 1268h12v-44l-140 -138v50zM204 1384v-50l-128 -128v50zM204 1498v-52l-128 -128v52z M204 1582q0 -2 2 -4q0 -2 2 -4q0 -12 -10 -26l-114 -112h-8v18z" />
<glyph unicode="&#xd0;" horiz-adv-x="1694" d="M226 490l-6 -6l-4 -12l-114 -112h-8q0 6 3 26t5 26l4 8l4 8l112 112v-2l8 8zM690 546l10 10h52l-54 -58zM1172 1030h6q8 0 14 -12t6 -20v-4l-128 -128h-8q-4 2 -13 11l-13 13zM244 1012q0 -10 -1 -30t-13 -30l-110 -112l-18 -8v20v20t8 18l120 122h14zM216 70v-60 l-132 -130v62zM870 1176q2 0 15 -1t13 -11q0 -2 -2 -8t-6 -10l-112 -110h-58l136 136q2 0 6 2q2 0 4 1t4 1zM230 1474q0 -4 1 -14t1 -14q0 -20 -2 -27t-14 -23q-6 -6 -23 -22t-35 -34t-34 -33t-22 -21v58zM1078 -40q0 -4 -3 -10t-5 -8q-4 -6 -16 -18l-25 -25l-26 -26 t-17 -19q-20 -16 -37 -25t-43 -9h-16l128 128l20 4q8 2 17 4t15 4h8zM592 -66q-4 -4 -6 -10t-4 -8q-4 -6 -16 -18t-26 -25t-26 -26t-18 -19q-6 -4 -18 -13t-14 -13h-54l130 132h52zM986 952l136 136h6q14 -4 18 -18v-8l-134 -138h-12q-2 2 -8 9t-6 9q-2 0 -2 2v4zM778 -58 h52l-136 -140h-44v12zM958 1158h12q10 0 16 -1t14 -11l-134 -134h-10q-4 2 -14 4t-12 2v12zM1216 952h8q0 -2 4 -12t6 -16v-8l-138 -136l-18 34zM1252 634q0 -24 -12 -47t-29 -44t-36 -39t-35 -32q-4 0 -10 -4t-8 -4v8q0 10 4 30q2 8 2 20l122 120zM152 818v-58l-128 -128 v58zM1044 1132q4 -2 10 -4q12 -4 16 -6q8 0 8 -8l-136 -136l-2 -2h-4q-8 0 -16 6t-14 12zM24 460l140 136l24 -26l-138 -136q0 -2 -8 -2q-18 0 -18 24v4zM1112 734q0 2 2 4l136 134l10 -40l-138 -138q-10 12 -10 34v6zM472 -76l-122 -122q-8 -8 -18 -7t-20 1h-20l128 128 q4 4 23 7t29 3v-10zM1268 770v-50l-128 -128l-12 42zM92 -176q0 2 2 4l128 132l26 -26l-138 -138h-2q-10 0 -13 7t-3 15v6zM204 350l-128 -128v24v19t8 19l120 118v-52zM318 -66q4 0 16 -4t16 -6l-128 -128h-50l128 128q2 2 8 6t10 4zM204 292v-52l-128 -128v52zM230 1242 v-52l-128 -128v52zM230 1354v-50l-128 -132v54zM720 -58l-128 -128h-52l128 128h52zM230 1122v-52l-128 -128v52zM204 172v-52l-128 -128v52zM950 -58l-128 -128h-52l120 120q6 6 20 7t22 1h18zM152 698v-50l-128 -128v50zM796 1172l-128 -128v10q2 12 5 31t3 21l68 66h52z M1154 -34q22 4 42 9t38 17l-14 -14t-21 -20t-21 -20l-14 -14q-2 -4 -11 -9t-13 -9q-6 -4 -21 -12t-31 -18t-31 -19t-21 -11zM230 1560h10l-10 -26l-120 -120v24zM828 556l-118 -122q-2 -2 -8 -4t-10 -6h-6l128 132h14z" />
<glyph unicode="&#xd1;" horiz-adv-x="1746" d="M724 1864q0 -8 -8 -14t-19 -12t-21 -10t-14 -8q-4 -2 -15 -12t-23 -21t-24 -21t-14 -12q-12 -10 -18 -14t-18 -4h-8l128 128h54zM1038 1882q4 -2 10 -4q12 -4 16 -4l5 -5t3 -5l-128 -128q-2 -2 -6 -2h-10q-4 0 -15 1t-13 9zM466 1770l128 130h6q20 0 26 -18l-136 -138h-4 h-2q-4 2 -11 8t-7 10l-2 2q-2 0 -2 2zM1174 1874q-4 -6 -16 -19t-25 -26t-26 -25t-17 -16q-12 -10 -35 -25t-41 -19l120 120q0 2 12 5l20 5h6h2zM952 1916l36 -16l-138 -138h-4q-20 0 -30 18zM396 1820l138 138l26 -26l-138 -138h-6h-2l-10 10l-8 8v6v2zM758 1830l128 128 h10q8 0 15 -1t7 -11v-6l-136 -136q-2 -2 -11 5t-13 11l-4 6zM344 1864q0 4 3 13t5 13l132 128q2 -4 8 -13t6 -13l4 -2q0 -2 -2 -4l-2 -2l-136 -138q-4 2 -11 8t-7 10zM274 -76h52l-140 -140h-10q-10 0 -17 1t-15 7zM436 -88l-128 -128h-52l128 128h52zM556 -88l-22 -22 t-34 -33t-35 -33t-23 -22q-16 -16 -22 -18t-28 -2q-2 0 -12 1t-14 1l130 128h60zM624 -76q-6 -10 -22 -28t-36 -37t-37 -35t-25 -22t12 16t46 48t47 46t15 12zM1334 -62h50l-128 -128l-42 -8l-8 8zM1112 -164l138 138q4 -2 10 -6q12 -8 14 -12v-4v-4l-138 -138q-2 2 -6 4 l-8 4q-4 2 -6 5t-4 5v4v4zM238 0v-52l-128 -130v52zM1506 -52v-10l-110 -110q-10 -10 -21 -10h-23h-26l128 130h52zM1618 -44l-130 -128h-34l128 128h36zM1068 -98q0 2 2 4l136 134l18 -32l-138 -138h-4q-10 0 -12 10t-2 18v4zM100 -38q0 8 1 15t9 13l128 128q0 -2 1 -12 t1 -14v-21t-10 -19l-112 -114h-2q-10 0 -13 8t-3 16zM1026 -18l128 128h6q6 0 13 -10t7 -16q0 -2 -2 -8t-6 -10l-112 -110q-2 -2 -6 -4q-8 -4 -10 -4l-4 -2q-10 0 -12 11t-2 17v8zM984 52l128 128h4q10 0 11 -10t1 -18v-8l-128 -128h-4q-8 0 -10 10t-2 18v8zM230 222v-50 l-128 -132v52zM932 118l138 138q6 -4 12 -13t6 -17l-2 -4l-136 -138q-18 10 -18 32v2zM888 186l138 140q4 -4 10 -14t8 -12v-6v-4l-138 -136q-18 6 -18 26v6zM230 340v-50l-128 -128v50zM838 256l138 136q18 -8 18 -26q0 -14 -18 -34q-6 -6 -23 -22t-35 -34t-34 -33t-22 -21 q-2 4 -11 13l-13 13v2v6zM92 314l138 140v-52l-128 -128q-10 2 -10 12v16v12zM924 454h2h6q2 -4 9 -9t9 -9v-4v-4l-138 -138l-26 24zM734 384l138 138h4h4q4 -4 12 -16q4 -6 6 -10l-138 -138h-2h-6l-18 18v2v6zM222 564v-26q0 -20 -1 -27t-17 -25q-4 -4 -16 -17t-26 -26 t-26 -25t-18 -16q-2 -4 -12 -10t-14 -8v52zM684 446l138 136q18 -12 18 -26q0 -2 -1 -3t-1 -3v-2l-136 -138q-10 6 -16 11t-6 17zM212 666h10v-42l-130 -128h-8v42zM770 650h4q10 0 12 -10t2 -16q0 -16 -10 -24q-8 -10 -22 -25t-28 -29t-25 -24l-11 -10h-8v52zM222 796v-52 l-130 -130v52zM674 662q0 2 2 4l52 54q16 -10 16 -28v-8l-60 -60q-10 12 -10 32v6zM222 906v-50l-130 -128v50zM684 796q2 -4 8 -13t10 -13v-4v-6q-4 -2 -14 -12t-12 -14q0 4 -1 14t-1 12t-1 18t11 18zM1240 766q0 2 2 4q0 4 6 10t8 6v-52l-10 15t-6 17zM1188 838l54 50h8 v-40l-52 -52q-2 4 -5 17t-5 17v4v4zM222 1026v-26q0 -18 -1 -26t-17 -24q-4 -6 -16 -19t-26 -26t-26 -25l-18 -18q-2 -2 -12 -8t-14 -6v50zM1128 888l104 106q8 -8 9 -16t1 -18v-10l-96 -94q-4 2 -9 11t-9 13v6v2zM1094 970q0 4 2 6l128 128v-26v-23t-10 -21l-102 -102h-4 q-10 0 -12 10t-2 18v10zM222 1136v-50l-130 -128v50zM1224 1216v-54l-128 -128v52zM222 1256v-50l-130 -128v50zM1224 1334v-52l-128 -128v52zM212 1308l-128 -128v6v2q4 14 6 33t2 21l130 128zM1224 1446v-50l-128 -128v50zM222 1490q8 -22 8 -36q0 -12 -17 -34t-40 -45 t-46 -42t-35 -25v52zM1224 1542v-23t-10 -21l-102 -102l-16 -12q0 4 -1 12t-1 12q0 10 1 19t9 19l120 120v-24zM222 1592v-44l-130 -128v44z" />
<glyph unicode="&#xd2;" d="M1068 1878v-10q0 -2 -10 -12l-24 -24t-29 -28t-23 -22q-18 -16 -44 -29t-54 -13h-6l140 138h50zM956 1928q18 -14 18 -30v-6l-138 -134l-16 32zM784 1878l138 136l18 -34l-138 -138h-6h-2q-2 2 -5 12t-5 14v4v6zM750 1954l140 136l14 -34l-136 -138h-4h-6q0 2 -2 12 t-6 14v6v4zM736 2012l140 142l8 -26l-136 -138h-4h-6q0 2 1 5t-3 7v6v4zM1018 -40h52l-136 -140h-12q-8 0 -15 1t-17 7zM916 -34h52l-136 -138h-16h-14t-14 10zM1198 -34l-118 -120q-6 -6 -21 -7t-27 -1h-14l122 122q4 4 20 5t26 1h12zM822 -8h4q10 0 21 -2t11 -16v-8 l-114 -112q-6 -8 -28 -8q-10 0 -16 1t-14 7zM1344 0q-4 -14 -26 -37t-52 -45t-60 -38t-46 -16h-2l120 120q4 2 10 4q4 2 8 2t8 2t20 5t20 3zM738 18h2h4q4 -2 8 -2t8 -2q6 -2 10 -4l4 -4l-4 -6l-128 -128h-10q-10 0 -17 1t-15 7zM522 -76l128 128h4q2 0 2 1t2 1q8 0 18 -3 t10 -13v-2l-128 -130h-8q-8 0 -18 2t-10 10v6zM584 94h2h6q4 -2 13 -8t11 -10l-134 -134q0 -2 -2 -2q-2 -2 -4 -2q-8 0 -17 6t-13 16zM376 10l138 136q6 0 16 -10t10 -16q0 -2 -7 -12t-11 -14l-22 -22t-33 -34t-33 -33t-22 -21h-4q-10 0 -21 6t-11 16v4zM318 62l138 136 l26 -26l-138 -136q0 -2 -2 -2h-4l-2 2q-4 0 -10 6t-8 10v4v6zM256 116q0 2 2 4l136 138l26 -26l-136 -138h-4h-6q-2 4 -9 9t-7 9zM326 300l4 2l6 -2q2 0 11 -7t13 -9l-138 -138q0 -2 -2 -2h-4q-20 0 -26 20zM162 256q0 2 2 2l128 128h4q10 0 12 -10t2 -16q0 -14 -10 -24 l-110 -114h-10q-10 0 -14 9t-4 19v6zM258 464h4q10 0 12 -10t2 -18q0 -2 -1 -3t-1 -3v-2l-128 -128h-6h-2q-6 6 -13 16t-5 10zM232 558q0 -2 4 -5t4 -5q4 -4 7 -14t1 -12l-136 -136q-2 0 -5 3l-5 5q-2 4 -2 8t-2 8q-2 6 -4 10zM1420 592l4 -8q0 -14 -14 -38t-34 -47t-40 -40 t-32 -17v30zM216 650v-50l-122 -118h-6v40zM1438 720v-22q0 -10 1 -20t-7 -18l-122 -120v52zM208 762v-24q0 -22 -1 -29t-17 -23q-12 -12 -30 -29t-34 -33q-20 -20 -38 -40h-12v50zM1438 840v-52l-128 -128v52zM198 866q4 -10 7 -18t3 -18v-8l-132 -128h-6v44zM1292 806 l140 136q2 -4 4 -17t2 -17q0 -2 -2 -8t-4 -10l-128 -128q-12 20 -12 36v8zM198 934l-128 -128v16q0 10 1 23t5 21l122 120v-52zM1268 898l128 132h4q10 0 12 -10t2 -16q0 -8 -1 -14t-7 -12l-114 -112l-14 -8q-10 14 -10 36v4zM208 1054l-120 -120q4 20 11 45t21 39l102 104z M1234 978l136 136q2 0 5 -4t5 -4q0 -4 4 -16q2 -6 4 -10l-136 -138q-18 10 -18 30v6zM1310 1172q4 4 10 7t8 3q0 -2 7 -8t9 -10l2 -4l-2 -2l-136 -140l-26 26zM1260 1234q2 -2 6 -4l12 -6l8 -8v-6v-2l-140 -138l-24 26zM1172 1268h4q2 0 2 1t2 1q10 0 19 -4t9 -14v-10 l-112 -110q-6 -8 -13 -9t-15 -1q-10 0 -16 1t-16 9zM762 1146q-2 0 -8 -3t-10 -3q-2 0 -18 -4t-24 -4h-4h-4q4 6 18 20t31 30t32 31l21 21q14 10 41 20t47 14zM1080 1286h42v-8l-128 -132h-10q-10 0 -18 1t-16 11zM950 1278q12 10 30 12t32 2h6l-134 -134q-2 -2 -4 -2 q-2 -2 -10 -2q-14 0 -30 10z" />
<glyph unicode="&#xd3;" d="M956 1888h8q6 0 17 -2t11 -12l-2 -4l-128 -128h-10q-10 0 -18 1t-16 7zM862 1914h2h6q4 0 18 -4t18 -4l-138 -138h-14q-6 0 -16 -1t-12 7zM844 1956l-128 -128v22v20t10 18l118 120v-52zM920 2192q0 -28 -17 -57t-41 -56t-50 -51t-44 -38q-4 -2 -9 -5t-7 -3v2v6q0 6 6 26 t10 26q2 4 4 9t6 9l142 140v-8zM1018 -40h52l-136 -140h-12q-8 0 -15 1t-17 7zM916 -34h52l-136 -138h-16h-14t-14 10zM1198 -34l-118 -120q-6 -6 -21 -7t-27 -1h-14l122 122q4 4 20 5t26 1h12zM822 -8h4q10 0 21 -2t11 -16v-8l-114 -112q-6 -8 -28 -8q-10 0 -16 1t-14 7z M1344 0q-4 -14 -26 -37t-52 -45t-60 -38t-46 -16h-2l120 120q4 2 10 4q4 2 8 2t8 2t20 5t20 3zM738 18h2h4q4 -2 8 -2t8 -2q6 -2 10 -4l4 -4l-4 -6l-128 -128h-10q-10 0 -17 1t-15 7zM522 -76l128 128h4q2 0 2 1t2 1q8 0 18 -3t10 -13v-2l-128 -130h-8q-8 0 -18 2t-10 10v6z M584 94h2h6q4 -2 13 -8t11 -10l-134 -134q0 -2 -2 -2q-2 -2 -4 -2q-8 0 -17 6t-13 16zM376 10l138 136q6 0 16 -10t10 -16q0 -2 -7 -12t-11 -14l-22 -22t-33 -34t-33 -33t-22 -21h-4q-10 0 -21 6t-11 16v4zM318 62l138 136l26 -26l-138 -136q0 -2 -2 -2h-4l-2 2q-4 0 -10 6 t-8 10v4v6zM256 116q0 2 2 4l136 138l26 -26l-136 -138h-4h-6q-2 4 -9 9t-7 9zM326 300l4 2l6 -2q2 0 11 -7t13 -9l-138 -138q0 -2 -2 -2h-4q-20 0 -26 20zM162 256q0 2 2 2l128 128h4q10 0 12 -10t2 -16q0 -14 -10 -24l-110 -114h-10q-10 0 -14 9t-4 19v6zM258 464h4 q10 0 12 -10t2 -18q0 -2 -1 -3t-1 -3v-2l-128 -128h-6h-2q-6 6 -13 16t-5 10zM232 558q0 -2 4 -5t4 -5q4 -4 7 -14t1 -12l-136 -136q-2 0 -5 3l-5 5q-2 4 -2 8t-2 8q-2 6 -4 10zM1420 592l4 -8q0 -14 -14 -38t-34 -47t-40 -40t-32 -17v30zM216 650v-50l-122 -118h-6v40z M1438 720v-22q0 -10 1 -20t-7 -18l-122 -120v52zM208 762v-24q0 -22 -1 -29t-17 -23q-12 -12 -30 -29t-34 -33q-20 -20 -38 -40h-12v50zM1438 840v-52l-128 -128v52zM198 866q4 -10 7 -18t3 -18v-8l-132 -128h-6v44zM1292 806l140 136q2 -4 4 -17t2 -17q0 -2 -2 -8t-4 -10 l-128 -128q-12 20 -12 36v8zM198 934l-128 -128v16q0 10 1 23t5 21l122 120v-52zM1268 898l128 132h4q10 0 12 -10t2 -16q0 -8 -1 -14t-7 -12l-114 -112l-14 -8q-10 14 -10 36v4zM208 1054l-120 -120q4 20 11 45t21 39l102 104zM1234 978l136 136q2 0 5 -4t5 -4q0 -4 4 -16 q2 -6 4 -10l-136 -138q-18 10 -18 30v6zM1310 1172q4 4 10 7t8 3q0 -2 7 -8t9 -10l2 -4l-2 -2l-136 -140l-26 26zM1260 1234q2 -2 6 -4l12 -6l8 -8v-6v-2l-140 -138l-24 26zM1172 1268h4q2 0 2 1t2 1q10 0 19 -4t9 -14v-10l-112 -110q-6 -8 -13 -9t-15 -1q-10 0 -16 1t-16 9 zM762 1146q-2 0 -8 -3t-10 -3q-2 0 -18 -4t-24 -4h-4h-4q4 6 18 20t31 30t32 31l21 21q14 10 41 20t47 14zM1080 1286h42v-8l-128 -132h-10q-10 0 -18 1t-16 11zM950 1278q12 10 30 12t32 2h6l-134 -134q-2 -2 -4 -2q-2 -2 -10 -2q-14 0 -30 10z" />
</font>
</defs>
</svg>
